<?xml version="1.0" standalone="no"?>
<!DOCTYPE svg PUBLIC "-//W3C//DTD SVG 1.1//EN" "http://www.w3.org/Graphics/SVG/1.1/DTD/svg11.dtd" >
<svg xmlns="http://www.w3.org/2000/svg">
<metadata>
Created by FontPrep 20130207 at Wed Jun 18 11:30:11 2014
 By Davo
Copyright (C) 2006, 2007 Hoefler &#38; Frere-Jones. http://www.typography.com
</metadata>
<defs>
<font id="13af3003001cba3805884d1b06b023c9" horiz-adv-x='1024' >
  <font-face 
    font-family="GothamRounded-Medium"
    font-weight="350"
    font-stretch="normal"
    units-per-em="2048"
    panose-1="2 0 0 0 0 0 0 0 0 0"
    ascent="1638"
    descent="-410"
    x-height="1081"
    cap-height="1444"
    bbox="-100.034 -563.014 2417 2185.04"
    underline-thickness="102"
    underline-position="-102"
    unicode-range="U+0020-FB04"
  />
<missing-glyph horiz-adv-x="1024" 
d="M512 492l-367 -799h734zM922 1384l-353 -770l353 -770v1540zM102 -156l353 770l-353 770v-1540zM145 1536l367 -799l367 799h-734zM0 -410v2048h1024v-2048h-1024z" />
    <glyph glyph-name="f_f" unicode="ff" horiz-adv-x="1540" 
d="M981 113v755h-43q-43 0 -74 30t-30 73q0 43 30 73t74 31h43v80q0 178 87 265t245 87q68 0 114 -7q45 -7 71 -36q26 -28 26 -70t-31 -73t-67 -28t-58 3q-143 0 -143 -163v-60h192q45 0 75 -30q30 -31 30 -73t-31 -72t-74 -30h-188v-755q0 -51 -37 -87t-88 -36t-87 36
t-36 87zM211 113v755h-43q-43 0 -74 30t-31 73t31 73t74 31h43v80q0 178 87 265t245 87q68 0 114 -7q45 -7 71 -36q26 -28 26 -70t-31 -73t-67 -28t-58 3q-143 0 -143 -163v-60h192q45 0 75 -30q30 -31 30 -73t-31 -72t-74 -30h-188v-755q0 -51 -37 -87t-88 -36t-87 36
t-36 87z" />
    <glyph glyph-name="fi" unicode="fi" horiz-adv-x="1355" 
d="M211 113v755h-43q-43 0 -74 30t-31 73t31 73t74 31h43v80q0 178 87 265t245 87q68 0 114 -7q45 -7 71 -36q26 -28 26 -70t-31 -73t-67 -28t-58 3q-143 0 -143 -163v-60h192q45 0 75 -30q30 -31 30 -73t-31 -72t-74 -30h-188v-755q0 -51 -37 -87t-88 -36t-87 36t-36 87z
M940 113v856q0 53 36 89t87 36t88 -37t37 -88v-856q0 -51 -36 -87t-88 -36t-88 36t-36 87zM922 1360v12q0 55 40 88t101 33t101 -33t40 -88v-12q0 -55 -40 -89t-101 -34t-101 34t-40 89z" />
    <glyph glyph-name="fl" unicode="fl" horiz-adv-x="1355" 
d="M211 113v755h-43q-43 0 -74 30t-31 73t31 73t74 31h43v80q0 178 87 265t245 87q68 0 114 -7q45 -7 71 -36q26 -28 26 -70t-31 -73t-67 -28t-58 3q-143 0 -143 -163v-60h192q45 0 75 -30q30 -31 30 -73t-31 -72t-74 -30h-188v-755q0 -51 -37 -87t-88 -36t-87 36t-36 87z
M940 113v1269q0 51 36 87t87 36t88 -36t37 -87v-1269q0 -51 -36 -87t-88 -36t-88 36t-36 87z" />
    <glyph glyph-name="f_f_i" unicode="ffi" horiz-adv-x="2125" 
d="M981 113v755h-43q-43 0 -74 30t-30 73q0 43 30 73t74 31h43v80q0 178 87 265t245 87q68 0 114 -7q45 -7 71 -36q26 -28 26 -70t-31 -73t-67 -28t-58 3q-143 0 -143 -163v-60h192q45 0 75 -30q30 -31 30 -73t-31 -72t-74 -30h-188v-755q0 -51 -37 -87t-88 -36t-87 36
t-36 87zM211 113v755h-43q-43 0 -74 30t-31 73t31 73t74 31h43v80q0 178 87 265t245 87q68 0 114 -7q45 -7 71 -36q26 -28 26 -70t-31 -73t-67 -28t-58 3q-143 0 -143 -163v-60h192q45 0 75 -30q30 -31 30 -73t-31 -72t-74 -30h-188v-755q0 -51 -37 -87t-88 -36t-87 36
t-36 87zM1710 113v856q0 53 36 89t87 36t88 -37t37 -88v-856q0 -51 -36 -87t-88 -36t-88 36t-36 87zM1692 1360v12q0 55 40 88t101 33t101 -33t40 -88v-12q0 -55 -40 -89t-101 -34t-101 34t-40 89z" />
    <glyph glyph-name="f_f_l" unicode="ffl" horiz-adv-x="2125" 
d="M1710 113v1269q0 51 36 87t87 36t88 -36t37 -87v-1269q0 -51 -36 -87t-88 -36t-88 36t-36 87zM981 113v755h-43q-43 0 -74 30t-30 73q0 43 30 73t74 31h43v80q0 178 87 265t245 87q68 0 114 -7q45 -7 71 -36q26 -28 26 -70t-31 -73t-67 -28t-58 3q-143 0 -143 -163v-60
h192q45 0 75 -30q30 -31 30 -73t-31 -72t-74 -30h-188v-755q0 -51 -37 -87t-88 -36t-87 36t-36 87zM211 113v755h-43q-43 0 -74 30t-31 73t31 73t74 31h43v80q0 178 87 265t245 87q68 0 114 -7q45 -7 71 -36q26 -28 26 -70t-31 -73t-67 -28t-58 3q-143 0 -143 -163v-60h192
q45 0 75 -30q30 -31 30 -73t-31 -72t-74 -30h-188v-755q0 -51 -37 -87t-88 -36t-87 36t-36 87z" />
    <glyph glyph-name=".notdef" horiz-adv-x="1024" 
d="M512 492l-367 -799h734zM922 1384l-353 -770l353 -770v1540zM102 -156l353 770l-353 770v-1540zM145 1536l367 -799l367 799h-734zM0 -410v2048h1024v-2048h-1024z" />
    <glyph glyph-name=".null" horiz-adv-x="0" 
 />
    <glyph glyph-name="nonmarkingreturn" horiz-adv-x="681" 
 />
    <glyph glyph-name="space" unicode=" " horiz-adv-x="614" 
 />
    <glyph glyph-name="exclam" unicode="!" horiz-adv-x="618" 
d="M164 152q0 59 42 100t104 41t104 -41t41 -100v-21q0 -59 -41 -100q-42 -41 -104 -41t-104 41t-42 100v21zM236 1440h147q35 0 57 -26t17 -62l-72 -836q-2 -33 -24 -53q-23 -21 -53 -21t-50 20t-22 54l-72 836q-4 36 16 62t56 26z" />
    <glyph glyph-name="quotedbl" unicode="&#x22;" horiz-adv-x="997" 
d="M281 1440h79q32 0 50 -18t18 -40t-8 -55l-150 -455q-23 -63 -73 -63q-31 0 -52 21q-20 22 -18 57l37 438q4 49 36 82t81 33zM729 1440h82q29 0 47 -18t18 -40t-8 -55l-149 -455q-23 -63 -74 -63q-31 -1 -50 21t-17 57l34 438q4 49 36 82t81 33z" />
    <glyph glyph-name="numbersign" unicode="#" horiz-adv-x="1433" 
d="M526 543h320l61 356h-319zM176 330q-45 0 -76 30q-30 30 -30 75q0 44 30 76q31 32 76 32h131l62 356h-119q-43 0 -75 32t-32 75q0 42 32 74t75 32h156l40 244q6 40 36 64t75 24t77 -38t25 -87l-36 -207h321l41 244q6 40 37 64t76 24t77 -39t23 -86l-35 -207h94
q43 0 75 -31t32 -75t-32 -75q-32 -32 -75 -32h-131l-61 -356h117q46 0 76 -31t30 -75t-31 -76t-75 -31h-154l-43 -252q-6 -39 -36 -64q-31 -24 -75 -24t-77 38t-25 87l39 215h-322l-43 -252q-6 -37 -36 -63q-30 -25 -75 -25q-46 0 -78 37t-24 88l37 215h-94z" />
    <glyph glyph-name="dollar" unicode="$" horiz-adv-x="1314" 
d="M395 1056q0 -69 41 -112t156 -80v363q-96 -8 -146 -55t-51 -116zM956 383q0 72 -44 117t-158 80v-373q98 10 150 57t52 119zM584 1475q0 37 26 63t64 25q36 0 62 -26t26 -62v-45q170 -20 317 -113q61 -35 61 -90t-33 -88q-34 -33 -73 -33t-69 18q-111 68 -211 90v-393
q232 -59 338 -158t106 -265t-119 -272q-119 -108 -317 -126v-123q0 -37 -26 -63t-62 -25q-36 0 -64 26q-27 26 -26 62v127q-227 25 -420 160q-55 35 -55 90t32 88q33 33 76 33t72 -23q152 -111 303 -137v403q-230 60 -334 156t-104 263t118 273q119 105 312 122v43z" />
    <glyph glyph-name="percent" unicode="%" horiz-adv-x="1738" 
d="M1147 350q0 -88 45 -148t114 -61q68 -1 110 59t42 146v4q0 88 -45 148t-114 61q-69 0 -111 -59t-41 -146v-4zM281 1083q1 -89 45 -149t113 -60t111 60t42 145v4q0 89 -45 149t-114 60t-111 -59t-41 -146v-4zM1302 -16q-148 0 -243 105q-94 105 -94 257v4q0 154 95 260
q96 106 244 106t242 -104q94 -106 94 -258v-4q0 -152 -95 -259t-243 -107zM401 -10q-41 0 -63 24t-23 53q0 30 19 56l940 1284q20 37 62 37t66 -24q48 -48 5 -109l-940 -1284q-25 -37 -66 -37zM436 717q-148 0 -243 105q-94 105 -95 257v4q0 154 96 260q96 107 244 107
q150 0 243 -105t93 -258v-4q0 -154 -95 -260t-243 -106z" />
    <glyph glyph-name="ampersand" unicode="&#x26;" horiz-adv-x="1425" 
d="M573 188q139 0 273 127l-320 326q-193 -84 -192 -240v-4q0 -89 68 -149t171 -60zM836 1098q0 72 -45 116t-119 46q-74 0 -122 -48t-48 -125v-4q-1 -94 108 -213q115 40 170 94t56 130v4zM1228 -20q-48 0 -87 38l-150 152q-197 -190 -442 -190q-205 0 -337 112t-132 297v4
q0 270 305 402q-119 152 -119 299v4q0 150 113 255t290 105t283 -99t107 -247v-4q0 -254 -314 -373l244 -248q57 82 119 205q27 60 83 60t88 -32t32 -67t-15 -63q-72 -133 -155 -252l159 -160q39 -39 39 -86t-31 -80q-32 -32 -80 -32z" />
    <glyph glyph-name="quotesingle" unicode="'" horiz-adv-x="550" 
d="M281 1440h79q30 0 50 -18t20 -40t-8 -55l-150 -455q-23 -63 -75 -63q-31 0 -52 21q-20 22 -18 57l37 438q4 49 36 82t81 33z" />
    <glyph glyph-name="parenleft" unicode="(" horiz-adv-x="903" 
d="M803 -169q-1 -47 -29 -77t-67 -30t-58 14q-520 311 -520 850t520 850q17 14 57 14t68 -31t29 -77q0 -46 -41 -76q-197 -139 -291 -302t-94 -378t94 -378t291 -302q41 -31 41 -77z" />
    <glyph glyph-name="parenright" unicode=")" horiz-adv-x="903" 
d="M195 -276q-39 0 -68 30t-29 76q0 45 43 78q197 139 291 302t94 378t-94 378t-291 302q-43 33 -43 78q0 46 29 76t68 30t57 -14q522 -311 522 -850t-522 -850q-18 -14 -57 -14z" />
    <glyph glyph-name="asterisk" unicode="*" horiz-adv-x="880" 
d="M125 976q0 36 47 56l180 78l-180 80q-47 20 -47 55t20 55q44 44 99 0l153 -112l-20 182q-4 34 14 56t49 22t49 -22t15 -54l-21 -184l154 112q58 43 99 2q20 -20 20 -56t-47 -56l-181 -80l181 -78q47 -20 47 -56t-20 -56q-40 -39 -99 0l-154 112l21 -182q4 -34 -14 -56
t-50 -22q-31 0 -49 22t-14 54l20 184l-153 -112q-60 -38 -98 0q-20 20 -21 56z" />
    <glyph glyph-name="plus" unicode="+" horiz-adv-x="1298" 
d="M532 324v284h-290q-47 0 -80 33t-33 79t34 80t79 34h290v284q0 49 34 83t82 34t83 -34t35 -83v-284h291q45 0 79 -34t34 -80t-34 -79q-32 -33 -79 -33h-291v-284q0 -49 -35 -83t-83 -34t-82 34t-34 83z" />
    <glyph glyph-name="comma" unicode="," horiz-adv-x="550" 
d="M61 -240q0 45 48 56q145 47 139 184q-49 14 -83 51t-34 88v17q0 59 39 98q38 39 104 39t105 -48t39 -132v-23q0 -195 -101 -299q-92 -88 -192 -88q-64 0 -64 57z" />
    <glyph glyph-name="hyphen" unicode="-" horiz-adv-x="835" 
d="M225 506q-49 0 -85 36t-36 86t36 86t85 36h385q49 0 85 -36t36 -86t-36 -86t-85 -36h-385z" />
    <glyph glyph-name="period" unicode="." horiz-adv-x="550" 
d="M131 152q0 59 41 100t103 41q61 0 103 -41t42 -100v-21q0 -59 -41 -100t-103 -41t-104 41q-41 41 -41 100v21z" />
    <glyph glyph-name="slash" unicode="/" horiz-adv-x="1067" 
d="M107 -272q-51 0 -79 28t-28 59q0 32 12 56l838 1716q29 57 79 57t79 -27q28 -29 28 -57t-10 -59l-840 -1716q-29 -57 -79 -57z" />
    <glyph glyph-name="zero" unicode="0" horiz-adv-x="1482" 
d="M743 203q164 0 264 146q99 146 99 364v4q0 217 -102 365t-264 148t-263 -144q-100 -146 -100 -365v-4q0 -217 101 -365t265 -149zM739 -25q-276 0 -449 212t-173 526v4q0 313 175 527t451 214q275 0 449 -212t174 -525v-4q0 -313 -175 -528q-176 -214 -452 -214z" />
    <glyph glyph-name="one" unicode="1" horiz-adv-x="811" 
d="M365 115v1081l-148 -45q-20 -6 -55 -6t-68 32t-33 74q0 86 84 109l217 70q78 23 123 22h4q53 0 89 -36t36 -89v-1212q0 -53 -36 -89t-88 -36t-89 37q-36 37 -36 88z" />
    <glyph glyph-name="two" unicode="2" horiz-adv-x="1255" 
d="M88 128q0 64 66 116l440 374q152 127 210 210q58 84 58 182t-65 158q-66 60 -166 61q-152 0 -283 -160q-35 -39 -85 -39t-84 34t-34 79t29 80q94 117 204 174t271 57q211 0 342 -118t131 -310v-4q0 -160 -82 -272t-290 -283l-295 -246h581q45 0 78 -33q33 -34 33 -78
t-33 -77t-78 -33h-813q-59 0 -97 32t-38 96z" />
    <glyph glyph-name="three" unicode="3" horiz-adv-x="1265" 
d="M637 -25q-293 0 -485 187q-41 33 -41 86t35 89q36 36 84 36t85 -33q137 -137 326 -137q106 0 177 60t71 157v4q0 104 -89 162t-241 59h-51q-45 0 -77 32t-32 79t54 100l335 358h-520q-45 0 -78 32t-32 77q0 45 31 78q32 33 79 33h733q55 0 91 -31t34 -89q0 -58 -71 -128
l-338 -350q182 -23 302 -120t120 -282v-4q1 -199 -139 -327t-363 -128z" />
    <glyph glyph-name="four" unicode="4" horiz-adv-x="1396" 
d="M844 528v568l-471 -568h471zM844 109v213h-641q-51 0 -87 34t-36 92q0 60 55 125l674 799q37 42 70 62t84 20t87 -35t35 -86v-805h111q45 0 75 -30q29 -30 29 -74q0 -43 -30 -73t-74 -29h-111v-213q-1 -51 -35 -85t-85 -34t-86 34t-35 85z" />
    <glyph glyph-name="five" unicode="5" horiz-adv-x="1275" 
d="M1155 461q-1 -217 -147 -351t-390 -135q-244 0 -446 156q-51 41 -51 94t36 89t82 36t76 -24q150 -121 312 -121q123 -1 201 67t77 181v4q0 109 -82 173t-215 64q-82 0 -161 -24t-85 -25q-49 0 -110 43t-57 117l30 516q2 49 35 81t80 32h649q47 0 80 -33t33 -79t-33 -79
t-80 -33h-538l-23 -336q113 41 227 41q221 0 361 -115q139 -116 139 -335v-4z" />
    <glyph glyph-name="six" unicode="6" horiz-adv-x="1343" 
d="M684 195q131 1 209 73t78 185v4q0 109 -81 179t-212 71q-131 0 -211 -73t-80 -179v-4q0 -111 83 -183t214 -73zM1223 463q0 -211 -153 -349q-152 -138 -390 -139q-238 0 -389 152q-86 86 -130 213t-44 334v4q0 342 161 561t453 219q207 0 359 -102q63 -42 63 -100
t-36 -92t-76 -34t-72 19q-121 80 -246 80q-156 0 -245 -126t-99 -329q147 144 353 144t348 -121t143 -330v-4z" />
    <glyph glyph-name="seven" unicode="7" horiz-adv-x="1247" 
d="M281 95q0 44 22 85l557 1032h-620q-47 0 -79 33t-32 78t32 78t79 33h804q53 0 84 -30t31 -84t-35 -120l-594 -1126q-45 -84 -120 -84q-53 0 -92 30q-37 31 -37 75z" />
    <glyph glyph-name="eight" unicode="8" horiz-adv-x="1290" 
d="M645 190q137 0 219 62t82 154v4q0 96 -86 156t-215 60t-214 -60t-85 -156v-4q0 -90 81 -153t218 -63zM645 827q111 -1 183 59t73 152v4q0 84 -72 142q-73 58 -185 59q-112 0 -184 -57t-71 -142v-4q1 -94 73 -154t183 -59zM1192 395q0 -187 -154 -301t-392 -114
q-240 0 -394 114t-154 297v4q0 240 258 348q-209 111 -209 320v4q-1 167 141 277t357 110t356 -111t142 -276v-4q0 -209 -209 -320q258 -117 258 -344v-4z" />
    <glyph glyph-name="nine" unicode="9" horiz-adv-x="1343" 
d="M666 715q133 0 212 75t78 183v4q0 115 -82 189t-215 75q-133 0 -209 -76t-77 -190v-4q0 -113 80 -185t213 -71zM612 -25q-211 0 -387 119q-57 38 -57 96t35 91t77 33t76 -21q126 -88 272 -88t238 124t99 326q-127 -151 -346 -151t-359 124q-139 124 -139 330v5
q0 213 149 354q150 141 390 141t395 -151q172 -176 172 -547v-4q0 -350 -164 -566t-451 -215z" />
    <glyph glyph-name="colon" unicode=":" horiz-adv-x="571" 
d="M141 152q0 59 41 100q42 41 104 41t103 -41t41 -100v-21q0 -59 -41 -100t-103 -41t-104 41q-41 41 -41 100v21zM141 950q0 60 41 102q42 42 104 42t103 -41t41 -103v-18q0 -60 -41 -102t-103 -42t-104 41q-41 41 -41 103v18z" />
    <glyph glyph-name="semicolon" unicode=";" horiz-adv-x="571" 
d="M72 -240q0 45 47 56q145 47 139 184q-49 14 -83 51t-34 88v17q0 59 39 98t105 39q67 0 105 -48t38 -132v-23q0 -195 -100 -299q-92 -88 -193 -88q-63 0 -63 57zM141 950q0 60 41 102q42 42 104 42t103 -41t41 -103v-18q0 -60 -41 -102t-103 -42t-104 41q-41 41 -41 103
v18z" />
    <glyph glyph-name="less" unicode="&#x3c;" horiz-adv-x="1298" 
d="M1030 197q-35 0 -67 16l-740 362q-98 45 -98 138v16q0 92 98 137l740 363q82 40 134 -12q30 -31 29 -76q0 -70 -69 -103l-674 -315l674 -317q70 -33 69 -105q0 -45 -30 -75q-31 -29 -66 -29z" />
    <glyph glyph-name="equal" unicode="=" horiz-adv-x="1298" 
d="M260 350q-47 0 -81 34t-34 81t34 81t81 34h778q47 0 81 -34t34 -81t-34 -81t-81 -34h-778zM260 862q-47 0 -81 34t-34 81t34 81t81 34h778q47 0 81 -34t34 -81t-34 -81t-81 -34h-778z" />
    <glyph glyph-name="greater" unicode="&#x3e;" horiz-adv-x="1298" 
d="M172 1141q0 45 31 75t66 29q35 0 67 -16l737 -363q100 -45 101 -137v-16q0 -92 -101 -138l-737 -362q-83 -40 -134 12q-30 31 -30 76q0 70 70 100l673 318l-673 317q-70 33 -70 105z" />
    <glyph glyph-name="question" unicode="?" horiz-adv-x="1107" 
d="M356 152q0 59 41 100t105 41t104 -41q41 -41 41 -100v-21q0 -59 -41 -100t-104 -41t-105 41q-41 41 -41 100v21zM514 442h-12q-35 0 -60 24t-28 58l-21 176q-6 41 17 70t63 33q299 29 299 221v4q0 88 -63 141t-172 54q-154 0 -279 -113q-35 -29 -79 -29t-78 33
q-33 33 -33 83t41 85q180 170 434 170q217 0 349 -113t132 -303v-4q0 -342 -414 -414l-8 -94q-6 -34 -30 -58t-58 -24z" />
    <glyph glyph-name="at" unicode="@" horiz-adv-x="2007" 
d="M721 552q-1 -120 59 -178q60 -59 164 -59q104 1 190 97q85 96 85 210q1 114 -61 176t-166 62t-187 -94q-84 -94 -84 -214zM1022 -332q-389 0 -651 261t-262 631t261 634t636 264q184 0 351 -68t285 -179q118 -112 187 -259q70 -147 69 -305q0 -246 -114 -378t-283 -132
q-213 0 -303 144q-139 -143 -307 -143t-275 107q-106 108 -106 279q0 213 141 363q141 149 327 149t286 -151l6 37q18 102 106 102q47 0 77 -36t22 -89l-78 -438q-10 -61 -11 -88q0 -68 44 -107t116 -39q115 0 193 110t78 310q0 291 -236 512q-237 221 -579 221t-577 -239
q-235 -240 -235 -582q0 -341 236 -577t596 -236q264 0 487 127q9 6 23 6q31 0 33 -37q0 -23 -19 -30q-241 -144 -524 -144z" />
    <glyph glyph-name="A" unicode="A" horiz-adv-x="1583" 
d="M537 569h503l-252 580zM203 -10q-49 0 -83 34t-34 70q0 37 16 70l533 1188q47 102 151 102h13q102 0 149 -102l533 -1188q14 -28 14 -66t-34 -73t-85 -35q-86 0 -123 88l-116 268h-697l-121 -276q-33 -80 -116 -80z" />
    <glyph glyph-name="B" unicode="B" horiz-adv-x="1478" 
d="M432 223h418q131 0 204 50t72 147v4q0 193 -295 192h-399v-393zM432 829h344q125 -1 198 49t73 146v4q0 86 -66 134t-186 48h-363v-381zM184 127v1180q0 53 37 90t90 37h516q248 0 375 -127q96 -96 96 -238v-4q0 -213 -204 -320q285 -96 284 -348v-4q0 -189 -143 -291
t-387 -102h-537q-53 0 -90 37t-37 90z" />
    <glyph glyph-name="C" unicode="C" horiz-adv-x="1511" 
d="M845 -25q-306 0 -515 213t-209 525v4q0 311 209 526t530 215q281 0 492 -162q49 -37 49 -94t-36 -93t-84 -36t-81 25q-160 129 -352 129q-192 -1 -328 -147q-135 -146 -135 -359v-4q0 -213 135 -361t335 -147q200 0 362 137q33 29 77 29t81 -35q36 -35 36 -85t-41 -87
q-219 -193 -525 -193z" />
    <glyph glyph-name="D" unicode="D" horiz-adv-x="1601" 
d="M436 229h283q223 -1 360 135t138 349v4q1 213 -137 350t-361 137h-283v-975zM184 127v1180q0 53 37 90t90 37h408q334 0 548 -204t214 -509v-4q0 -307 -214 -512t-548 -205h-408q-53 0 -90 37t-37 90z" />
    <glyph glyph-name="E" unicode="E" horiz-adv-x="1372" 
d="M311 0q-53 0 -90 37t-37 90v1180q0 53 37 90t90 37h834q47 0 80 -33t33 -80t-34 -80q-32 -33 -79 -33h-709v-372h617q47 0 80 -34t33 -80t-34 -79q-32 -33 -79 -33h-617v-385h719q45 -1 79 -33t34 -79t-33 -80t-80 -33h-844z" />
    <glyph glyph-name="F" unicode="F" horiz-adv-x="1343" 
d="M184 115v1192q0 53 37 90t90 37h836q47 0 81 -34t34 -81t-34 -81t-81 -34h-711v-391h619q47 0 81 -34t34 -81t-34 -81t-81 -33h-619v-469q0 -53 -36 -89t-89 -36t-90 36t-37 89z" />
    <glyph glyph-name="G" unicode="G" horiz-adv-x="1605" 
d="M864 -25q-332 0 -538 210t-205 528v4q0 307 210 524t513 217t506 -145q51 -39 51 -97t-37 -94q-37 -37 -81 -37t-85 29q-154 113 -350 113q-196 -1 -329 -149q-134 -148 -134 -357v-4q0 -223 135 -367t344 -145q209 0 355 108v269h-283q-47 0 -80 32t-33 76q0 45 33 78
t80 33h399q53 0 90 -37t37 -90v-383q0 -104 -88 -160q-234 -156 -510 -156z" />
    <glyph glyph-name="H" unicode="H" horiz-adv-x="1556" 
d="M184 115v1204q0 53 37 89t90 36t89 -36t36 -89v-481h684v481q0 53 36 89t89 36t90 -36t37 -89v-1204q0 -53 -37 -89t-90 -36t-89 36t-36 89v489h-684v-489q0 -53 -36 -89t-89 -36t-90 36t-37 89z" />
    <glyph glyph-name="I" unicode="I" horiz-adv-x="649" 
d="M199 115v1204q0 53 37 89t89 36t89 -36t37 -89v-1204q0 -53 -37 -89t-89 -36t-89 36t-37 89z" />
    <glyph glyph-name="J" unicode="J" horiz-adv-x="1146" 
d="M985 487q0 -247 -131 -377t-358 -130t-385 157q-43 39 -43 92t34 88q35 35 82 35t82 -28q106 -111 224 -111q240 0 241 283v823q0 51 37 88t90 37t90 -37t37 -88v-832z" />
    <glyph glyph-name="K" unicode="K" horiz-adv-x="1460" 
d="M184 115v1204q0 53 37 89t90 36t89 -36t36 -89v-606l680 684q44 47 100 47t89 -35t33 -85t-46 -91l-446 -430l483 -600q35 -45 35 -93t-37 -84t-94 -36t-103 59l-460 588l-234 -225v-297q0 -53 -36 -89t-89 -36t-90 36t-37 89z" />
    <glyph glyph-name="L" unicode="L" horiz-adv-x="1267" 
d="M184 127v1192q0 53 37 89t90 36t89 -36t36 -89v-1090h649q47 1 81 -33t34 -81t-34 -81t-81 -34h-774q-53 0 -90 37t-37 90z" />
    <glyph glyph-name="M" unicode="M" horiz-adv-x="1777" 
d="M184 113v1202q0 53 37 90t90 37h27q74 0 117 -68l434 -680l436 682q41 66 115 66h26q53 0 90 -37t37 -90v-1200q0 -53 -37 -89t-89 -36t-89 37t-37 88v860l-350 -526q-43 -66 -105 -66t-106 66l-348 522v-858q0 -51 -36 -87t-89 -36t-88 36t-35 87z" />
    <glyph glyph-name="N" unicode="N" horiz-adv-x="1617" 
d="M184 113v1202q0 53 37 90t90 37h27q72 0 131 -74l717 -928v881q0 51 36 87t87 36t88 -36t37 -87v-1204q0 -53 -36 -89t-87 -36h-11q-72 0 -131 76l-737 954v-909q0 -51 -36 -87t-87 -36t-88 36t-37 87z" />
    <glyph glyph-name="O" unicode="O" horiz-adv-x="1740" 
d="M872 209q211 0 348 145q136 145 136 359v4q0 213 -138 361t-350 148t-347 -146q-136 -146 -136 -359v-4q0 -213 138 -361t349 -147zM868 -25q-326 0 -536 215t-211 523v4q0 307 213 524q212 217 538 217t537 -215t211 -522v-4q0 -307 -213 -525t-539 -217z" />
    <glyph glyph-name="P" unicode="P" horiz-adv-x="1368" 
d="M436 688h293q141 0 225 72t84 184v4q0 123 -83 190t-226 66h-293v-516zM184 115v1192q0 53 37 90t90 37h439q250 0 397 -131t147 -349v-4q0 -231 -162 -360t-411 -129h-285v-346q0 -53 -36 -89t-89 -36t-90 36t-37 89z" />
    <glyph glyph-name="Q" unicode="Q" horiz-adv-x="1740" 
d="M895 520q0 53 35 89t82 36t90 -37l184 -168q70 121 70 273v4q0 213 -138 361t-350 148t-347 -146q-136 -146 -136 -359v-4q0 -213 138 -361t349 -147q137 0 248 65l-178 152q-47 41 -47 94zM868 -25q-326 0 -536 215t-211 523v4q0 307 213 524q212 217 538 217t537 -215
t211 -522v-4q0 -244 -145 -441l92 -75q47 -41 47 -95t-35 -89t-85 -35t-87 36l-102 93q-191 -136 -437 -136z" />
    <glyph glyph-name="R" unicode="R" horiz-adv-x="1480" 
d="M436 723h369q135 -1 215 65t80 175v4q0 115 -78 176t-219 61h-367v-481zM184 115v1192q0 53 37 90t90 37h512q266 0 414 -144q119 -123 119 -309v-4q0 -166 -87 -274t-239 -154l275 -346q41 -51 41 -99t-37 -82q-37 -32 -84 -32q-74 0 -123 65l-348 445h-318v-385
q0 -53 -36 -89t-89 -36t-90 36t-37 89z" />
    <glyph glyph-name="S" unicode="S" horiz-adv-x="1310" 
d="M686 -20q-297 0 -539 180q-49 35 -49 90t35 89t81 34t77 -23q186 -147 401 -147q117 0 186 50t68 130v4q0 80 -65 127t-223 85t-240 69q-190 72 -243 199q-30 71 -30 167v4q-1 184 137 300t372 116t436 -133q55 -31 55 -90t-35 -93t-77 -34t-72 18q-168 109 -330 109
q-105 0 -169 -48t-65 -122v-4q0 -84 69 -130q69 -45 290 -99q222 -54 332 -149t110 -267v-4q0 -199 -141 -314q-142 -114 -371 -114z" />
    <glyph glyph-name="T" unicode="T" horiz-adv-x="1327" 
d="M537 115v1085h-349q-49 0 -83 35t-33 82q0 47 33 82q34 35 83 35h953q47 0 81 -35t34 -82t-34 -82t-81 -35h-350v-1085q0 -51 -37 -88t-90 -37t-91 37q-36 37 -36 88z" />
    <glyph glyph-name="U" unicode="U" horiz-adv-x="1550" 
d="M1389 621q0 -313 -164 -479t-451 -165q-288 0 -450 162t-162 469v711q0 53 37 89t89 36t89 -36t37 -89v-701q0 -197 95 -302t266 -105t266 101t96 296v711q0 53 37 89t89 36t89 -36t37 -89v-698z" />
    <glyph glyph-name="V" unicode="V" horiz-adv-x="1501" 
d="M743 -20q-100 0 -143 102l-502 1180q-14 34 -14 72t37 74t90 36q94 0 129 -90l414 -1035l420 1043q12 34 45 58t81 24t83 -35q36 -35 36 -73t-12 -66l-504 -1188q-43 -102 -145 -102h-15z" />
    <glyph glyph-name="W" unicode="W" horiz-adv-x="2250" 
d="M86 1334q0 38 38 74t87 36t83 -26t46 -66l330 -985l323 981q35 100 127 100h19q96 0 127 -100l323 -981l330 987q33 90 123 90q51 0 88 -35t37 -72t-13 -65l-423 -1188q-37 -104 -132 -104h-24q-92 0 -129 104l-320 936l-319 -936q-37 -104 -131 -104h-25q-92 0 -131 104
l-424 1188q-10 24 -10 62z" />
    <glyph glyph-name="X" unicode="X" horiz-adv-x="1462" 
d="M111 102q0 47 36 99l426 528l-401 498q-39 51 -39 99t36 83q35 35 97 35t107 -62l362 -477l359 469q51 70 123 70q45 0 79 -33t35 -81q0 -48 -39 -97l-401 -500l422 -526q39 -51 39 -99t-36 -83t-96 -35t-108 61l-385 502l-379 -494q-53 -70 -123 -69q-45 0 -79 32
t-35 80z" />
    <glyph glyph-name="Y" unicode="Y" horiz-adv-x="1425" 
d="M588 115v442l-494 678q-28 43 -28 91t36 83q37 35 100 35t113 -76l400 -575l405 577q50 76 112 76t97 -36t35 -83t-35 -94l-489 -670v-448q0 -53 -37 -89t-90 -36t-89 36t-36 89z" />
    <glyph glyph-name="Z" unicode="Z" horiz-adv-x="1437" 
d="M238 0q-45 0 -79 33t-34 78v6q0 63 47 116l807 977h-719q-45 0 -78 33t-32 78q0 45 32 79q33 34 78 34h942q45 0 79 -33t34 -78v-6q0 -59 -45 -117l-809 -977h745q47 0 80 -34q33 -35 33 -79t-33 -77t-80 -33h-968z" />
    <glyph glyph-name="bracketleft" unicode="[" horiz-adv-x="931" 
d="M180 -143v1454q0 51 35 87t86 36h422q39 0 69 -29t30 -69t-30 -68q-28 -28 -69 -29h-305v-1311h305q41 0 70 -28t29 -69q0 -40 -30 -69t-69 -28h-422q-51 0 -86 36t-35 87z" />
    <glyph glyph-name="backslash" unicode="\" horiz-adv-x="1067" 
d="M1067 -185q0 -32 -29 -60q-28 -27 -78 -27t-79 57l-840 1716q-10 31 -10 59t28 57q29 28 68 28q61 0 90 -58l838 -1716q12 -24 12 -56z" />
    <glyph glyph-name="bracketright" unicode="]" horiz-adv-x="931" 
d="M752 1311v-1454q0 -51 -36 -87t-87 -36h-422q-39 0 -68 28t-28 70q0 41 28 69q29 28 68 27h307v1311h-307q-39 0 -68 28q-29 29 -29 69t29 69t68 29h422q51 0 87 -36t36 -87z" />
    <glyph glyph-name="asciicircum" unicode="^" horiz-adv-x="1024" 
d="M158 1040q0 29 24 62l195 266q51 74 125 74h18q72 0 127 -74l195 -266q23 -35 22 -62q0 -41 -52 -41q-52 1 -83 19t-72 72l-147 190l-148 -190q-41 -53 -71 -72q-31 -18 -82 -18t-51 40z" />
    <glyph glyph-name="underscore" unicode="_" horiz-adv-x="1228" 
d="M-4 -328q-41 0 -69 29t-27 68q0 39 28 67t68 29h1237q41 0 69 -29q28 -30 28 -68t-28 -67t-69 -29h-1237z" />
    <glyph glyph-name="grave" unicode="`" horiz-adv-x="1024" 
d="M588 1208q-74 0 -131 56l-140 131q-77 68 14 115q48 26 104 26t93 -59l117 -181q18 -27 19 -45q-2 -43 -76 -43z" />
    <glyph glyph-name="a" unicode="a" horiz-adv-x="1202" 
d="M326 322q0 -76 60 -120t168 -44t190 64t81 167v74q-111 43 -237 43t-195 -48q-68 -48 -67 -132v-4zM467 -23q-159 -1 -271 89t-112 245v4q0 170 121 259q121 90 298 90t318 -46v27q0 115 -68 175q-69 60 -200 60t-240 -42q-68 -21 -106 16q-37 37 -37 80q0 72 68 98
q168 63 348 64q242 0 358 -121q117 -115 117 -334v-532q0 -51 -35 -85t-87 -34t-86 30t-34 74v41q-131 -158 -352 -158z" />
    <glyph glyph-name="b" unicode="b" 
d="M397 539q-1 -152 93 -249t224 -97t219 95t89 251v4q0 154 -90 250t-219 96t-223 -97t-93 -249v-4zM156 113v1269q0 51 34 87t88 36t90 -36t35 -87v-481q143 203 357 203t364 -152t150 -409v-4q0 -256 -148 -409t-364 -153q-215 0 -359 191v-55q-1 -51 -37 -87t-87 -36
t-88 36q-35 36 -35 87z" />
    <glyph glyph-name="c" unicode="c" horiz-adv-x="1169" 
d="M652 -25q-236 0 -396 163t-160 397v4q0 233 161 399t393 166t388 -135q39 -35 39 -84t-34 -82q-33 -33 -77 -33t-77 25q-111 92 -238 92q-127 -1 -217 -101t-90 -243v-4q0 -145 91 -245t227 -101q136 0 247 96q31 27 72 27t72 -32t31 -79t-35 -76q-161 -154 -397 -154z
" />
    <glyph glyph-name="d" unicode="d" 
d="M661 889q-131 0 -221 -94t-90 -252v-4q0 -154 91 -250t221 -96t221 97q92 97 92 249v4q0 152 -92 249t-222 97zM1219 1382v-1269q0 -51 -36 -87t-88 -36t-88 36t-36 87v67q-143 -203 -357 -203t-364 153t-150 409v4q0 257 148 409t363 152q214 0 360 -191v469q0 51 36 87
t88 36t88 -36t36 -87z" />
    <glyph glyph-name="e" unicode="e" horiz-adv-x="1236" 
d="M96 537v4q0 235 150 399t379 164q165 0 285 -83q227 -157 229 -450q0 -51 -34 -85t-83 -33h-678q20 -129 104 -202t216 -73t247 94q29 23 67 23t66 -29q28 -30 29 -72q0 -42 -33 -75q-160 -143 -394 -143t-392 156q-158 157 -158 405zM626 901q-116 0 -192 -79t-92 -206
h555q-12 125 -84 205q-71 80 -187 80z" />
    <glyph glyph-name="f" unicode="f" horiz-adv-x="770" 
d="M211 113v755h-43q-43 0 -74 30t-31 73t31 73t74 31h43v80q0 178 87 265t245 87q68 0 114 -7q45 -7 71 -36q26 -28 26 -70t-31 -73t-67 -28t-58 3q-143 0 -143 -163v-60h192q45 0 75 -30q30 -31 30 -73t-31 -72t-74 -30h-188v-755q0 -51 -37 -87t-88 -36t-87 36t-36 87z
" />
    <glyph glyph-name="g" unicode="g" 
d="M658 297q130 0 224 84q93 84 93 213v4q0 129 -93 213q-92 84 -224 84t-220 -83t-88 -214v-4q0 -131 89 -214t219 -83zM1219 221q0 -553 -582 -553q-219 0 -418 96q-70 27 -69 99q0 41 30 71t65 31q34 0 54 -10q154 -86 326 -86t260 85t88 247v84q-154 -199 -368 -199
t-359 138t-146 368v4q0 228 146 368t359 140q212 0 366 -184v51q0 51 36 87t88 36t88 -37t36 -88v-748z" />
    <glyph glyph-name="h" unicode="h" horiz-adv-x="1269" 
d="M156 113v1269q0 51 35 87t87 36t89 -36t36 -87v-467q131 189 325 189t296 -112t102 -302v-577q0 -51 -34 -87t-88 -36q-53 0 -90 36q-36 36 -35 87v501q-1 127 -61 196t-170 69t-178 -72t-67 -197v-497q1 -51 -35 -87t-88 -36t-89 36q-35 36 -35 87z" />
    <glyph glyph-name="i" unicode="i" horiz-adv-x="585" 
d="M170 113v856q0 53 36 89t87 36t88 -37t37 -88v-856q0 -51 -36 -87t-88 -36t-88 36t-36 87zM152 1360v12q0 55 39 88t101 33t102 -33t40 -88v-12q0 -55 -40 -89t-101 -34t-102 34q-39 34 -39 89z" />
    <glyph glyph-name="j" unicode="j" horiz-adv-x="585" 
d="M152 1360v12q0 55 39 88t101 33t102 -33t40 -88v-12q0 -55 -40 -89t-101 -34t-102 34q-39 34 -39 89zM119 -334h-19q-135 4 -135 103q0 45 29 73t69 29q2 0 9 -2h6q92 0 92 117v983q0 53 36 89t87 36t88 -37t37 -88v-983q0 -160 -79 -240t-220 -80z" />
    <glyph glyph-name="k" unicode="k" horiz-adv-x="1187" 
d="M156 113v1269q0 51 35 87t87 36t89 -36t36 -87v-798l465 456q54 54 104 54t81 -33t31 -83t-56 -101l-287 -265l328 -428q33 -45 33 -88q0 -42 -34 -74t-92 -32t-99 55l-310 412l-164 -156v-188q1 -51 -35 -87t-88 -36t-89 36q-35 36 -35 87z" />
    <glyph glyph-name="l" unicode="l" horiz-adv-x="585" 
d="M170 113v1269q0 51 36 87t87 36t88 -36t37 -87v-1269q0 -51 -36 -87t-88 -36t-88 36t-36 87z" />
    <glyph glyph-name="m" unicode="m" horiz-adv-x="1945" 
d="M156 113v856q0 53 35 89q37 36 89 36t88 -37t35 -88v-51q135 186 330 186q229 0 324 -191q143 190 364 191q179 0 279 -109t100 -305v-577q0 -51 -36 -87t-88 -36t-88 36t-36 87v501q0 129 -57 197t-161 68t-168 -71t-64 -198v-497q0 -51 -36 -87t-88 -36t-88 36t-36 87
v503q0 125 -57 194t-161 69t-168 -73t-65 -196v-497q1 -51 -35 -87t-88 -36t-89 36q-35 36 -35 87z" />
    <glyph glyph-name="n" unicode="n" horiz-adv-x="1269" 
d="M156 113v856q0 53 35 89q37 36 89 36t88 -37t35 -88v-54q131 189 325 189t296 -112t102 -302v-577q0 -51 -34 -87t-88 -36q-53 0 -90 36q-36 36 -35 87v501q-1 127 -61 196t-170 69t-178 -72t-67 -197v-497q1 -51 -35 -87t-88 -36t-89 36q-35 36 -35 87z" />
    <glyph glyph-name="o" unicode="o" horiz-adv-x="1345" 
d="M677 193q144 0 234 99t90 243v4q0 145 -94 246t-238 101q-145 0 -235 -98q-90 -100 -90 -245v-4q0 -143 94 -245q95 -101 239 -101zM1249 539q1 -233 -165 -399t-413 -165q-247 0 -411 163t-164 397v4q0 237 166 401t412 164t410 -164t165 -397v-4z" />
    <glyph glyph-name="p" unicode="p" 
d="M397 539q-1 -152 93 -249t224 -97t219 95t89 251v4q0 154 -90 250t-219 96t-223 -97t-93 -249v-4zM156 -215v1184q0 53 35 89q37 36 89 36t88 -37t35 -88v-68q143 203 357 203t364 -152t150 -409v-4q0 -256 -148 -409t-364 -153q-215 0 -359 191v-383q1 -51 -35 -87
t-88 -36t-89 36q-35 36 -35 87z" />
    <glyph glyph-name="q" unicode="q" 
d="M661 889q-131 0 -221 -94t-90 -252v-4q0 -154 91 -250t221 -96t221 97q92 97 92 249v4q0 152 -92 249t-222 97zM1219 969v-1184q0 -51 -36 -87t-88 -36t-88 36t-36 87v395q-143 -203 -357 -203t-364 153t-150 409v4q0 257 148 409t363 152q214 0 360 -191v58q0 51 36 87
t88 36t88 -37t36 -88z" />
    <glyph glyph-name="r" unicode="r" horiz-adv-x="845" 
d="M156 113v856q0 53 35 89q37 36 89 36t88 -37t35 -88v-111q45 104 119 171t142 67t102 -34q33 -34 33 -85t-28 -83t-71 -40q-137 -25 -217 -130t-80 -292v-319q-1 -51 -37 -87t-87 -36t-88 36q-35 36 -35 87z" />
    <glyph glyph-name="s" unicode="s" horiz-adv-x="1026" 
d="M526 -20q-223 0 -411 129q-47 25 -47 76t28 81t65 29q36 0 60 -14q156 -104 311 -105q80 0 124 32t44 85v4q0 78 -217 143l-24 9q-250 67 -311 188q-28 55 -27 129v4q0 150 109 240q110 90 280 90t336 -88q59 -31 59 -84q1 -53 -29 -82t-64 -29t-58 12q-144 74 -234 74
t-131 -30t-41 -76v-4q0 -51 64 -86t158 -63t143 -50q139 -61 186 -148q29 -53 29 -122v-5q0 -163 -113 -251t-289 -88z" />
    <glyph glyph-name="t" unicode="t" horiz-adv-x="841" 
d="M754 106q0 -70 -66 -96q-82 -28 -170 -28q-311 0 -311 317v569h-41q-45 0 -76 31t-31 76t31 76t76 30h41v185q0 51 37 87t88 36t87 -36t36 -87v-185h194q45 -1 77 -31t32 -75t-32 -76t-77 -31h-194v-530q0 -135 133 -135l61 6q43 0 74 -30t31 -73z" />
    <glyph glyph-name="u" unicode="u" horiz-adv-x="1269" 
d="M1116 969v-856q0 -51 -37 -87t-88 -36t-88 36t-37 87v55q-129 -190 -338 -191q-180 0 -282 113t-103 303v576q0 51 36 88t88 37t88 -37t36 -88v-502q1 -125 61 -194t170 -69t178 72q68 70 66 195v498q0 51 36 88t88 37t89 -37t37 -88z" />
    <glyph glyph-name="v" unicode="v" horiz-adv-x="1200" 
d="M594 -20q-94 0 -141 108l-361 825q-14 43 -14 76t37 69t86 36q86 0 123 -90l278 -717l283 721q37 86 116 86q51 0 86 -34t35 -75t-14 -70l-360 -827q-49 -109 -142 -108h-12z" />
    <glyph glyph-name="w" unicode="w" horiz-adv-x="1746" 
d="M518 -18q-100 0 -137 110l-291 823q-12 33 -12 72t34 73t87 34q90 0 120 -99l209 -655l211 655q31 98 127 99h15q96 0 127 -99l213 -655l211 657q29 96 120 97q49 0 83 -34t34 -70t-10 -66l-295 -832q-39 -111 -137 -110h-8q-102 0 -136 106l-211 643l-213 -643
q-33 -106 -133 -106h-8z" />
    <glyph glyph-name="x" unicode="x" horiz-adv-x="1173" 
d="M218 -14q-52 0 -86 32t-34 77q0 46 35 85l307 369l-284 338q-41 51 -41 98t33 79q34 32 90 32t106 -62l244 -319l248 317q49 64 102 64t87 -32t34 -76t-35 -85l-293 -350l303 -358q41 -51 41 -99t-34 -79t-91 -31t-104 63l-262 338l-262 -338q-52 -63 -104 -63z" />
    <glyph glyph-name="y" unicode="y" horiz-adv-x="1202" 
d="M370 -334q-112 0 -190 31q-78 27 -78 102q0 45 30 74t60 29t69 -11q38 -11 83 -11t79 25q34 26 64 89l9 22l-402 897q-14 33 -14 72t35 74t88 35q84 0 121 -95l290 -718l271 718q37 94 119 95q50 0 84 -34t34 -73t-10 -69l-395 -949q-70 -167 -152 -235q-83 -68 -195 -68
z" />
    <glyph glyph-name="z" unicode="z" horiz-adv-x="1146" 
d="M221 0q-51 0 -86 29t-35 71v4q0 61 56 119l575 656h-510q-43 -1 -73 29t-30 72t30 72t73 29h713q51 1 85 -27t34 -71v-6q0 -59 -54 -119l-577 -655h532q43 0 73 -30t30 -72q0 -41 -30 -71t-73 -30h-733z" />
    <glyph glyph-name="braceleft" unicode="{" horiz-adv-x="997" 
d="M901 -182q0 -56 -33 -80t-80 -14q-227 49 -314 143t-87 254l4 147q0 113 -45 166t-147 55q-49 2 -77 30t-28 69q0 40 28 68t77 30q104 4 148 56t44 167l-4 148q0 158 87 252t314 143q47 10 80 -14t33 -80t-57 -74q-140 -43 -184 -98t-44 -166q0 -37 5 -152
q1 -114 -53 -180t-160 -100q108 -35 160 -101t53 -180l-5 -151q0 -111 43 -166t185 -99q57 -17 57 -73z" />
    <glyph glyph-name="bar" unicode="|" horiz-adv-x="677" 
d="M240 -174v1720q0 41 28 70q29 29 70 29t71 -29t29 -70v-1720q0 -41 -30 -70q-30 -28 -70 -28q-41 0 -70 28q-28 29 -28 70z" />
    <glyph glyph-name="braceright" unicode="}" horiz-adv-x="997" 
d="M96 -193q0 66 60 84q141 43 183 99t42 166l-4 151q0 115 53 181t160 100q-109 34 -161 100t-52 180l4 152q0 111 -42 166t-183 98q-60 18 -60 74t33 80t80 14q227 -49 314 -143t87 -252l-4 -148q0 -115 45 -167t150 -56q47 -2 75 -30t28 -68t-28 -69q-28 -28 -75 -30
q-103 -2 -149 -55t-46 -166l4 -147q0 -160 -87 -254t-314 -143q-47 -10 -80 14t-33 69z" />
    <glyph glyph-name="asciitilde" unicode="~" horiz-adv-x="1013" 
d="M214 465q-36 0 -58 20q-22 19 -23 49q0 30 8 46q35 94 82 140t117 46t172 -40q100 -40 131 -40q61 0 96 64q23 43 60 43t59 -22q22 -21 23 -49q0 -28 -9 -46q-36 -94 -82 -140q-88 -87 -288 -6q-100 41 -131 41q-62 1 -97 -65q-24 -41 -60 -41z" />
    <glyph glyph-name="uni00A0" unicode="&#xa0;" horiz-adv-x="614" 
 />
    <glyph glyph-name="exclamdown" unicode="&#xa1;" horiz-adv-x="618" 
d="M455 1284q0 -61 -41 -102q-42 -41 -104 -41t-104 41t-42 102v19q0 59 42 100t104 41t104 -41t41 -100v-19zM236 -6q-35 0 -56 25q-20 26 -16 63l72 836q2 33 22 53t51 20t53 -20t23 -53l72 -836q4 -37 -18 -63t-56 -25h-147z" />
    <glyph glyph-name="cent" unicode="&#xa2;" horiz-adv-x="1189" 
d="M348 727q0 -104 46 -187t128 -126l129 661q-129 -4 -216 -103t-87 -241v-4zM106 727q0 235 161 399t401 164h16l18 94q14 72 89 72q41 0 67 -32t16 -74l-16 -86q100 -33 195 -113q37 -33 37 -82t-33 -81t-76 -32t-85 35t-89 56l-131 -668q133 2 242 98q34 25 72 25
t68 -31t30 -76t-33 -73q-164 -158 -398 -158h-14l-22 -115q-14 -72 -86 -72q-43 0 -69 32q-25 32 -17 75l22 113q-162 57 -263 201t-102 325v4z" />
    <glyph glyph-name="sterling" unicode="&#xa3;" horiz-adv-x="1318" 
d="M119 88q0 68 67 90l105 31v360h-66q-45 0 -75 31t-31 75q0 44 31 76t75 31h66v189q0 229 125 356q126 127 358 127t387 -166q39 -39 39 -90t-36 -87t-90 -36t-89 39q-101 106 -205 106t-166 -57q-68 -72 -67 -198v-183h414q43 0 75 -32t31 -75q0 -44 -32 -75t-74 -31
h-414v-350h565q47 0 79 -32q32 -31 32 -77t-32 -78t-79 -32h-897q-43 0 -69 26t-27 62z" />
    <glyph glyph-name="yen" unicode="&#xa5;" horiz-adv-x="1404" 
d="M823 541v-150h316q37 -1 63 -27t27 -64q0 -38 -27 -64t-63 -27h-316v-98q0 -51 -35 -86t-86 -35t-86 35t-34 86v98h-316q-38 0 -64 27q-26 26 -26 64t27 65t63 26h316v150h-316q-38 1 -64 27t-26 64t27 64t63 27h244l-377 516q-31 43 -31 89t36 81t98 35t110 -70
l359 -534l362 532q47 72 107 72t94 -32q35 -32 35 -82t-31 -91l-381 -516h248q37 0 63 -27q26 -26 27 -64q0 -38 -27 -65t-63 -26h-316z" />
    <glyph glyph-name="section" unicode="&#xa7;" horiz-adv-x="1294" 
d="M795 569q69 0 113 32t44 79v4q0 45 -55 78q-55 34 -192 68t-206 34t-113 -32t-44 -78v-4q0 -45 55 -78t191 -68t207 -35zM668 -20q-250 0 -426 147q-37 33 -37 77t29 74q30 30 69 30t68 -25q137 -115 295 -115q80 0 122 28t43 72v4q0 45 -57 77t-255 76t-299 112
t-101 178v4q0 180 219 237q-113 72 -113 195v4q0 137 108 218t294 81q250 0 426 -147q37 -33 37 -77t-30 -73t-70 -29t-66 23q-137 115 -295 115q-80 0 -123 -28t-43 -73v-4q0 -43 55 -75t256 -78t301 -112q100 -67 101 -177v-4q0 -180 -220 -238q115 -70 115 -194v-4
q0 -135 -108 -218q-109 -81 -295 -81z" />
    <glyph glyph-name="dieresis" unicode="&#xa8;" horiz-adv-x="1024" 
d="M308 1475q56 0 95 -36t39 -91v-15q0 -55 -39 -90t-95 -35t-95 35t-39 90v15q0 55 39 91t95 36zM716 1475q56 0 95 -36t39 -91v-15q0 -55 -39 -90t-95 -35t-95 35t-39 90v15q0 55 39 91t95 36z" />
    <glyph glyph-name="copyright" unicode="&#xa9;" horiz-adv-x="1699" 
d="M855 326q-165 0 -277 114t-113 283v4q0 168 113 285q114 116 278 116t272 -88q33 -22 33 -58q1 -36 -21 -58t-49 -21q-27 0 -53 21q-84 66 -181 66t-167 -77q-70 -76 -69 -184v-4q-1 -106 69 -183t172 -77t189 74q23 18 49 18q26 1 46 -21q22 -22 22 -53t-23 -49
q-125 -108 -290 -108zM186 713q0 -276 190 -470t473 -194q282 0 473 196t191 472v4q0 276 -190 470q-190 193 -472 193t-473 -196t-192 -471v-4zM848 -25q-309 0 -524 216t-215 522v4q0 305 217 523t526 218t524 -216t215 -521v-4q0 -305 -217 -523t-526 -219z" />
    <glyph glyph-name="ordfeminine" unicode="&#xaa;" horiz-adv-x="798" 
d="M256 1016q0 -38 30 -62t86 -24t100 35t44 88v37q-62 22 -126 22t-99 -25t-35 -67v-4zM158 578q-25 0 -42 17t-18 42q0 25 18 42t42 17h454q25 0 43 -17q19 -17 19 -42t-18 -42t-44 -17h-454zM340 825q-104 0 -165 49q-60 49 -60 136v4q0 92 67 141q68 49 160 49t174 -22
v10q0 125 -143 125q-59 -1 -98 -15t-59 -14t-37 18t-17 51q0 34 39 48q87 35 205 35t182 -64t65 -186v-295q1 -27 -21 -47t-50 -20t-47 18q-20 18 -21 45v16q-70 -82 -174 -82z" />
    <glyph glyph-name="guillemotleft" unicode="&#xab;" horiz-adv-x="1241" 
d="M588 185q0 -39 -30 -69t-78 -30t-81 43l-264 340q-29 39 -29 74t29 69l258 334q39 49 87 49q48 -1 77 -31t29 -68t-27 -73l-217 -280l221 -287q25 -31 25 -71zM996 86q-48 0 -81 43l-264 340q-31 41 -31 74t31 69l258 334q35 49 85 49q50 1 79 -29t29 -70t-29 -73
l-215 -280l219 -287q27 -33 26 -72q-1 -38 -30 -68t-77 -30z" />
    <glyph glyph-name="registered" unicode="&#xae;" horiz-adv-x="782" 
d="M334 1108h78q63 0 63 51t-63 51h-78v-102zM244 954v287q0 19 13 33t32 14h129q68 0 108 -32t41 -91q0 -82 -73 -112l55 -68q12 -11 12 -31q0 -42 -45 -45q-18 0 -37 19l-86 106h-59v-80q0 -18 -13 -31t-31 -13t-32 12q-14 14 -14 32zM391 776q133 0 224 94t92 226v2
q1 131 -91 224t-225 93t-224 -94t-91 -225v-2q0 -130 91 -224t224 -94zM390 737q-148 1 -252 105q-103 104 -103 252v2q0 146 104 252t253 106t252 -104t104 -252v-2q0 -147 -105 -253t-253 -106z" />
    <glyph glyph-name="macron" unicode="&#xaf;" horiz-adv-x="1024" 
d="M784 1241h-544q-37 0 -64 27q-26 28 -26 64t26 63q27 27 64 26h544q37 -1 64 -27q26 -26 26 -63t-26 -63t-64 -27z" />
    <glyph glyph-name="degree" unicode="&#xb0;" horiz-adv-x="964" 
d="M483 915q81 1 137 59t56 138v4q0 80 -55 137t-139 57t-138 -56q-55 -58 -55 -138v-4q0 -80 56 -138t138 -59zM483 780q-135 0 -238 100t-104 232v4q-1 134 103 232t239 98t237 -98t103 -232v-4q-1 -132 -103 -232t-237 -100z" />
    <glyph glyph-name="plusminus" unicode="&#xb1;" horiz-adv-x="1298" 
d="M246 0q-43 0 -74 31t-31 75t31 74q31 31 74 31h807q43 0 73 -31t31 -75q0 -45 -31 -75t-73 -30h-807zM250 764q-45 0 -77 32t-32 76t32 77q32 32 77 32h289l-2 276q0 47 32 80q33 33 80 33t80 -33t33 -80l-2 -276h287q45 0 77 -32t33 -77q0 -44 -33 -76t-77 -32h-287
l2 -277q0 -47 -33 -79t-80 -33q-47 1 -79 33t-33 79l2 277h-289z" />
    <glyph glyph-name="acute" unicode="&#xb4;" horiz-adv-x="1024" 
d="M436 1208q-74 0 -74 43q0 20 17 45l117 181q37 59 93 59t104 -26t48 -56t-34 -59l-138 -131q-59 -56 -133 -56z" />
    <glyph glyph-name="paragraph" unicode="&#xb6;" horiz-adv-x="1140" 
d="M709 115v385h-37q-262 0 -426 122t-164 343v4q0 215 152 340q153 125 403 125h199q53 0 90 -37t37 -90v-1192q0 -53 -37 -89t-90 -36t-91 37q-36 37 -36 88z" />
    <glyph glyph-name="periodcentered" unicode="&#xb7;" horiz-adv-x="550" 
d="M131 637q0 59 42 100t102 41q61 0 103 -41t42 -100v-19q0 -61 -42 -102t-102 -41t-103 41q-42 41 -42 102v19z" />
    <glyph glyph-name="cedilla" unicode="&#xb8;" horiz-adv-x="1024" 
d="M291 -240q0 28 16 50l146 210h186l-125 -288q-44 -105 -172 -30q-51 30 -51 58z" />
    <glyph glyph-name="ordmasculine" unicode="&#xba;" horiz-adv-x="798" 
d="M233 1133q0 -75 48 -129t121 -54t118 52t45 128v5q0 76 -48 129t-120 53q-71 0 -117 -52t-47 -128v-4zM154 578q-25 0 -42 17t-18 42q0 25 18 42t42 17h491q25 0 42 -17t17 -42t-16 -42q-18 -17 -43 -17h-491zM398 823q-132 0 -220 89t-88 218v5q0 129 89 219t222 90
t221 -89t87 -218v-4q0 -129 -89 -220q-90 -90 -222 -90z" />
    <glyph glyph-name="guillemotright" unicode="&#xbb;" horiz-adv-x="1241" 
d="M244 995q47 0 82 -45l264 -338q31 -40 31 -72t-31 -73l-258 -332q-35 -49 -85 -49t-79 30t-29 70t29 72l215 279l-219 286q-27 33 -26 73t30 70t76 29zM653 896q0 40 30 70t77 29q47 0 82 -45l264 -338q31 -40 31 -72t-31 -73l-258 -332q-39 -49 -87 -49t-77 31t-29 69
t27 72l217 279l-221 286q-25 33 -25 73z" />
    <glyph glyph-name="questiondown" unicode="&#xbf;" horiz-adv-x="1107" 
d="M752 1284q0 -61 -41 -102t-105 -41t-104 41q-41 41 -41 102v19q0 59 41 100t104 41q62 0 104 -41t42 -100v-19zM594 991h12q35 1 60 -23t28 -59l21 -176q6 -41 -17 -69t-63 -33q-297 -29 -297 -221v-4q0 -88 62 -142t171 -53q154 0 279 113q35 28 79 28t78 -33
q33 -33 33 -83t-41 -84q-180 -170 -434 -170q-217 0 -348 112t-131 303v4q0 344 412 414l10 94q4 35 28 59t58 23z" />
    <glyph glyph-name="Agrave" unicode="&#xc0;" horiz-adv-x="1583" 
d="M860 1606q0 -43 -74 -43t-133 55l-139 131q-35 31 -35 61t48 55q49 25 105 25t93 -59l117 -180q18 -29 18 -45zM537 569h503l-252 580zM203 -10q-49 0 -83 34t-34 70q0 37 16 70l533 1188q47 102 151 102h13q102 0 149 -102l533 -1188q14 -28 14 -66t-34 -73t-85 -35
q-86 0 -123 88l-116 268h-697l-121 -276q-33 -80 -116 -80z" />
    <glyph glyph-name="Aacute" unicode="&#xc1;" horiz-adv-x="1583" 
d="M794 1563q-74 0 -73 43q0 20 16 45l117 180q37 59 93 59t105 -25q48 -26 48 -56t-35 -60l-137 -131q-60 -55 -134 -55zM537 569h503l-252 580zM203 -10q-49 0 -83 34t-34 70q0 37 16 70l533 1188q47 102 151 102h13q102 0 149 -102l533 -1188q14 -28 14 -66t-34 -73
t-85 -35q-86 0 -123 88l-116 268h-697l-121 -276q-33 -80 -116 -80z" />
    <glyph glyph-name="Acircumflex" unicode="&#xc2;" horiz-adv-x="1583" 
d="M528 1563q-55 0 -55 41q0 16 25 49l135 170q49 59 119 59h73q72 0 119 -59l135 -170q25 -33 25 -49q0 -41 -72 -41t-139 55l-107 92l-106 -92q-66 -55 -152 -55zM537 569h503l-252 580zM203 -10q-49 0 -83 34t-34 70q0 37 16 70l533 1188q47 102 151 102h13
q102 0 149 -102l533 -1188q14 -28 14 -66t-34 -73t-85 -35q-86 0 -123 88l-116 268h-697l-121 -276q-33 -80 -116 -80z" />
    <glyph glyph-name="Atilde" unicode="&#xc3;" horiz-adv-x="1583" 
d="M504 1548q-36 0 -58 20t-22 44q0 22 8 51q35 94 83 140q47 46 117 46t170 -41t134 -41q59 0 94 66q27 41 63 41q37 0 59 -20t22 -44q0 -22 -9 -51q-35 -94 -83 -140t-118 -46t-169 41q-100 41 -133 41q-60 0 -95 -66q-27 -41 -63 -41zM537 569h503l-252 580zM203 -10
q-49 0 -83 34t-34 70q0 37 16 70l533 1188q47 102 151 102h13q102 0 149 -102l533 -1188q14 -28 14 -66t-34 -73t-85 -35q-86 0 -123 88l-116 268h-697l-121 -276q-33 -80 -116 -80z" />
    <glyph glyph-name="Adieresis" unicode="&#xc4;" horiz-adv-x="1583" 
d="M585 1829q56 0 95 -36t39 -91v-14q0 -54 -39 -90t-95 -36t-96 35q-39 35 -38 91v14q0 55 38 91q40 36 96 36zM992 1829q56 0 95 -36t39 -91v-14q0 -54 -39 -90t-95 -36t-95 36q-39 34 -39 90v14q0 55 39 91t95 36zM537 569h503l-252 580zM203 -10q-49 0 -83 34t-34 70
q0 37 16 70l533 1188q47 102 151 102h13q102 0 149 -102l533 -1188q14 -28 14 -66t-34 -73t-85 -35q-86 0 -123 88l-116 268h-697l-121 -276q-33 -80 -116 -80z" />
    <glyph glyph-name="Aring" unicode="&#xc5;" horiz-adv-x="1617" 
d="M553 569h504l-252 580zM809 1454q51 0 89 37t38 88v4q0 51 -38 88t-89 37t-89 -37t-38 -88v-4q0 -51 38 -88t89 -37zM1513 98q-1 -36 -35 -72t-85 -36q-82 0 -123 88l-117 268h-696l-119 -276q-37 -80 -117 -80q-49 0 -84 34t-35 82q0 14 15 54l557 1241q-98 68 -99 178
v4q0 90 71 157q71 66 163 66t163 -66t70 -157v-4q0 -115 -98 -178l555 -1239q14 -28 14 -64z" />
    <glyph glyph-name="AE" unicode="&#xc6;" horiz-adv-x="2140" 
d="M997 569v645h-41l-370 -645h411zM70 90q0 43 20 74l690 1182q49 88 148 88h985q45 0 79 -33t34 -80t-34 -80q-32 -33 -79 -33h-664v-372h572q47 0 80 -34t33 -80t-34 -79q-32 -33 -79 -33h-572v-385h674q47 -1 80 -33t33 -79t-33 -80t-80 -33h-799q-53 0 -90 37t-37 90
v219h-540l-166 -289q-41 -70 -111 -69q-47 0 -79 29q-31 30 -31 73z" />
    <glyph glyph-name="Ccedilla" unicode="&#xc7;" horiz-adv-x="1511" 
d="M565 -240q0 28 17 50l123 180q-256 47 -420 249t-164 474v4q0 311 209 526t530 215q281 0 492 -162q49 -37 49 -94t-36 -93t-84 -36t-81 25q-160 129 -352 129q-192 -1 -328 -147q-135 -146 -135 -359v-4q0 -213 135 -361t335 -147q200 0 362 137q33 29 77 29t81 -35
q36 -35 36 -85t-41 -87q-203 -180 -477 -191l-105 -245q-44 -104 -172 -30q-51 30 -51 58z" />
    <glyph glyph-name="Egrave" unicode="&#xc8;" horiz-adv-x="1372" 
d="M788 1585q0 -43 -74 -43t-132 55l-140 132q-77 68 14 115q48 26 104 26t93 -60l117 -180q18 -29 18 -45zM311 0q-53 0 -90 37t-37 90v1180q0 53 37 90t90 37h834q47 0 80 -33t33 -80t-34 -80q-32 -33 -79 -33h-709v-372h617q47 0 80 -34t33 -80t-34 -79q-32 -33 -79 -33
h-617v-385h719q45 -1 79 -33t34 -79t-33 -80t-80 -33h-844z" />
    <glyph glyph-name="Eacute" unicode="&#xc9;" horiz-adv-x="1372" 
d="M311 0q-53 0 -90 37t-37 90v1180q0 53 37 90t90 37h834q47 0 80 -33t33 -80t-34 -80q-32 -33 -79 -33h-709v-372h617q47 0 80 -34t33 -80t-34 -79q-32 -33 -79 -33h-617v-385h719q45 -1 79 -33t34 -79t-33 -80t-80 -33h-844zM726 1542q-74 0 -75 43q0 20 17 45l116 180
q38 60 94 60t104 -26t48 -56t-35 -59l-137 -132q-58 -55 -132 -55z" />
    <glyph glyph-name="Ecircumflex" unicode="&#xca;" horiz-adv-x="1372" 
d="M311 0q-53 0 -90 37t-37 90v1180q0 53 37 90t90 37h834q47 0 80 -33t33 -80t-34 -80q-32 -33 -79 -33h-709v-372h617q47 0 80 -34t33 -80t-34 -79q-32 -33 -79 -33h-617v-385h719q45 -1 79 -33t34 -79t-33 -80t-80 -33h-844zM459 1542q-55 0 -56 41q0 16 25 49l135 170
q49 59 119 60h74q72 0 118 -60l136 -170q25 -33 24 -49q0 -41 -72 -41t-139 55l-106 93l-107 -93q-66 -55 -151 -55z" />
    <glyph glyph-name="Edieresis" unicode="&#xcb;" horiz-adv-x="1372" 
d="M311 0q-53 0 -90 37t-37 90v1180q0 53 37 90t90 37h834q47 0 80 -33t33 -80t-34 -80q-32 -33 -79 -33h-709v-372h617q47 0 80 -34t33 -80t-34 -79q-32 -33 -79 -33h-617v-385h719q45 -1 79 -33t34 -79t-33 -80t-80 -33h-844zM381 1681q0 55 39 91t95 36t95 -36t39 -91
v-14q0 -55 -39 -90t-95 -35t-95 35t-39 90v14zM923 1808q56 0 95 -36t39 -91v-14q0 -55 -39 -90t-95 -35t-96 35q-39 35 -39 90v14q0 55 39 92q40 35 96 35z" />
    <glyph glyph-name="Igrave" unicode="&#xcc;" horiz-adv-x="649" 
d="M395 1585q-1 -43 -75 -43t-132 55l-139 132q-35 31 -35 61t48 54q48 26 104 26t94 -60l117 -180q18 -29 18 -45zM199 115v1204q0 53 37 89t89 36t89 -36t37 -89v-1204q0 -53 -37 -89t-89 -36t-89 36t-37 89z" />
    <glyph glyph-name="Iacute" unicode="&#xcd;" horiz-adv-x="649" 
d="M332 1542q-74 0 -74 43q0 20 16 45l117 180q37 60 93 60t104 -26t49 -56q0 -30 -35 -59l-137 -132q-59 -55 -133 -55zM199 115v1204q0 53 37 89t89 36t89 -36t37 -89v-1204q0 -53 -37 -89t-89 -36t-89 36t-37 89z" />
    <glyph glyph-name="Icircumflex" unicode="&#xce;" horiz-adv-x="649" 
d="M66 1542q-55 0 -56 41q0 16 25 49l135 170q49 59 119 60h73q72 0 119 -60l135 -170q25 -33 25 -49q1 -41 -71 -41t-140 55l-106 93l-107 -93q-66 -55 -151 -55zM199 115v1204q0 53 37 89t89 36t89 -36t37 -89v-1204q0 -53 -37 -89t-89 -36t-89 36t-37 89z" />
    <glyph glyph-name="Idieresis" unicode="&#xcf;" horiz-adv-x="649" 
d="M-12 1681q0 55 39 91t95 36t95 -36t39 -91v-14q0 -55 -39 -90t-95 -35t-95 35t-39 90v14zM395 1681q0 55 39 91t95 36t96 -35q39 -36 39 -92v-14q0 -55 -39 -90t-95 -35t-96 35q-39 35 -39 90v14zM199 115v1204q0 53 37 89t89 36t89 -36t37 -89v-1204q0 -53 -37 -89
t-89 -36t-89 36t-37 89z" />
    <glyph glyph-name="Eth" unicode="&#xd0;" horiz-adv-x="1662" 
d="M496 1204v-370h260q47 0 79 -33q31 -33 31 -80t-32 -80t-78 -33h-260v-379h284q222 -1 360 135t138 349v4q0 213 -137 350t-361 137h-284zM193 834h53v473q0 53 37 90t90 37h407q334 0 548 -204t214 -509v-4q0 -307 -214 -512t-548 -205h-407q-53 0 -90 37t-37 90v481
h-53q-45 0 -78 33t-33 80t32 80t79 33z" />
    <glyph glyph-name="Ntilde" unicode="&#xd1;" horiz-adv-x="1617" 
d="M523 1528q-37 0 -59 20t-22 42t9 52q70 187 200 187q69 0 169 -41t134 -41q59 0 95 65q27 41 63 41t58 -20q22 -21 22 -43t-8 -51q-35 -95 -83 -141q-47 -46 -117 -46t-170 41t-134 41q-59 1 -94 -65q-27 -41 -63 -41zM184 113v1202q0 53 37 90t90 37h27q72 0 131 -74
l717 -928v881q0 51 36 87t87 36t88 -36t37 -87v-1204q0 -53 -36 -89t-87 -36h-11q-72 0 -131 76l-737 954v-909q0 -51 -36 -87t-87 -36t-88 36t-37 87z" />
    <glyph glyph-name="Ograve" unicode="&#xd2;" horiz-adv-x="1740" 
d="M940 1606q0 -43 -74 -43t-133 55l-139 131q-35 31 -35 61t48 55q49 25 105 25t93 -59l117 -180q18 -29 18 -45zM872 209q211 0 348 145q136 145 136 359v4q0 213 -138 361t-350 148t-347 -146q-136 -146 -136 -359v-4q0 -213 138 -361t349 -147zM868 -25q-326 0 -536 215
t-211 523v4q0 307 213 524q212 217 538 217t537 -215t211 -522v-4q0 -307 -213 -525t-539 -217z" />
    <glyph glyph-name="Oacute" unicode="&#xd3;" horiz-adv-x="1740" 
d="M872 209q211 0 348 145q136 145 136 359v4q0 213 -138 361t-350 148t-347 -146q-136 -146 -136 -359v-4q0 -213 138 -361t349 -147zM868 -25q-326 0 -536 215t-211 523v4q0 307 213 524q212 217 538 217t537 -215t211 -522v-4q0 -307 -213 -525t-539 -217zM874 1563
q-74 0 -73 43q0 20 16 45l117 180q37 59 93 59t105 -25q48 -26 48 -56t-35 -60l-137 -131q-60 -55 -134 -55z" />
    <glyph glyph-name="Ocircumflex" unicode="&#xd4;" horiz-adv-x="1740" 
d="M872 209q211 0 348 145q136 145 136 359v4q0 213 -138 361t-350 148t-347 -146q-136 -146 -136 -359v-4q0 -213 138 -361t349 -147zM868 -25q-326 0 -536 215t-211 523v4q0 307 213 524q212 217 538 217t537 -215t211 -522v-4q0 -307 -213 -525t-539 -217zM610 1563
q-55 0 -55 41q0 16 25 49l135 170q49 59 119 59h73q72 0 119 -59l135 -170q25 -33 25 -49q0 -41 -72 -41t-139 55l-107 92l-106 -92q-66 -55 -152 -55z" />
    <glyph glyph-name="Otilde" unicode="&#xd5;" horiz-adv-x="1740" 
d="M584 1548q-36 0 -58 20t-22 44q0 22 8 51q35 94 83 140q47 46 117 46t170 -41t134 -41q59 0 94 66q27 41 63 41q37 0 59 -20t22 -44q0 -22 -9 -51q-35 -94 -83 -140t-118 -46t-170 41t-133 41q-59 0 -94 -66q-27 -41 -63 -41zM872 209q211 0 348 145q136 145 136 359v4
q0 213 -138 361t-350 148t-347 -146q-136 -146 -136 -359v-4q0 -213 138 -361t349 -147zM868 -25q-326 0 -536 215t-211 523v4q0 307 213 524q212 217 538 217t537 -215t211 -522v-4q0 -307 -213 -525t-539 -217z" />
    <glyph glyph-name="Odieresis" unicode="&#xd6;" horiz-adv-x="1740" 
d="M872 209q211 0 348 145q136 145 136 359v4q0 213 -138 361t-350 148t-347 -146q-136 -146 -136 -359v-4q0 -213 138 -361t349 -147zM868 -25q-326 0 -536 215t-211 523v4q0 307 213 524q212 217 538 217t537 -215t211 -522v-4q0 -307 -213 -525t-539 -217zM667 1829
q56 0 95 -36t39 -91v-14q0 -54 -39 -90t-95 -36t-96 35q-39 35 -39 91v14q0 55 39 91q40 36 96 36zM1074 1829q56 0 95 -36t39 -91v-14q0 -54 -39 -90t-95 -36t-95 36q-39 34 -39 90v14q0 55 39 91t95 36z" />
    <glyph glyph-name="multiply" unicode="&#xd7;" horiz-adv-x="1298" 
d="M1102 379q0 -47 -33 -79t-78 -32t-82 33l-262 270l-264 -268q-31 -35 -78 -35t-78 31t-31 78t37 80l267 262l-271 262q-33 37 -33 83t33 78t79 32t81 -35l262 -269l264 269q31 35 78 35t78 -32t31 -78t-37 -79l-266 -262l268 -262q35 -35 35 -82z" />
    <glyph glyph-name="Oslash" unicode="&#xd8;" horiz-adv-x="1740" 
d="M872 203q211 0 350 148q138 148 138 362v4q0 158 -86 293l-686 -717q124 -90 284 -90zM381 717q0 -162 86 -293l684 715q-125 92 -283 92q-211 -1 -349 -149t-138 -361v-4zM868 -25q-254 0 -446 138l-98 -99q-31 -34 -74 -34t-68 24q-24 24 -24 60q0 38 35 73l96 101
q-168 203 -168 475v4q0 307 213 524t538 217q256 0 447 -139l98 100q35 35 75 35t66 -24t26 -61q0 -38 -36 -73l-96 -100q168 -203 168 -475v-4q0 -307 -213 -525t-539 -217z" />
    <glyph glyph-name="Ugrave" unicode="&#xd9;" horiz-adv-x="1550" 
d="M768 1542q-74 0 -131 55l-139 132q-35 31 -35 61t48 54q48 26 104 26t94 -60l116 -180q18 -29 19 -45q-2 -43 -76 -43zM1389 621q0 -313 -164 -479t-451 -165q-288 0 -450 162t-162 469v711q0 53 37 89t89 36t89 -36t37 -89v-701q0 -197 95 -302t266 -105t266 101t96 296
v711q0 53 37 89t89 36t89 -36t37 -89v-698z" />
    <glyph glyph-name="Uacute" unicode="&#xda;" horiz-adv-x="1550" 
d="M1389 621q0 -313 -164 -479t-451 -165q-288 0 -450 162t-162 469v711q0 53 37 89t89 36t89 -36t37 -89v-701q0 -197 95 -302t266 -105t266 101t96 296v711q0 53 37 89t89 36t89 -36t37 -89v-698zM780 1542q-74 0 -73 43q0 20 16 45l117 180q37 60 93 60t104 -26t48 -56
t-34 -59l-138 -132q-59 -55 -133 -55z" />
    <glyph glyph-name="Ucircumflex" unicode="&#xdb;" horiz-adv-x="1550" 
d="M1389 621q0 -313 -164 -479t-451 -165q-288 0 -450 162t-162 469v711q0 53 37 89t89 36t89 -36t37 -89v-701q0 -197 95 -302t266 -105t266 101t96 296v711q0 53 37 89t89 36t89 -36t37 -89v-698zM514 1542q-55 0 -55 41q0 16 24 49l135 170q49 59 119 60h74q72 0 119 -60
l135 -170q25 -33 25 -49q0 -41 -72 -41t-139 55l-107 93l-106 -93q-66 -55 -152 -55z" />
    <glyph glyph-name="Udieresis" unicode="&#xdc;" horiz-adv-x="1550" 
d="M1389 621q0 -313 -164 -479t-451 -165q-288 0 -450 162t-162 469v711q0 53 37 89t89 36t89 -36t37 -89v-701q0 -197 95 -302t266 -105t266 101t96 296v711q0 53 37 89t89 36t89 -36t37 -89v-698zM436 1681q0 55 39 91t95 36t96 -35q39 -36 39 -92v-14q0 -55 -39 -90
q-40 -35 -96 -35t-95 35t-39 90v14zM844 1681q0 55 39 91t95 36t95 -36t39 -91v-14q0 -55 -39 -90t-95 -35t-95 35t-39 90v14z" />
    <glyph glyph-name="Yacute" unicode="&#xdd;" horiz-adv-x="1425" 
d="M720 1542q-74 0 -75 43q0 20 17 45l116 180q38 60 94 60t104 -26t48 -56t-35 -59l-137 -132q-58 -55 -132 -55zM588 115v442l-494 678q-28 43 -28 91t36 83q37 35 100 35t113 -76l400 -575l405 577q50 76 112 76t97 -36t35 -83t-35 -94l-489 -670v-448q0 -53 -37 -89
t-90 -36t-89 36t-36 89z" />
    <glyph glyph-name="Thorn" unicode="&#xde;" horiz-adv-x="1378" 
d="M436 463h293q141 0 225 72t84 186v4q0 123 -83 189t-226 67h-293v-518zM184 115v1204q0 53 37 89t90 36t89 -36t36 -89v-109h314q250 0 397 -131t147 -348v-4q0 -233 -162 -361t-411 -128h-285v-123q0 -53 -36 -89t-89 -36t-90 36t-37 89z" />
    <glyph glyph-name="germandbls" unicode="&#xdf;" horiz-adv-x="1269" 
d="M596 96q0 78 88 99q238 37 238 213v4q0 158 -236 217q-90 27 -90 101t53 110q188 104 189 258v4q0 88 -56 142t-155 54q-98 0 -162 -71q-63 -72 -64 -191v-925q1 -51 -35 -86t-88 -35t-88 35q-35 35 -34 86v917q0 223 131 352t345 129q214 1 334 -109t119 -276v-4
q0 -225 -227 -350q311 -104 311 -364v-5q0 -188 -136 -296t-324 -111q-51 0 -82 28t-31 74z" />
    <glyph glyph-name="agrave" unicode="&#xe0;" horiz-adv-x="1202" 
d="M596 1208q-74 0 -131 56l-139 131q-35 31 -35 61t48 54q48 26 104 26t94 -59l116 -181q18 -27 19 -45q-2 -43 -76 -43zM326 322q0 -76 60 -120t168 -44t190 64t81 167v74q-111 43 -237 43t-195 -48q-68 -48 -67 -132v-4zM467 -23q-159 -1 -271 89t-112 245v4
q0 170 121 259q121 90 298 90t318 -46v27q0 115 -68 175q-69 60 -200 60t-240 -42q-68 -21 -106 16q-37 37 -37 80q0 72 68 98q168 63 348 64q242 0 358 -121q117 -115 117 -334v-532q0 -51 -35 -85t-87 -34t-86 30t-34 74v41q-131 -158 -352 -158z" />
    <glyph glyph-name="aacute" unicode="&#xe1;" horiz-adv-x="1202" 
d="M608 1208q-74 0 -73 43q0 20 16 45l117 181q37 59 93 59t104 -26t48 -56t-34 -59l-138 -131q-59 -56 -133 -56zM326 322q0 -76 60 -120t168 -44t190 64t81 167v74q-111 43 -237 43t-195 -48q-68 -48 -67 -132v-4zM467 -23q-159 -1 -271 89t-112 245v4q0 170 121 259
q121 90 298 90t318 -46v27q0 115 -68 175q-69 60 -200 60t-240 -42q-68 -21 -106 16q-37 37 -37 80q0 72 68 98q168 63 348 64q242 0 358 -121q117 -115 117 -334v-532q0 -51 -35 -85t-87 -34t-86 30t-34 74v41q-131 -158 -352 -158z" />
    <glyph glyph-name="acircumflex" unicode="&#xe2;" horiz-adv-x="1202" 
d="M287 1249q0 16 24 49l135 170q49 59 119 60h74q72 0 119 -60l135 -170q25 -33 25 -49q0 -41 -72 -41t-139 56l-107 92l-106 -92q-66 -55 -152 -56q-55 0 -55 41zM326 322q0 -76 60 -120t168 -44t190 64t81 167v74q-111 43 -237 43t-195 -48q-68 -48 -67 -132v-4zM467 -23
q-159 -1 -271 89t-112 245v4q0 170 121 259q121 90 298 90t318 -46v27q0 115 -68 175q-69 60 -200 60t-240 -42q-68 -21 -106 16q-37 37 -37 80q0 72 68 98q168 63 348 64q242 0 358 -121q117 -115 117 -334v-532q0 -51 -35 -85t-87 -34t-86 30t-34 74v41
q-131 -158 -352 -158z" />
    <glyph glyph-name="atilde" unicode="&#xe3;" horiz-adv-x="1202" 
d="M326 322q0 -76 60 -120t168 -44t190 64t81 167v74q-111 43 -237 43t-195 -48q-68 -48 -67 -132v-4zM318 1194q-36 0 -58 20t-22 43t8 52q35 94 83 140q47 46 117 46t170 -41t134 -41q59 0 94 66q26 41 62 41t59 -20t23 -44q0 -22 -9 -51q-35 -94 -83 -140t-118 -46
t-170 41t-133 40q-59 1 -94 -65q-27 -41 -63 -41zM467 -23q-159 -1 -271 89t-112 245v4q0 170 121 259q121 90 298 90t318 -46v27q0 115 -68 175q-69 60 -200 60t-240 -42q-68 -21 -106 16q-37 37 -37 80q0 72 68 98q168 63 348 64q242 0 358 -121q117 -115 117 -334v-532
q0 -51 -35 -85t-87 -34t-86 30t-34 74v41q-131 -158 -352 -158z" />
    <glyph glyph-name="adieresis" unicode="&#xe4;" horiz-adv-x="1202" 
d="M398 1475q56 0 96 -36t38 -91v-15q0 -55 -38 -90t-96 -35q-56 0 -95 35t-39 90v15q0 55 39 91t95 36zM806 1475q56 0 95 -36t39 -91v-15q0 -55 -39 -90t-95 -35t-95 35t-39 90v15q0 55 39 91t95 36zM326 322q0 -76 60 -120t168 -44t190 64t81 167v74q-111 43 -237 43
t-195 -48q-68 -48 -67 -132v-4zM467 -23q-159 -1 -271 89t-112 245v4q0 170 121 259q121 90 298 90t318 -46v27q0 115 -68 175q-69 60 -200 60t-240 -42q-68 -21 -106 16q-37 37 -37 80q0 72 68 98q168 63 348 64q242 0 358 -121q117 -115 117 -334v-532q0 -51 -35 -85
t-87 -34t-86 30t-34 74v41q-131 -158 -352 -158z" />
    <glyph glyph-name="aring" unicode="&#xe5;" horiz-adv-x="1202" 
d="M602 1313q51 0 89 37t38 88v4q0 51 -38 88t-89 37t-89 -37t-38 -88v-4q0 -51 38 -88t89 -37zM326 322q0 -76 60 -120t168 -44t190 64t81 167v74q-111 43 -237 43t-195 -48q-68 -48 -67 -132v-4zM602 1214q-92 0 -163 67t-70 157v4q1 92 71 158t162 65q92 0 163 -66
t71 -157v-4q0 -90 -71 -157t-163 -67zM467 -23q-159 -1 -271 89t-112 245v4q0 170 121 259q121 90 298 90t318 -46v27q0 115 -68 175q-69 60 -200 60t-240 -42q-68 -21 -106 16q-37 37 -37 80q0 72 68 98q168 63 348 64q242 0 358 -121q117 -115 117 -334v-532
q0 -51 -35 -85t-87 -34t-86 30t-34 74v41q-131 -158 -352 -158z" />
    <glyph glyph-name="ae" unicode="&#xe6;" horiz-adv-x="1949" 
d="M84 311v4q0 170 120 259t322 90q145 0 287 -46v27q0 115 -68 175q-67 60 -193 60t-239 -42q-68 -21 -106 16q-37 37 -37 80q0 72 68 98q158 63 344 64q281 0 381 -176q141 184 378 184q160 0 280 -83t174 -201t54 -249q1 -51 -33 -85t-83 -33h-676q20 -129 104 -202
t216 -73t247 94q27 23 66 23q40 0 68 -29q28 -28 28 -72t-35 -75q-161 -143 -405 -143t-402 184q-219 -182 -452 -183q-176 -1 -292 89t-116 245zM532 160q172 0 322 139q-33 82 -41 166q-115 41 -236 41t-187 -48t-64 -132v-4q0 -74 59 -118t147 -44zM1338 901
q-116 0 -192 -79t-93 -206h557q-12 125 -84 205t-188 80z" />
    <glyph glyph-name="ccedilla" unicode="&#xe7;" horiz-adv-x="1169" 
d="M371 -240q0 28 16 50l125 184q-184 46 -300 196t-116 345v4q0 233 161 399t393 166t388 -135q39 -35 39 -84t-34 -82q-33 -33 -77 -33t-77 25q-111 92 -238 92q-127 -1 -217 -101t-90 -243v-4q0 -145 91 -245t227 -101q136 0 247 96q31 27 72 27t72 -32t31 -79t-35 -76
q-147 -141 -349 -152l-106 -245q-44 -105 -172 -30q-51 30 -51 58z" />
    <glyph glyph-name="egrave" unicode="&#xe8;" horiz-adv-x="1236" 
d="M690 1251q0 -43 -74 -43t-133 56l-139 131q-35 31 -35 61t48 54q49 26 105 26t93 -59l117 -181q18 -27 18 -45zM96 537v4q0 235 150 399t379 164q165 0 285 -83q227 -157 229 -450q0 -51 -34 -85t-83 -33h-678q20 -129 104 -202t216 -73t247 94q29 23 67 23t66 -29
q28 -30 29 -72q0 -42 -33 -75q-160 -143 -394 -143t-392 156q-158 157 -158 405zM626 901q-116 0 -192 -79t-92 -206h555q-12 125 -84 205q-71 80 -187 80z" />
    <glyph glyph-name="eacute" unicode="&#xe9;" horiz-adv-x="1236" 
d="M96 537v4q0 235 150 399t379 164q165 0 285 -83q227 -157 229 -450q0 -51 -34 -85t-83 -33h-678q20 -129 104 -202t216 -73t247 94q29 23 67 23t66 -29q28 -30 29 -72q0 -42 -33 -75q-160 -143 -394 -143t-392 156q-158 157 -158 405zM626 901q-116 0 -192 -79t-92 -206
h555q-12 125 -84 205q-71 80 -187 80zM626 1208q-74 0 -73 43q0 20 16 45l117 181q37 59 93 59q57 0 105 -26t48 -56t-35 -59l-137 -131q-60 -56 -134 -56z" />
    <glyph glyph-name="ecircumflex" unicode="&#xea;" horiz-adv-x="1236" 
d="M96 537v4q0 235 150 399t379 164q165 0 285 -83q227 -157 229 -450q0 -51 -34 -85t-83 -33h-678q20 -129 104 -202t216 -73t247 94q29 23 67 23t66 -29q28 -30 29 -72q0 -42 -33 -75q-160 -143 -394 -143t-392 156q-158 157 -158 405zM626 901q-116 0 -192 -79t-92 -206
h555q-12 125 -84 205q-71 80 -187 80zM305 1249q0 16 25 49l135 170q49 59 119 60h73q72 0 119 -60l135 -170q25 -33 25 -49q0 -41 -72 -41t-139 56l-107 92l-106 -92q-66 -55 -152 -56q-55 0 -55 41z" />
    <glyph glyph-name="edieresis" unicode="&#xeb;" horiz-adv-x="1236" 
d="M96 537v4q0 235 150 399t379 164q165 0 285 -83q227 -157 229 -450q0 -51 -34 -85t-83 -33h-678q20 -129 104 -202t216 -73t247 94q29 23 67 23t66 -29q28 -30 29 -72q0 -42 -33 -75q-160 -143 -394 -143t-392 156q-158 157 -158 405zM626 901q-116 0 -192 -79t-92 -206
h555q-12 125 -84 205q-71 80 -187 80zM417 1475q56 0 95 -36t39 -91v-15q0 -55 -39 -90t-95 -35t-95 35t-39 90v15q0 55 39 91t95 36zM824 1475q56 0 96 -36t38 -91v-15q0 -55 -38 -90t-96 -35q-56 0 -95 35t-39 90v15q0 55 39 91t95 36z" />
    <glyph glyph-name="igrave" unicode="&#xec;" horiz-adv-x="585" 
d="M362 1251q0 -43 -74 -43t-132 56l-140 131q-77 68 14 115q48 26 104 26t93 -59l117 -181q18 -27 18 -45zM170 113v856q0 53 36 89t87 36t88 -37t37 -88v-856q0 -51 -36 -87t-88 -36t-88 36t-36 87z" />
    <glyph glyph-name="iacute" unicode="&#xed;" horiz-adv-x="585" 
d="M170 113v856q0 53 36 89t87 36t88 -37t37 -88v-856q0 -51 -36 -87t-88 -36t-88 36t-36 87zM300 1208q-74 0 -75 43q0 20 17 45l116 181q38 59 94 59t104 -26t48 -56t-35 -59l-137 -131q-58 -56 -132 -56z" />
    <glyph glyph-name="icircumflex" unicode="&#xee;" horiz-adv-x="585" 
d="M170 113v856q0 53 36 89t87 36t88 -37t37 -88v-856q0 -51 -36 -87t-88 -36t-88 36t-36 87zM330 1528q72 0 119 -60l135 -170q25 -33 24 -49q0 -41 -72 -41t-139 56l-106 92l-107 -92q-66 -55 -151 -56q-55 0 -56 41q0 16 25 49l135 170q49 59 119 60h74z" />
    <glyph glyph-name="idieresis" unicode="&#xef;" horiz-adv-x="585" 
d="M170 113v856q0 53 36 89t87 36t88 -37t37 -88v-856q0 -51 -36 -87t-88 -36t-88 36t-36 87zM89 1475q56 0 95 -36t39 -91v-15q0 -55 -39 -90t-95 -35t-95 35t-39 90v15q0 55 39 91t95 36zM497 1475q56 0 95 -36t39 -91v-15q0 -55 -39 -90t-95 -35t-96 35q-39 35 -39 90v15
q0 55 39 91q40 36 96 36z" />
    <glyph glyph-name="eth" unicode="&#xf0;" horiz-adv-x="1314" 
d="M971 503q0 132 -90 221q-91 89 -231 89t-225 -87t-85 -220t90 -226q90 -94 228 -94t226 92t87 225zM379 1100q-27 0 -49 22t-23 56q0 53 55 73l187 82q-21 29 -21 71t33 75t86 33t92 -56l23 -33l178 78q24 8 46 8q22 1 44 -23t23 -56q0 -53 -54 -74l-147 -64l184 -262
q94 -137 136 -252t42 -248q0 -233 -154 -394t-402 -161q-246 0 -404 156t-158 375t136 354t339 135q146 0 285 -84l-213 293l-223 -98q-14 -6 -41 -6z" />
    <glyph glyph-name="ntilde" unicode="&#xf1;" horiz-adv-x="1269" 
d="M353 1194q-37 0 -59 20t-22 43t9 52q69 186 200 186q69 0 169 -41t134 -41q59 0 95 66q27 41 63 41t58 -20t22 -44q0 -22 -8 -51q-35 -94 -83 -140q-47 -46 -117 -46t-170 41t-134 40q-59 1 -94 -65q-27 -41 -63 -41zM156 113v856q0 53 35 89q37 36 89 36t88 -37t35 -88
v-54q131 189 325 189t296 -112t102 -302v-577q0 -51 -34 -87t-88 -36q-53 0 -90 36q-36 36 -35 87v501q-1 127 -61 196t-170 69t-178 -72t-67 -197v-497q1 -51 -35 -87t-88 -36t-89 36q-35 36 -35 87z" />
    <glyph glyph-name="ograve" unicode="&#xf2;" horiz-adv-x="1345" 
d="M741 1251q-1 -43 -75 -43t-131 56l-140 131q-35 31 -35 61t48 54q48 26 105 26q56 0 93 -59l117 -181q18 -27 18 -45zM677 193q144 0 234 99t90 243v4q0 145 -94 246t-238 101q-145 0 -235 -98q-90 -100 -90 -245v-4q0 -143 94 -245q95 -101 239 -101zM1249 539
q1 -233 -165 -399t-413 -165q-247 0 -411 163t-164 397v4q0 237 166 401t412 164t410 -164t165 -397v-4z" />
    <glyph glyph-name="oacute" unicode="&#xf3;" horiz-adv-x="1345" 
d="M677 193q144 0 234 99t90 243v4q0 145 -94 246t-238 101q-145 0 -235 -98q-90 -100 -90 -245v-4q0 -143 94 -245q95 -101 239 -101zM1249 539q1 -233 -165 -399t-413 -165q-247 0 -411 163t-164 397v4q0 237 166 401t412 164t410 -164t165 -397v-4zM678 1208
q-74 0 -74 43q0 20 17 45l116 181q37 59 93 59t105 -26q48 -26 48 -56t-35 -59l-137 -131q-59 -56 -133 -56z" />
    <glyph glyph-name="ocircumflex" unicode="&#xf4;" horiz-adv-x="1345" 
d="M677 193q144 0 234 99t90 243v4q0 145 -94 246t-238 101q-145 0 -235 -98q-90 -100 -90 -245v-4q0 -143 94 -245q95 -101 239 -101zM1249 539q1 -233 -165 -399t-413 -165q-247 0 -411 163t-164 397v4q0 237 166 401t412 164t410 -164t165 -397v-4zM709 1528
q72 0 118 -60l136 -170q25 -33 24 -49q1 -41 -71 -41t-140 56l-106 92l-107 -92q-66 -55 -151 -56q-55 0 -56 41q0 16 25 49l135 170q49 59 119 60h74z" />
    <glyph glyph-name="otilde" unicode="&#xf5;" horiz-adv-x="1345" 
d="M386 1194q-36 0 -58 20t-23 43q0 23 8 52q35 94 83 140t118 46t170 -41t133 -41q59 0 94 66q27 41 63 41t58 -20t23 -44q0 -22 -8 -51q-35 -94 -83 -140t-118 -46t-170 41t-133 40q-59 1 -94 -65q-27 -41 -63 -41zM677 193q144 0 234 99t90 243v4q0 145 -94 246t-238 101
q-145 0 -235 -98q-90 -100 -90 -245v-4q0 -143 94 -245q95 -101 239 -101zM1249 539q1 -233 -165 -399t-413 -165q-247 0 -411 163t-164 397v4q0 237 166 401t412 164t410 -164t165 -397v-4z" />
    <glyph glyph-name="odieresis" unicode="&#xf6;" horiz-adv-x="1345" 
d="M677 193q144 0 234 99t90 243v4q0 145 -94 246t-238 101q-145 0 -235 -98q-90 -100 -90 -245v-4q0 -143 94 -245q95 -101 239 -101zM1249 539q1 -233 -165 -399t-413 -165q-247 0 -411 163t-164 397v4q0 237 166 401t412 164t410 -164t165 -397v-4zM468 1475q56 0 95 -36
t39 -91v-15q0 -55 -39 -90t-95 -35t-95 35t-39 90v15q0 55 39 91t95 36zM876 1475q56 0 95 -36t39 -91v-15q0 -55 -39 -90t-95 -35t-96 35q-39 35 -39 90v15q0 55 39 91q40 36 96 36z" />
    <glyph glyph-name="divide" unicode="&#xf7;" horiz-adv-x="1298" 
d="M649 436q59 0 101 -40t41 -97v-10q0 -57 -41 -96q-40 -39 -100 -39t-101 39t-41 96v10q0 57 41 97t100 40zM649 1288q57 0 99 -40t43 -95v-10q0 -57 -41 -97q-40 -40 -100 -40t-101 40t-41 97v10q0 55 42 95t99 40zM1063 614h-827q-45 0 -76 32t-31 75t31 75t76 31h827
q45 1 76 -31t31 -75t-32 -75q-30 -32 -75 -32z" />
    <glyph glyph-name="oslash" unicode="&#xf8;" horiz-adv-x="1345" 
d="M674 186q150 0 242 102t92 247v4q0 98 -47 180l-469 -479q78 -54 182 -54zM338 539q0 -96 45 -181l469 480q-82 55 -182 55q-148 0 -240 -101t-92 -249v-4zM670 -25q-184 0 -332 99l-59 -62q-37 -37 -74 -37t-61 23q-24 22 -24 58t36 71l59 61q-119 147 -119 347v4
q0 237 166 401t412 164q186 0 332 -100l61 63q37 37 74 37t61 -22t23 -56q0 -34 -35 -74l-62 -61q121 -154 121 -348v-4q1 -233 -165 -399t-414 -165z" />
    <glyph glyph-name="ugrave" unicode="&#xf9;" horiz-adv-x="1269" 
d="M696 1251q0 -43 -74 -43t-133 56l-139 131q-35 31 -35 61q1 30 49 54q48 26 104 26t93 -59l117 -181q18 -27 18 -45zM1116 969v-856q0 -51 -37 -87t-88 -36t-88 36t-37 87v55q-129 -190 -338 -191q-180 0 -282 113t-103 303v576q0 51 36 88t88 37t88 -37t36 -88v-502
q1 -125 61 -194t170 -69t178 72q68 70 66 195v498q0 51 36 88t88 37t89 -37t37 -88z" />
    <glyph glyph-name="uacute" unicode="&#xfa;" horiz-adv-x="1269" 
d="M1116 969v-856q0 -51 -37 -87t-88 -36t-88 36t-37 87v55q-129 -190 -338 -191q-180 0 -282 113t-103 303v576q0 51 36 88t88 37t88 -37t36 -88v-502q1 -125 61 -194t170 -69t178 72q68 70 66 195v498q0 51 36 88t88 37t89 -37t37 -88zM634 1208q-74 0 -75 43q0 20 16 45
l117 181q38 59 94 59t104 -26t48 -56t-35 -59l-137 -131q-58 -56 -132 -56z" />
    <glyph glyph-name="ucircumflex" unicode="&#xfb;" horiz-adv-x="1269" 
d="M1116 969v-856q0 -51 -37 -87t-88 -36t-88 36t-37 87v55q-129 -190 -338 -191q-180 0 -282 113t-103 303v576q0 51 36 88t88 37t88 -37t36 -88v-502q1 -125 61 -194t170 -69t178 72q68 70 66 195v498q0 51 36 88t88 37t89 -37t37 -88zM664 1528q72 0 118 -60l136 -170
q25 -33 24 -49q0 -41 -72 -41t-139 56l-106 92l-107 -92q-66 -55 -151 -56q-55 0 -56 41q0 16 25 49l135 170q49 59 119 60h74z" />
    <glyph glyph-name="udieresis" unicode="&#xfc;" horiz-adv-x="1269" 
d="M1116 969v-856q0 -51 -37 -87t-88 -36t-88 36t-37 87v55q-129 -190 -338 -191q-180 0 -282 113t-103 303v576q0 51 36 88t88 37t88 -37t36 -88v-502q1 -125 61 -194t170 -69t178 72q68 70 66 195v498q0 51 36 88t88 37t89 -37t37 -88zM423 1475q56 0 95 -36t39 -91v-15
q0 -55 -39 -90t-95 -35t-95 35t-39 90v15q0 55 39 91t95 36zM830 1475q56 0 96 -36t39 -91v-15q0 -55 -39 -90q-40 -35 -96 -35t-95 35t-39 90v15q0 55 39 91t95 36z" />
    <glyph glyph-name="yacute" unicode="&#xfd;" horiz-adv-x="1202" 
d="M608 1208q-74 0 -73 43q0 20 16 45l117 181q37 59 93 59t104 -26t48 -56t-34 -59l-138 -131q-59 -56 -133 -56zM370 -334q-112 0 -190 31q-78 27 -78 102q0 45 30 74t60 29t69 -11q38 -11 83 -11t79 25q34 26 64 89l9 22l-402 897q-14 33 -14 72t35 74t88 35
q84 0 121 -95l290 -718l271 718q37 94 119 95q50 0 84 -34t34 -73t-10 -69l-395 -949q-70 -167 -152 -235q-83 -68 -195 -68z" />
    <glyph glyph-name="thorn" unicode="&#xfe;" 
d="M397 539q-1 -152 93 -249t224 -97t219 95t89 251v4q0 154 -90 250t-219 96t-223 -97t-93 -249v-4zM156 -215v1597q0 51 34 87t88 36t90 -36t35 -87v-481q143 203 357 203t364 -152t150 -409v-4q0 -256 -148 -409t-364 -153q-215 0 -359 191v-383q1 -51 -35 -87t-88 -36
t-89 36q-35 36 -35 87z" />
    <glyph glyph-name="ydieresis" unicode="&#xff;" horiz-adv-x="1202" 
d="M398 1475q56 0 96 -36t38 -91v-15q0 -55 -38 -90t-96 -35q-56 0 -95 35t-39 90v15q0 55 39 91t95 36zM806 1475q56 0 95 -36t39 -91v-15q0 -55 -39 -90t-95 -35t-95 35t-39 90v15q0 55 39 91t95 36zM370 -334q-112 0 -190 31q-78 27 -78 102q0 45 30 74t60 29t69 -11
q38 -11 83 -11t79 25q34 26 64 89l9 22l-402 897q-14 33 -14 72t35 74t88 35q84 0 121 -95l290 -718l271 718q37 94 119 95q50 0 84 -34t34 -73t-10 -69l-395 -949q-70 -167 -152 -235q-83 -68 -195 -68z" />
    <glyph glyph-name="Amacron" unicode="&#x100;" horiz-adv-x="1583" 
d="M1061 1595h-545q-38 0 -64 27t-26 64q0 38 27 64t63 26h545q37 0 63 -27t27 -63q-1 -36 -27 -64q-26 -27 -63 -27zM537 569h503l-252 580zM203 -10q-49 0 -83 34t-34 70q0 37 16 70l533 1188q47 102 151 102h13q102 0 149 -102l533 -1188q14 -28 14 -66t-34 -73t-85 -35
q-86 0 -123 88l-116 268h-697l-121 -276q-33 -80 -116 -80z" />
    <glyph glyph-name="amacron" unicode="&#x101;" horiz-adv-x="1202" 
d="M874 1241h-544q-37 0 -64 27q-26 28 -26 64t26 63q27 27 64 26h544q37 -1 64 -27t27 -63t-27 -63t-64 -27zM326 322q0 -76 60 -120t168 -44t190 64t81 167v74q-111 43 -237 43t-195 -48q-68 -48 -67 -132v-4zM467 -23q-159 -1 -271 89t-112 245v4q0 170 121 259
q121 90 298 90t318 -46v27q0 115 -68 175q-69 60 -200 60t-240 -42q-68 -21 -106 16q-37 37 -37 80q0 72 68 98q168 63 348 64q242 0 358 -121q117 -115 117 -334v-532q0 -51 -35 -85t-87 -34t-86 30t-34 74v41q-131 -158 -352 -158z" />
    <glyph glyph-name="Abreve" unicode="&#x102;" horiz-adv-x="1583" 
d="M788 1569q-221 0 -313 164q-16 33 -16 67t24 59q25 25 69 25t71 -47q53 -94 167 -94t164 94q27 47 71 47t69 -26q47 -48 8 -125q-93 -164 -314 -164zM537 569h503l-252 580zM203 -10q-49 0 -83 34t-34 70q0 37 16 70l533 1188q47 102 151 102h13q102 0 149 -102
l533 -1188q14 -28 14 -66t-34 -73t-85 -35q-86 0 -123 88l-116 268h-697l-121 -276q-33 -80 -116 -80z" />
    <glyph glyph-name="abreve" unicode="&#x103;" horiz-adv-x="1202" 
d="M602 1214q-221 0 -313 164q-39 79 8 126q25 26 69 26t70 -47q53 -94 168 -94t164 94q27 47 71 47q45 0 69 -26t24 -60t-17 -66q-92 -164 -313 -164zM326 322q0 -76 60 -120t168 -44t190 64t81 167v74q-111 43 -237 43t-195 -48q-68 -48 -67 -132v-4zM467 -23
q-159 -1 -271 89t-112 245v4q0 170 121 259q121 90 298 90t318 -46v27q0 115 -68 175q-69 60 -200 60t-240 -42q-68 -21 -106 16q-37 37 -37 80q0 72 68 98q168 63 348 64q242 0 358 -121q117 -115 117 -334v-532q0 -51 -35 -85t-87 -34t-86 30t-34 74v41
q-131 -158 -352 -158z" />
    <glyph glyph-name="Aogonek" unicode="&#x104;" horiz-adv-x="1617" 
d="M553 569h504l-252 580zM102 106q0 16 17 58l532 1188q47 102 152 102h14q102 0 150 -102l534 -1192q15 -33 15 -68t-48 -84q-78 -76 -78 -137t91 -84q68 -16 67 -63q0 -63 -82 -64q-110 0 -186 43t-76 129t94 184l-145 330h-696l-119 -276q-35 -80 -119 -80q-49 0 -83 34
t-34 82z" />
    <glyph glyph-name="aogonek" unicode="&#x105;" horiz-adv-x="1202" 
d="M326 322q0 -76 60 -120t168 -44t190 64t81 167v74q-111 43 -237 43t-195 -48q-68 -48 -67 -132v-4zM741 -168q0 88 109 191q-31 29 -31 110v2q-131 -158 -352 -158q-159 -1 -271 89t-112 245v4q0 170 121 259q121 90 298 90t318 -46v27q0 115 -68 175q-69 60 -200 60
t-240 -42q-68 -21 -106 16q-37 37 -37 80q0 72 68 98q168 63 348 64q242 0 358 -121q117 -115 117 -334v-535q0 -51 -49 -98q-82 -80 -82 -139t78 -79t77 -66q0 -63 -81 -64q-109 0 -186 42t-77 130z" />
    <glyph glyph-name="Cacute" unicode="&#x106;" horiz-adv-x="1511" 
d="M845 -25q-306 0 -515 213t-209 525v4q0 311 209 526t530 215q281 0 492 -162q49 -37 49 -94t-36 -93t-84 -36t-81 25q-160 129 -352 129q-192 -1 -328 -147q-135 -146 -135 -359v-4q0 -213 135 -361t335 -147q200 0 362 137q33 29 77 29t81 -35q36 -35 36 -85t-41 -87
q-219 -193 -525 -193zM842 1563q-74 0 -74 43q0 20 16 45l117 180q37 59 93 59t105 -25q48 -26 48 -56t-35 -60l-137 -131q-59 -55 -133 -55z" />
    <glyph glyph-name="cacute" unicode="&#x107;" horiz-adv-x="1169" 
d="M652 -25q-236 0 -396 163t-160 397v4q0 233 161 399t393 166t388 -135q39 -35 39 -84t-34 -82q-33 -33 -77 -33t-77 25q-111 92 -238 92q-127 -1 -217 -101t-90 -243v-4q0 -145 91 -245t227 -101q136 0 247 96q31 27 72 27t72 -32t31 -79t-35 -76q-161 -154 -397 -154z
M652 1208q-74 0 -74 43q0 20 16 45l117 181q37 59 93 59t104 -26t48 -56t-34 -59l-138 -131q-58 -56 -132 -56z" />
    <glyph glyph-name="Cdotaccent" unicode="&#x10a;" horiz-adv-x="1511" 
d="M975 1702v-14q0 -54 -40 -90t-98 -36t-99 35q-40 35 -40 91v14q0 55 40 91t98 36t98 -36q41 -36 41 -91zM845 -25q-306 0 -515 213t-209 525v4q0 311 209 526t530 215q281 0 492 -162q49 -37 49 -94t-36 -93t-84 -36t-81 25q-160 129 -352 129q-192 -1 -328 -147
q-135 -146 -135 -359v-4q0 -213 135 -361t335 -147q200 0 362 137q33 29 77 29t81 -35q36 -35 36 -85t-41 -87q-219 -193 -525 -193z" />
    <glyph glyph-name="cdotaccent" unicode="&#x10b;" horiz-adv-x="1169" 
d="M784 1348v-15q0 -55 -40 -90t-98 -35t-98 35t-40 90v15q0 55 40 91t97 36t98 -36t41 -91zM652 -25q-236 0 -396 163t-160 397v4q0 233 161 399t393 166t388 -135q39 -35 39 -84t-34 -82q-33 -33 -77 -33t-77 25q-111 92 -238 92q-127 -1 -217 -101t-90 -243v-4
q0 -145 91 -245t227 -101q136 0 247 96q31 27 72 27t72 -32t31 -79t-35 -76q-161 -154 -397 -154z" />
    <glyph glyph-name="Ccaron" unicode="&#x10c;" horiz-adv-x="1511" 
d="M845 -25q-306 0 -515 213t-209 525v4q0 311 209 526t530 215q281 0 492 -162q49 -37 49 -94t-36 -93t-84 -36t-81 25q-160 129 -352 129q-192 -1 -328 -147q-135 -146 -135 -359v-4q0 -213 135 -361t335 -147q200 0 362 137q33 29 77 29t81 -35q36 -35 36 -85t-41 -87
q-219 -193 -525 -193zM1096 1884q55 0 55 -41q0 -16 -25 -49l-135 -170q-47 -59 -119 -59h-73q-70 0 -119 59l-135 170q-25 33 -25 49q0 41 73 41t138 -55l107 -92l106 92q68 55 152 55z" />
    <glyph glyph-name="ccaron" unicode="&#x10d;" horiz-adv-x="1169" 
d="M652 -25q-236 0 -396 163t-160 397v4q0 233 161 399t393 166t388 -135q39 -35 39 -84t-34 -82q-33 -33 -77 -33t-77 25q-111 92 -238 92q-127 -1 -217 -101t-90 -243v-4q0 -145 91 -245t227 -101q136 0 247 96q31 27 72 27t72 -32t31 -79t-35 -76q-161 -154 -397 -154z
M905 1530q55 0 56 -41q0 -16 -25 -49l-135 -170q-47 -59 -119 -60h-74q-70 0 -119 60l-135 170q-25 33 -24 49q0 41 59 41q86 0 152 -55l106 -93l107 93q68 55 151 55z" />
    <glyph glyph-name="Dcaron" unicode="&#x10e;" horiz-adv-x="1601" 
d="M436 229h283q223 -1 360 135t138 349v4q1 213 -137 350t-361 137h-283v-975zM184 127v1180q0 53 37 90t90 37h408q334 0 548 -204t214 -509v-4q0 -307 -214 -512t-548 -205h-408q-53 0 -90 37t-37 90zM1087 1823q0 -16 -24 -49l-135 -170q-47 -59 -119 -60h-74
q-70 0 -119 60l-135 170q-25 33 -24 49q0 41 59 41q86 0 152 -56l106 -92l107 92q68 55 151 56q55 0 55 -41z" />
    <glyph glyph-name="dcaron" unicode="&#x10f;" 
d="M661 889q-131 0 -221 -94t-90 -252v-4q0 -154 91 -250t221 -96t221 97q92 97 92 249v4q0 152 -92 249t-222 97zM1219 1382v-1269q0 -51 -36 -87t-88 -36t-88 36t-36 87v67q-143 -203 -357 -203t-364 153t-150 409v4q0 257 148 409t363 152q214 0 360 -191v469q0 51 36 87
t88 36t88 -36t36 -87zM1466 1505q63 0 64 -59q0 -23 -8 -47l-76 -248q-16 -51 -60 -51q-25 0 -40 16t-13 45l6 254q2 39 27 65t64 25h36z" />
    <glyph glyph-name="Dcroat" unicode="&#x110;" horiz-adv-x="1662" 
d="M496 1204v-370h260q47 0 79 -33q31 -33 31 -80t-32 -80t-78 -33h-260v-379h284q222 -1 360 135t138 349v4q0 213 -137 350t-361 137h-284zM193 834h53v473q0 53 37 90t90 37h407q334 0 548 -204t214 -509v-4q0 -307 -214 -512t-548 -205h-407q-53 0 -90 37t-37 90v481
h-53q-45 0 -78 33t-33 80t32 80t79 33z" />
    <glyph glyph-name="dcroat" unicode="&#x111;" 
d="M661 889q-131 0 -221 -94t-90 -252v-4q0 -154 91 -250t221 -96t221 97q92 97 92 249v4q0 152 -92 249t-222 97zM1219 1382v-2h77q31 0 53 -22q21 -22 21 -52t-22 -52t-52 -21h-77v-1120q0 -51 -36 -87t-88 -36t-88 36t-36 87v67q-143 -203 -357 -203t-364 153t-150 409v4
q0 257 148 409t363 152q214 0 360 -191v320h-273q-30 -1 -52 21t-22 52t22 52t52 22h273v2q0 51 36 87t88 36t88 -36t36 -87z" />
    <glyph glyph-name="Emacron" unicode="&#x112;" horiz-adv-x="1372" 
d="M991 1575h-545q-38 0 -64 27q-26 28 -26 64t27 63t63 26h545q37 -1 64 -27t27 -63t-28 -63q-26 -26 -63 -27zM311 0q-53 0 -90 37t-37 90v1180q0 53 37 90t90 37h834q47 0 80 -33t33 -80t-34 -80q-32 -33 -79 -33h-709v-372h617q47 0 80 -34t33 -80t-34 -79
q-32 -33 -79 -33h-617v-385h719q45 -1 79 -33t34 -79t-33 -80t-80 -33h-844z" />
    <glyph glyph-name="emacron" unicode="&#x113;" horiz-adv-x="1236" 
d="M893 1241h-545q-38 0 -64 27q-26 28 -26 64t27 63t63 26h545q37 -1 63 -27t27 -63q-1 -37 -27 -63t-63 -27zM96 537v4q0 235 150 399t379 164q165 0 285 -83q227 -157 229 -450q0 -51 -34 -85t-83 -33h-678q20 -129 104 -202t216 -73t247 94q29 23 67 23t66 -29
q28 -30 29 -72q0 -42 -33 -75q-160 -143 -394 -143t-392 156q-158 157 -158 405zM626 901q-116 0 -192 -79t-92 -206h555q-12 125 -84 205q-71 80 -187 80z" />
    <glyph glyph-name="Ebreve" unicode="&#x114;" horiz-adv-x="1372" 
d="M719 1548q-221 0 -313 164q-39 79 8 126q24 26 68 26t71 -47q53 -95 168 -95t164 95q27 47 71 47t68 -26t25 -60q0 -34 -17 -66q-92 -164 -313 -164zM311 0q-53 0 -90 37t-37 90v1180q0 53 37 90t90 37h834q47 0 80 -33t33 -80t-34 -80q-32 -33 -79 -33h-709v-372h617
q47 0 80 -34t33 -80t-34 -79q-32 -33 -79 -33h-617v-385h719q45 -1 79 -33t34 -79t-33 -80t-80 -33h-844z" />
    <glyph glyph-name="ebreve" unicode="&#x115;" horiz-adv-x="1236" 
d="M621 1214q-221 0 -314 164q-16 33 -16 67q1 33 25 59t68 26t71 -47q53 -94 168 -94t163 94q27 47 71 47t69 -26q46 -48 8 -126q-92 -164 -313 -164zM96 537v4q0 235 150 399t379 164q165 0 285 -83q227 -157 229 -450q0 -51 -34 -85t-83 -33h-678q20 -129 104 -202
t216 -73t247 94q29 23 67 23t66 -29q28 -30 29 -72q0 -42 -33 -75q-160 -143 -394 -143t-392 156q-158 157 -158 405zM626 901q-116 0 -192 -79t-92 -206h555q-12 125 -84 205q-71 80 -187 80z" />
    <glyph glyph-name="Edotaccent" unicode="&#x116;" horiz-adv-x="1372" 
d="M858 1681v-14q0 -55 -40 -90t-98 -35t-98 35t-40 90v14q0 55 40 91t97 36t98 -36t41 -91zM311 0q-53 0 -90 37t-37 90v1180q0 53 37 90t90 37h834q47 0 80 -33t33 -80t-34 -80q-32 -33 -79 -33h-709v-372h617q47 0 80 -34t33 -80t-34 -79q-32 -33 -79 -33h-617v-385h719
q45 -1 79 -33t34 -79t-33 -80t-80 -33h-844z" />
    <glyph glyph-name="edotaccent" unicode="&#x117;" horiz-adv-x="1236" 
d="M760 1348v-15q0 -55 -40 -90t-98 -35t-99 35q-40 35 -40 90v15q0 55 40 91q39 36 97 36t99 -36t41 -91zM96 537v4q0 235 150 399t379 164q165 0 285 -83q227 -157 229 -450q0 -51 -34 -85t-83 -33h-678q20 -129 104 -202t216 -73t247 94q29 23 67 23t66 -29
q28 -30 29 -72q0 -42 -33 -75q-160 -143 -394 -143t-392 156q-158 157 -158 405zM626 901q-116 0 -192 -79t-92 -206h555q-12 125 -84 205q-71 80 -187 80z" />
    <glyph glyph-name="Eogonek" unicode="&#x118;" horiz-adv-x="1372" 
d="M311 0q-53 0 -90 37t-37 90v1180q0 53 37 90t90 37h834q47 0 80 -33t33 -80t-34 -80q-32 -33 -79 -33h-709v-372h617q47 0 80 -34t33 -80t-34 -79q-32 -33 -79 -33h-617v-385h717q49 -1 82 -31t33 -70t-14 -62t-50 -56q-86 -74 -86 -135t88 -84q70 -14 70 -63
q0 -63 -82 -64q-112 0 -188 42t-76 125t84 173h-703z" />
    <glyph glyph-name="eogonek" unicode="&#x119;" horiz-adv-x="1236" 
d="M626 901q-116 0 -192 -79t-92 -206h555q-12 125 -84 205q-71 80 -187 80zM1139 571q0 -51 -34 -85t-83 -33h-678q20 -129 104 -202t216 -73t247 94q29 23 67 23t66 -29q28 -30 29 -70q-1 -40 -25 -66t-51 -51q-27 -24 -45 -42q-90 -84 -90 -156q0 -43 22 -62t68 -32
q68 -16 68 -63q0 -63 -80 -64q-116 0 -190 45t-74 122t69 157q-61 -8 -94 -9q-239 0 -397 157t-158 405v4q0 235 150 399t379 164q165 0 285 -83t174 -201t55 -249z" />
    <glyph glyph-name="Ecaron" unicode="&#x11a;" horiz-adv-x="1372" 
d="M311 0q-53 0 -90 37t-37 90v1180q0 53 37 90t90 37h834q47 0 80 -33t33 -80t-34 -80q-32 -33 -79 -33h-709v-372h617q47 0 80 -34t33 -80t-34 -79q-32 -33 -79 -33h-617v-385h719q45 -1 79 -33t34 -79t-33 -80t-80 -33h-844zM1034 1823q0 -16 -24 -49l-136 -170
q-47 -59 -118 -60h-74q-70 0 -119 60l-135 170q-25 33 -25 49q0 41 73 41t138 -56l107 -92l106 92q68 55 152 56q55 0 55 -41z" />
    <glyph glyph-name="ecaron" unicode="&#x11b;" horiz-adv-x="1236" 
d="M96 537v4q0 235 150 399t379 164q165 0 285 -83q227 -157 229 -450q0 -51 -34 -85t-83 -33h-678q20 -129 104 -202t216 -73t247 94q29 23 67 23t66 -29q28 -30 29 -72q0 -42 -33 -75q-160 -143 -394 -143t-392 156q-158 157 -158 405zM626 901q-116 0 -192 -79t-92 -206
h555q-12 125 -84 205q-71 80 -187 80zM881 1530q55 0 55 -41q0 -16 -25 -49l-135 -170q-47 -59 -119 -60h-73q-70 0 -119 60l-135 170q-25 33 -25 49q0 41 73 41t138 -55l107 -93l106 93q68 55 152 55z" />
    <glyph glyph-name="Gbreve" unicode="&#x11e;" horiz-adv-x="1605" 
d="M844 1569q-221 0 -314 164q-16 33 -16 67t25 59t69 25t70 -47q53 -94 168 -94t164 94q26 47 70 47t69 -26t25 -59q0 -34 -17 -66q-92 -164 -313 -164zM864 -25q-332 0 -538 210t-205 528v4q0 307 210 524t513 217t506 -145q51 -39 51 -97t-37 -94q-37 -37 -81 -37t-85 29
q-154 113 -350 113q-196 -1 -329 -149q-134 -148 -134 -357v-4q0 -223 135 -367t344 -145q209 0 355 108v269h-283q-47 0 -80 32t-33 76q0 45 33 78t80 33h399q53 0 90 -37t37 -90v-383q0 -104 -88 -160q-234 -156 -510 -156z" />
    <glyph glyph-name="gbreve" unicode="&#x11f;" 
d="M668 1214q-221 0 -314 164q-16 33 -16 67q0 33 24 59t69 26q44 0 71 -47q53 -94 168 -94t164 94q26 47 70 47t69 -26q46 -48 8 -126q-92 -164 -313 -164zM658 297q130 0 224 84q93 84 93 213v4q0 129 -93 213q-92 84 -224 84t-220 -83t-88 -214v-4q0 -131 89 -214
t219 -83zM1219 221q0 -553 -582 -553q-219 0 -418 96q-70 27 -69 99q0 41 30 71t65 31q34 0 54 -10q154 -86 326 -86t260 85t88 247v84q-154 -199 -368 -199t-359 138t-146 368v4q0 228 146 368t359 140q212 0 366 -184v51q0 51 36 87t88 36t88 -37t36 -88v-748z" />
    <glyph glyph-name="Gdotaccent" unicode="&#x120;" horiz-adv-x="1605" 
d="M983 1702v-14q0 -54 -40 -90t-98 -36t-99 35q-40 35 -39 91v14q0 55 39 91q40 36 98 36t98 -36q41 -36 41 -91zM864 -25q-332 0 -538 210t-205 528v4q0 307 210 524t513 217t506 -145q51 -39 51 -97t-37 -94q-37 -37 -81 -37t-85 29q-154 113 -350 113q-196 -1 -329 -149
q-134 -148 -134 -357v-4q0 -223 135 -367t344 -145q209 0 355 108v269h-283q-47 0 -80 32t-33 76q0 45 33 78t80 33h399q53 0 90 -37t37 -90v-383q0 -104 -88 -160q-234 -156 -510 -156z" />
    <glyph glyph-name="gdotaccent" unicode="&#x121;" 
d="M807 1348v-15q0 -55 -40 -90t-98 -35t-99 35q-40 35 -40 90v15q0 55 40 91t98 36t98 -36q41 -36 41 -91zM658 297q130 0 224 84q93 84 93 213v4q0 129 -93 213q-92 84 -224 84t-220 -83t-88 -214v-4q0 -131 89 -214t219 -83zM1219 221q0 -553 -582 -553q-219 0 -418 96
q-70 27 -69 99q0 41 30 71t65 31q34 0 54 -10q154 -86 326 -86t260 85t88 247v84q-154 -199 -368 -199t-359 138t-146 368v4q0 228 146 368t359 140q212 0 366 -184v51q0 51 36 87t88 36t88 -37t36 -88v-748z" />
    <glyph glyph-name="Gcommaaccent" unicode="&#x122;" horiz-adv-x="1605" 
d="M864 -25q-332 0 -538 210t-205 528v4q0 307 210 524t513 217t506 -145q51 -39 51 -97t-37 -94q-37 -37 -81 -37t-85 29q-154 113 -350 113q-196 -1 -329 -149q-134 -148 -134 -357v-4q0 -223 135 -367t344 -145q209 0 355 108v269h-283q-47 0 -80 32t-33 76q0 45 33 78
t80 33h399q53 0 90 -37t37 -90v-383q0 -104 -88 -160q-234 -156 -510 -156zM715 -233q0 47 35 77t92 31q57 0 93 -39t36 -104v-6q0 -145 -88 -222q-74 -68 -176 -67q-53 0 -54 43q0 33 43 43q133 29 129 131q-111 18 -110 108v5z" />
    <glyph glyph-name="gcommaaccent" unicode="&#x123;" 
d="M658 297q130 0 224 84q93 84 93 213v4q0 129 -93 213q-92 84 -224 84t-220 -83t-88 -214v-4q0 -131 89 -214t219 -83zM1219 221q0 -553 -582 -553q-219 0 -418 96q-70 27 -69 99q0 41 30 71t65 31q34 0 54 -10q154 -86 326 -86t260 85t88 247v84q-154 -199 -368 -199
t-359 138t-146 368v4q0 228 146 368t359 140q212 0 366 -184v51q0 51 36 87t88 36t88 -37t36 -88v-748zM793 1319v-4q0 -47 -35 -78t-92 -31t-94 39q-36 39 -35 105v6q0 145 88 221q74 68 176 68q53 0 53 -43q0 -33 -43 -43q-133 -30 -129 -132q111 -18 111 -108z" />
    <glyph glyph-name="Hbar" unicode="&#x126;" horiz-adv-x="1593" 
d="M455 838h684v209h-684v-209zM203 115v932h-68q-37 1 -63 27t-27 62q0 36 27 62t63 27h68v94q0 53 37 89t89 36t89 -36t37 -89v-94h684v94q0 53 37 89t89 36t89 -36t37 -89v-94h65q37 0 64 -27q26 -26 26 -62t-26 -63t-64 -26h-65v-932q0 -53 -37 -89t-89 -36t-89 36
t-37 89v489h-684v-489q0 -53 -37 -89t-89 -36t-89 36t-37 89z" />
    <glyph glyph-name="hbar" unicode="&#x127;" horiz-adv-x="1269" 
d="M156 113v1120h-78q-30 -1 -52 21t-22 52t22 52t52 22h78v2q0 51 35 87t87 36t89 -36t36 -87v-2h273q30 0 52 -22t22 -52t-22 -52t-52 -21h-273v-318q131 189 325 189t296 -112t102 -302v-577q0 -51 -34 -87t-88 -36q-53 0 -90 36q-36 36 -35 87v501q-1 127 -61 196
t-170 69t-178 -72t-67 -197v-497q1 -51 -35 -87t-88 -36t-89 36q-35 36 -35 87z" />
    <glyph glyph-name="Imacron" unicode="&#x12a;" horiz-adv-x="649" 
d="M598 1575h-545q-37 0 -63 27q-26 28 -27 64q0 36 27 63t63 26h545q37 -1 64 -27q26 -26 26 -63t-26 -63t-64 -27zM199 115v1204q0 53 37 89t89 36t89 -36t37 -89v-1204q0 -53 -37 -89t-89 -36t-89 36t-37 89z" />
    <glyph glyph-name="imacron" unicode="&#x12b;" horiz-adv-x="585" 
d="M565 1241h-545q-38 0 -64 27q-26 28 -26 64t27 63t63 26h545q37 -1 64 -27t27 -63t-28 -63q-26 -26 -63 -27zM170 113v856q0 53 36 89t87 36t88 -37t37 -88v-856q0 -51 -36 -87t-88 -36t-88 36t-36 87z" />
    <glyph glyph-name="Ibreve" unicode="&#x12c;" horiz-adv-x="649" 
d="M326 1548q-221 0 -314 164q-16 33 -16 67q0 33 24 59t69 26q44 0 71 -47q53 -95 168 -95t164 95q26 47 70 47t69 -26q46 -48 8 -126q-92 -164 -313 -164zM199 115v1204q0 53 37 89t89 36t89 -36t37 -89v-1204q0 -53 -37 -89t-89 -36t-89 36t-37 89z" />
    <glyph glyph-name="ibreve" unicode="&#x12d;" horiz-adv-x="585" 
d="M293 1214q-221 0 -313 164q-39 79 8 126q24 26 68 26t71 -47q53 -94 168 -94t164 94q27 47 71 47t68 -26t25 -60q0 -34 -17 -66q-92 -164 -313 -164zM170 113v856q0 53 36 89t87 36t88 -37t37 -88v-856q0 -51 -36 -87t-88 -36t-88 36t-36 87z" />
    <glyph glyph-name="Iogonek" unicode="&#x12e;" horiz-adv-x="649" 
d="M137 -168q0 86 99 191q-37 33 -37 83v1213q0 53 37 89t89 36t89 -36t37 -89v-1206q0 -55 -48 -103q-80 -82 -79 -139q0 -61 80 -79t79 -68q0 -63 -82 -64q-111 0 -187 43t-77 129z" />
    <glyph glyph-name="iogonek" unicode="&#x12f;" horiz-adv-x="585" 
d="M152 1360v12q0 55 39 88t101 33t102 -33t40 -88v-12q0 -55 -40 -89t-101 -34t-102 34q-39 34 -39 89zM418 969v-863q0 -51 -49 -98q-82 -80 -82 -139t78 -79t77 -66q0 -63 -82 -64q-110 0 -186 42t-76 132t109 189q-37 33 -37 81v865q0 53 36 89t87 36t88 -37t37 -88z
" />
    <glyph glyph-name="Idotaccent" unicode="&#x130;" horiz-adv-x="649" 
d="M465 1681v-14q0 -55 -40 -90t-98 -35t-99 35q-40 35 -40 90v14q0 55 40 91t98 36t98 -36q41 -36 41 -91zM199 115v1204q0 53 37 89t89 36t89 -36t37 -89v-1204q0 -53 -37 -89t-89 -36t-89 36t-37 89z" />
    <glyph glyph-name="dotlessi" unicode="&#x131;" horiz-adv-x="585" 
d="M170 113v856q0 53 36 89t87 36t88 -37t37 -88v-856q0 -51 -36 -87t-88 -36t-88 36t-36 87z" />
    <glyph glyph-name="Kcommaaccent" unicode="&#x136;" horiz-adv-x="1460" 
d="M184 115v1204q0 53 37 89t90 36t89 -36t36 -89v-606l680 684q44 47 100 47t89 -35t33 -85t-46 -91l-446 -430l483 -600q35 -45 35 -93t-37 -84t-94 -36t-103 59l-460 588l-234 -225v-297q0 -53 -36 -89t-89 -36t-90 36t-37 89zM618 -221v4q0 47 35 78t92 31t94 -39
q36 -39 35 -105v-6q0 -145 -88 -221q-74 -68 -176 -68q-53 0 -53 43q0 33 43 43q133 29 129 131q-111 18 -111 109z" />
    <glyph glyph-name="kcommaaccent" unicode="&#x137;" horiz-adv-x="1187" 
d="M156 113v1269q0 51 35 87t87 36t89 -36t36 -87v-798l465 456q54 54 104 54t81 -33t31 -83t-56 -101l-287 -265l328 -428q33 -45 33 -88q0 -42 -34 -74t-92 -32t-99 55l-310 412l-164 -156v-188q1 -51 -35 -87t-88 -36t-89 36q-35 36 -35 87zM494 -227q0 47 34 77t92 31
q58 0 94 -39t36 -104v-6q0 -145 -88 -221q-74 -68 -177 -68q-53 0 -53 43q0 35 43 43q133 29 129 131q-111 18 -110 109v4z" />
    <glyph glyph-name="Lacute" unicode="&#x139;" horiz-adv-x="1267" 
d="M184 127v1192q0 53 37 89t90 36t89 -36t36 -89v-1090h649q47 1 81 -33t34 -81t-34 -81t-81 -34h-774q-53 0 -90 37t-37 90zM358 1542q-74 0 -73 43q0 20 16 45l117 180q37 60 93 60t104 -26q91 -49 14 -115l-137 -132q-60 -55 -134 -55z" />
    <glyph glyph-name="lacute" unicode="&#x13a;" horiz-adv-x="585" 
d="M170 113v1269q0 51 36 87t87 36t88 -36t37 -87v-1269q0 -51 -36 -87t-88 -36t-88 36t-36 87zM302 1577q-74 0 -75 43q0 20 17 45l116 180q38 59 94 59t104 -25t48 -55t-35 -61l-137 -131q-58 -55 -132 -55z" />
    <glyph glyph-name="Lcommaaccent" unicode="&#x13b;" horiz-adv-x="1267" 
d="M184 127v1192q0 53 37 89t90 36t89 -36t36 -89v-1090h649q47 1 81 -33t34 -81t-34 -81t-81 -34h-774q-53 0 -90 37t-37 90zM555 -231v4q0 47 35 77t92 31q57 0 93 -39t36 -104v-6q0 -145 -88 -221q-74 -68 -176 -68q-53 0 -53 43q0 35 43 43q133 29 129 131
q-111 18 -111 109z" />
    <glyph glyph-name="lcommaaccent" unicode="&#x13c;" horiz-adv-x="585" 
d="M170 113v1269q0 51 36 87t87 36t88 -36t37 -87v-1269q0 -51 -36 -87t-88 -36t-88 36t-36 87zM166 -227q0 47 35 77t92 31q57 0 93 -39t36 -104v-6q0 -145 -88 -221q-74 -68 -176 -68q-54 0 -54 39t43 47q133 29 129 131q-111 18 -110 109v4z" />
    <glyph glyph-name="Lcaron" unicode="&#x13d;" horiz-adv-x="1267" 
d="M184 127v1192q0 53 37 89t90 36t89 -36t36 -89v-1090h649q47 1 81 -33t34 -81t-34 -81t-81 -34h-774q-53 0 -90 37t-37 90zM705 1438h36q63 0 64 -60q0 -23 -8 -47l-76 -248q-16 -51 -59 -51q-24 0 -40 16t-14 46l6 254q2 38 27 64t64 26z" />
    <glyph glyph-name="lcaron" unicode="&#x13e;" horiz-adv-x="585" 
d="M170 113v1269q0 51 36 87t87 36t88 -36t37 -87v-1269q0 -51 -36 -87t-88 -36t-88 36t-36 87zM666 1505q63 0 63 -59q0 -23 -8 -47l-76 -248q-16 -51 -59 -51q-24 0 -40 16t-14 45l7 254q2 39 26 65q25 26 64 25h37z" />
    <glyph glyph-name="Ldot" unicode="&#x13f;" horiz-adv-x="1267" 
d="M1112 780v-14q0 -55 -40 -90t-98 -35t-98 35t-40 90v14q0 55 40 91t97 36t98 -36t41 -91zM184 127v1192q0 53 37 89t90 36t89 -36t36 -89v-1090h649q47 1 81 -33t34 -81t-34 -81t-81 -34h-774q-53 0 -90 37t-37 90z" />
    <glyph glyph-name="ldot" unicode="&#x140;" horiz-adv-x="751" 
d="M170 113v1269q0 51 36 87t87 36t88 -36t37 -87v-1269q0 -51 -36 -87t-88 -36t-88 36t-36 87zM782 778v-22q0 -47 -32 -80t-80 -33q-49 0 -81 33t-32 80v22q0 47 32 80t81 33q48 0 80 -33t32 -80z" />
    <glyph glyph-name="Lslash" unicode="&#x141;" horiz-adv-x="1329" 
d="M82 674q0 82 80 106l84 25v514q0 53 37 89t88 36t88 -36t37 -89v-438l272 82q20 6 53 6t66 -33t33 -80q0 -83 -80 -106l-344 -105v-416h651q47 1 81 -33t34 -81t-34 -81t-81 -34h-774q-53 0 -90 37t-37 90v442l-13 -4l-40 -6q-47 0 -79 34t-32 81z" />
    <glyph glyph-name="lslash" unicode="&#x142;" horiz-adv-x="708" 
d="M548 928q36 0 68 -33t31 -80q0 -86 -80 -106l-90 -29v-567q0 -51 -36 -87t-87 -36t-87 36t-36 87v493q-45 -10 -59 -10q-47 0 -79 33t-32 80q0 82 80 106q39 12 90 27v540q0 51 36 87t87 36t87 -36t36 -87v-467q35 13 71 13z" />
    <glyph glyph-name="Nacute" unicode="&#x143;" horiz-adv-x="1617" 
d="M184 113v1202q0 53 37 90t90 37h27q72 0 131 -74l717 -928v881q0 51 36 87t87 36t88 -36t37 -87v-1204q0 -53 -36 -89t-87 -36h-11q-72 0 -131 76l-737 954v-909q0 -51 -36 -87t-87 -36t-88 36t-37 87zM814 1542q-74 0 -75 43q0 20 17 45l116 180q38 60 94 60t104 -26
t48 -56t-35 -59l-137 -132q-58 -55 -132 -55z" />
    <glyph glyph-name="nacute" unicode="&#x144;" horiz-adv-x="1269" 
d="M156 113v856q0 53 35 89q37 36 89 36t88 -37t35 -88v-54q131 189 325 189t296 -112t102 -302v-577q0 -51 -34 -87t-88 -36q-53 0 -90 36q-36 36 -35 87v501q-1 127 -61 196t-170 69t-178 -72t-67 -197v-497q1 -51 -35 -87t-88 -36t-89 36q-35 36 -35 87zM646 1208
q-74 0 -75 43q0 20 17 45l117 181q37 59 93 59t104 -26t48 -56t-35 -59l-137 -131q-58 -56 -132 -56z" />
    <glyph glyph-name="Ncommaaccent" unicode="&#x145;" horiz-adv-x="1617" 
d="M184 113v1202q0 53 37 90t90 37h27q72 0 131 -74l717 -928v881q0 51 36 87t87 36t88 -36t37 -87v-1204q0 -53 -36 -89t-87 -36h-11q-72 0 -131 76l-737 954v-909q0 -51 -36 -87t-87 -36t-88 36t-37 87zM680 -221v4q0 47 35 78t92 31t93 -40q36 -38 36 -104v-6
q0 -145 -88 -221q-74 -68 -176 -68q-53 0 -54 43q0 33 44 43q133 29 129 131q-111 18 -111 109z" />
    <glyph glyph-name="ncommaaccent" unicode="&#x146;" horiz-adv-x="1269" 
d="M156 113v856q0 53 35 89q37 36 89 36t88 -37t35 -88v-54q131 189 325 189t296 -112t102 -302v-577q0 -51 -34 -87t-88 -36q-53 0 -90 36q-36 36 -35 87v501q-1 127 -61 196t-170 69t-178 -72t-67 -197v-497q1 -51 -35 -87t-88 -36t-89 36q-35 36 -35 87zM512 -231v4
q0 47 35 77t92 31q57 0 93 -39t36 -104v-6q0 -145 -88 -221q-74 -68 -176 -68q-53 0 -53 43q0 35 43 43q133 29 129 131q-111 18 -111 109z" />
    <glyph glyph-name="Ncaron" unicode="&#x147;" horiz-adv-x="1617" 
d="M184 113v1202q0 53 37 90t90 37h27q72 0 131 -74l717 -928v881q0 51 36 87t87 36t88 -36t37 -87v-1204q0 -53 -36 -89t-87 -36h-11q-72 0 -131 76l-737 954v-909q0 -51 -36 -87t-87 -36t-88 36t-37 87zM1124 1823q0 -16 -24 -49l-135 -170q-47 -59 -119 -60h-74
q-70 0 -119 60l-135 170q-25 33 -24 49q0 41 59 41q86 0 152 -56l106 -92l107 92q68 55 151 56q55 0 55 -41z" />
    <glyph glyph-name="ncaron" unicode="&#x148;" horiz-adv-x="1269" 
d="M156 113v856q0 53 35 89q37 36 89 36t88 -37t35 -88v-54q131 189 325 189t296 -112t102 -302v-577q0 -51 -34 -87t-88 -36q-53 0 -90 36q-36 36 -35 87v501q-1 127 -61 196t-170 69t-178 -72t-67 -197v-497q1 -51 -35 -87t-88 -36t-89 36q-35 36 -35 87zM899 1530
q55 0 55 -41q0 -16 -24 -49l-135 -170q-47 -59 -119 -60h-74q-70 0 -119 60l-135 170q-25 33 -24 49q0 41 59 41q86 0 152 -55l106 -93l107 93q68 55 151 55z" />
    <glyph glyph-name="Omacron" unicode="&#x14c;" horiz-adv-x="1740" 
d="M872 209q211 0 348 145q136 145 136 359v4q0 213 -138 361t-350 148t-347 -146q-136 -146 -136 -359v-4q0 -213 138 -361t349 -147zM868 -25q-326 0 -536 215t-211 523v4q0 307 213 524q212 217 538 217t537 -215t211 -522v-4q0 -307 -213 -525t-539 -217zM1143 1595
h-545q-38 0 -64 27t-26 64q0 38 27 64t63 26h545q37 0 63 -27t27 -63q-1 -36 -27 -64q-26 -27 -63 -27z" />
    <glyph glyph-name="omacron" unicode="&#x14d;" horiz-adv-x="1345" 
d="M677 193q144 0 234 99t90 243v4q0 145 -94 246t-238 101q-145 0 -235 -98q-90 -100 -90 -245v-4q0 -143 94 -245q95 -101 239 -101zM1249 539q1 -233 -165 -399t-413 -165q-247 0 -411 163t-164 397v4q0 237 166 401t412 164t410 -164t165 -397v-4zM944 1241h-545
q-37 0 -63 27q-26 28 -27 64q0 36 27 63t63 26h545q37 -1 64 -27q26 -26 26 -63t-26 -63t-64 -27z" />
    <glyph glyph-name="Obreve" unicode="&#x14e;" horiz-adv-x="1740" 
d="M870 1569q-221 0 -313 164q-16 33 -16 67t24 59q25 25 69 25t71 -47q53 -94 167 -94t164 94q27 47 71 47t69 -26q47 -48 8 -125q-93 -164 -314 -164zM872 209q211 0 348 145q136 145 136 359v4q0 213 -138 361t-350 148t-347 -146q-136 -146 -136 -359v-4
q0 -213 138 -361t349 -147zM868 -25q-326 0 -536 215t-211 523v4q0 307 213 524q212 217 538 217t537 -215t211 -522v-4q0 -307 -213 -525t-539 -217z" />
    <glyph glyph-name="obreve" unicode="&#x14f;" horiz-adv-x="1345" 
d="M672 1214q-221 0 -314 164q-16 33 -16 67q0 33 25 59t69 26t70 -47q53 -94 168 -94t164 94q26 47 70 47t69 -26q46 -48 8 -126q-92 -164 -313 -164zM677 193q144 0 234 99t90 243v4q0 145 -94 246t-238 101q-145 0 -235 -98q-90 -100 -90 -245v-4q0 -143 94 -245
q95 -101 239 -101zM1249 539q1 -233 -165 -399t-413 -165q-247 0 -411 163t-164 397v4q0 237 166 401t412 164t410 -164t165 -397v-4z" />
    <glyph glyph-name="Ohungarumlaut" unicode="&#x150;" horiz-adv-x="1740" 
d="M872 209q211 0 348 145q136 145 136 359v4q0 213 -138 361t-350 148t-347 -146q-136 -146 -136 -359v-4q0 -213 138 -361t349 -147zM868 -25q-326 0 -536 215t-211 523v4q0 307 213 524q212 217 538 217t537 -215t211 -522v-4q0 -307 -213 -525t-539 -217zM668 1563
q-72 0 -72 43q0 20 16 45l119 180q35 59 89 59t102 -24q47 -25 47 -54t-35 -63l-137 -131q-57 -55 -129 -55zM1042 1563q-70 0 -71 43q0 20 16 45l119 180q35 59 89 59t101 -24t47 -54q0 -29 -34 -63l-138 -131q-59 -55 -129 -55z" />
    <glyph glyph-name="ohungarumlaut" unicode="&#x151;" horiz-adv-x="1345" 
d="M677 193q144 0 234 99t90 243v4q0 145 -94 246t-238 101q-145 0 -235 -98q-90 -100 -90 -245v-4q0 -143 94 -245q95 -101 239 -101zM1249 539q1 -233 -165 -399t-413 -165q-247 0 -411 163t-164 397v4q0 237 166 401t412 164t410 -164t165 -397v-4zM472 1208
q-72 0 -73 43q0 20 17 45l119 181q35 59 89 59t101 -25t47 -53t-35 -63l-137 -131q-56 -56 -128 -56zM846 1208q-70 0 -72 43q0 20 17 45l118 181q35 59 89 59t102 -25q47 -25 47 -53t-35 -63l-137 -131q-59 -56 -129 -56z" />
    <glyph glyph-name="OE" unicode="&#x152;" horiz-adv-x="2248" 
d="M883 229h223v975h-223q-223 0 -361 -135t-137 -348v-4q-1 -213 137 -351t361 -137zM883 0q-336 0 -549 203t-213 510v4q0 307 214 512t548 205h1138q47 0 81 -33t34 -80t-34 -80t-81 -33h-663v-372h571q47 0 81 -34t34 -80t-34 -79t-81 -33h-571v-385h674q47 -1 81 -33
q33 -32 33 -79t-34 -80t-80 -33h-1149z" />
    <glyph glyph-name="oe" unicode="&#x153;" horiz-adv-x="2129" 
d="M96 535v4q0 233 166 399t406 166q134 0 248 -60t184 -163q70 104 178 163t240 60q240 0 376 -163t136 -370q0 -51 -34 -85t-83 -33h-678q20 -129 105 -202t216 -73t246 94q29 23 68 23q38 0 66 -29q28 -30 28 -74t-33 -73q-160 -143 -387 -144q-139 1 -256 61t-190 167
q-72 -103 -188 -165t-253 -63q-233 0 -397 164t-164 396zM670 193q141 0 229 99t88 243v4q0 145 -92 246t-232 101q-139 0 -229 -100t-90 -243v-4q0 -143 92 -245q93 -101 234 -101zM1518 901q-116 0 -192 -79q-77 -79 -93 -206h557q-14 127 -85 206t-187 79z" />
    <glyph glyph-name="Racute" unicode="&#x154;" horiz-adv-x="1480" 
d="M760 1542q-74 0 -74 43q0 20 16 45l117 180q37 60 93 60t105 -26q48 -26 48 -56t-35 -59l-137 -132q-59 -55 -133 -55zM436 723h369q135 -1 215 65t80 175v4q0 115 -78 176t-219 61h-367v-481zM184 115v1192q0 53 37 90t90 37h512q266 0 414 -144q119 -123 119 -309v-4
q0 -166 -87 -274t-239 -154l275 -346q41 -51 41 -99t-37 -82q-37 -32 -84 -32q-74 0 -123 65l-348 445h-318v-385q0 -53 -36 -89t-89 -36t-90 36t-37 89z" />
    <glyph glyph-name="racute" unicode="&#x155;" horiz-adv-x="845" 
d="M156 113v856q0 53 35 89q37 36 89 36t88 -37t35 -88v-111q45 104 119 171t142 67t102 -34q33 -34 33 -85t-28 -83t-71 -40q-137 -25 -217 -130t-80 -292v-319q-1 -51 -37 -87t-87 -36t-88 36q-35 36 -35 87zM464 1208q-74 0 -75 43q0 20 17 45l116 181q38 59 94 59
t104 -26t48 -56t-35 -59l-137 -131q-58 -56 -132 -56z" />
    <glyph glyph-name="Rcommaaccent" unicode="&#x156;" horiz-adv-x="1480" 
d="M627 -217q0 47 35 78t92 31t93 -40q36 -38 36 -104v-6q0 -145 -88 -221q-74 -68 -177 -68q-53 0 -53 43q0 33 43 43q133 29 129 131q-111 18 -110 109v4zM436 723h369q135 -1 215 65t80 175v4q0 115 -78 176t-219 61h-367v-481zM184 115v1192q0 53 37 90t90 37h512
q266 0 414 -144q119 -123 119 -309v-4q0 -166 -87 -274t-239 -154l275 -346q41 -51 41 -99t-37 -82q-37 -32 -84 -32q-74 0 -123 65l-348 445h-318v-385q0 -53 -36 -89t-89 -36t-90 36t-37 89z" />
    <glyph glyph-name="rcommaaccent" unicode="&#x157;" horiz-adv-x="845" 
d="M156 113v856q0 53 35 89q37 36 89 36t88 -37t35 -88v-111q45 104 119 171t142 67t102 -34q33 -34 33 -85t-28 -83t-71 -40q-137 -25 -217 -130t-80 -292v-319q-1 -51 -37 -87t-87 -36t-88 36q-35 36 -35 87zM166 -227q0 47 35 77t92 31q57 0 93 -39t36 -104v-6
q0 -145 -88 -221q-74 -68 -176 -68q-54 0 -54 39t43 47q133 29 129 131q-111 18 -110 109v4z" />
    <glyph glyph-name="Rcaron" unicode="&#x158;" horiz-adv-x="1480" 
d="M1069 1823q0 -16 -25 -49l-135 -170q-47 -59 -118 -60h-74q-70 0 -119 60l-135 170q-25 33 -25 49q0 41 73 41t138 -56l107 -92l106 92q68 55 152 56q55 0 55 -41zM436 723h369q135 -1 215 65t80 175v4q0 115 -78 176t-219 61h-367v-481zM184 115v1192q0 53 37 90t90 37
h512q266 0 414 -144q119 -123 119 -309v-4q0 -166 -87 -274t-239 -154l275 -346q41 -51 41 -99t-37 -82q-37 -32 -84 -32q-74 0 -123 65l-348 445h-318v-385q0 -53 -36 -89t-89 -36t-90 36t-37 89z" />
    <glyph glyph-name="rcaron" unicode="&#x159;" horiz-adv-x="845" 
d="M156 113v856q0 53 35 89q37 36 89 36t88 -37t35 -88v-111q45 104 119 171t142 67t102 -34q33 -34 33 -85t-28 -83t-71 -40q-137 -25 -217 -130t-80 -292v-319q-1 -51 -37 -87t-87 -36t-88 36q-35 36 -35 87zM719 1530q55 0 55 -41q0 -16 -24 -49l-136 -170
q-47 -59 -118 -60h-74q-70 0 -119 60l-135 170q-25 33 -25 49q0 41 73 41t138 -55l107 -93l106 93q68 55 152 55z" />
    <glyph glyph-name="Sacute" unicode="&#x15a;" horiz-adv-x="1310" 
d="M686 -20q-297 0 -539 180q-49 35 -49 90t35 89t81 34t77 -23q186 -147 401 -147q117 0 186 50t68 130v4q0 80 -65 127t-223 85t-240 69q-190 72 -243 199q-30 71 -30 167v4q-1 184 137 300t372 116t436 -133q55 -31 55 -90t-35 -93t-77 -34t-72 18q-168 109 -330 109
q-105 0 -169 -48t-65 -122v-4q0 -84 69 -130q69 -45 290 -99q222 -54 332 -149t110 -267v-4q0 -199 -141 -314q-142 -114 -371 -114zM672 1563q-74 0 -74 43q0 20 16 45l117 180q37 59 93 59t105 -25q48 -26 48 -56t-35 -60l-137 -131q-59 -55 -133 -55z" />
    <glyph glyph-name="sacute" unicode="&#x15b;" horiz-adv-x="1026" 
d="M526 -20q-223 0 -411 129q-47 25 -47 76t28 81t65 29q36 0 60 -14q156 -104 311 -105q80 0 124 32t44 85v4q0 78 -217 143l-24 9q-250 67 -311 188q-28 55 -27 129v4q0 150 109 240q110 90 280 90t336 -88q59 -31 59 -84q1 -53 -29 -82t-64 -29t-58 12q-144 74 -234 74
t-131 -30t-41 -76v-4q0 -51 64 -86t158 -63t143 -50q139 -61 186 -148q29 -53 29 -122v-5q0 -163 -113 -251t-289 -88zM524 1208q-74 0 -73 43q0 20 16 45l117 181q37 59 93 59t104 -26t48 -56t-34 -59l-138 -131q-59 -56 -133 -56z" />
    <glyph glyph-name="Scedilla" unicode="&#x15e;" horiz-adv-x="1310" 
d="M1198 408q0 -180 -118 -292t-314 -132l-109 -252q-44 -104 -172 -30q-51 30 -51 58t17 50l120 178q-236 29 -424 172q-49 35 -49 90t35 89t81 34t77 -23q186 -147 401 -147q117 0 186 50t68 130v4q0 80 -65 127t-223 85t-240 69q-190 72 -243 199q-30 71 -30 167v4
q-1 184 137 300t372 116t436 -133q55 -31 55 -90t-35 -93t-77 -34t-72 18q-168 109 -330 109q-105 0 -169 -48t-65 -122v-4q0 -84 69 -130q69 -45 290 -99q222 -54 332 -149t110 -267v-4z" />
    <glyph glyph-name="scedilla" unicode="&#x15f;" horiz-adv-x="1026" 
d="M928 319q0 -145 -90 -231t-238 -104l-108 -252q-44 -104 -173 -30q-51 30 -51 58t17 50l123 180q-156 25 -293 119q-47 25 -47 76t28 81t65 29q36 0 60 -14q156 -104 311 -105q80 0 124 32t44 85v4q0 78 -217 143l-24 9q-250 67 -311 188q-28 55 -27 129v4q0 150 109 240
q110 90 280 90t336 -88q59 -31 59 -84q1 -53 -29 -82t-64 -29t-58 12q-144 74 -234 74t-131 -30t-41 -76v-4q0 -51 64 -86t158 -63t143 -50q139 -61 186 -148q29 -53 29 -122v-5z" />
    <glyph glyph-name="Scaron" unicode="&#x160;" horiz-adv-x="1310" 
d="M686 -20q-297 0 -539 180q-49 35 -49 90t35 89t81 34t77 -23q186 -147 401 -147q117 0 186 50t68 130v4q0 80 -65 127t-223 85t-240 69q-190 72 -243 199q-30 71 -30 167v4q-1 184 137 300t372 116t436 -133q55 -31 55 -90t-35 -93t-77 -34t-72 18q-168 109 -330 109
q-105 0 -169 -48t-65 -122v-4q0 -84 69 -130q69 -45 290 -99q222 -54 332 -149t110 -267v-4q0 -199 -141 -314q-142 -114 -371 -114zM926 1884q55 0 55 -41q0 -16 -25 -49l-135 -170q-47 -59 -119 -59h-73q-70 0 -119 59l-135 170q-25 33 -25 49q0 41 73 41t138 -55l107 -92
l106 92q68 55 152 55z" />
    <glyph glyph-name="scaron" unicode="&#x161;" horiz-adv-x="1026" 
d="M526 -20q-223 0 -411 129q-47 25 -47 76t28 81t65 29q36 0 60 -14q156 -104 311 -105q80 0 124 32t44 85v4q0 78 -217 143l-24 9q-250 67 -311 188q-28 55 -27 129v4q0 150 109 240q110 90 280 90t336 -88q59 -31 59 -84q1 -53 -29 -82t-64 -29t-58 12q-144 74 -234 74
t-131 -30t-41 -76v-4q0 -51 64 -86t158 -63t143 -50q139 -61 186 -148q29 -53 29 -122v-5q0 -163 -113 -251t-289 -88zM778 1530q55 0 56 -41q0 -16 -25 -49l-135 -170q-47 -59 -119 -60h-74q-70 0 -119 60l-135 170q-25 33 -24 49q0 41 59 41q86 0 152 -55l106 -93l107 93
q68 55 151 55z" />
    <glyph glyph-name="Tcommaaccent" unicode="&#x162;" horiz-adv-x="1327" 
d="M537 115v1085h-349q-49 0 -83 35t-33 82q0 47 33 82q34 35 83 35h953q47 0 81 -35t34 -82t-34 -82t-81 -35h-350v-1085q0 -51 -37 -88t-90 -37t-91 37q-36 37 -36 88zM535 -227q1 47 35 77t91 31q57 0 93 -39t37 -104v-6q0 -145 -89 -221q-74 -68 -176 -68q-53 0 -53 43
q0 35 43 43q133 29 129 131q-111 18 -110 109v4z" />
    <glyph glyph-name="tcommaaccent" unicode="&#x163;" horiz-adv-x="841" 
d="M754 106q0 -70 -66 -96q-82 -28 -170 -28q-311 0 -311 317v569h-41q-45 0 -76 31t-31 76t31 76t76 30h41v185q0 51 37 87t88 36t87 -36t36 -87v-185h194q45 -1 77 -31t32 -75t-32 -76t-77 -31h-194v-530q0 -135 133 -135l61 6q43 0 74 -30t31 -73zM330 -227q0 47 35 77
t92 31q57 0 93 -39t36 -104v-6q0 -145 -88 -221q-74 -68 -176 -68q-54 0 -54 39t43 47q133 29 129 131q-111 18 -110 109v4z" />
    <glyph glyph-name="Tcaron" unicode="&#x164;" horiz-adv-x="1327" 
d="M537 115v1085h-349q-49 0 -83 35t-33 82q0 47 33 82q34 35 83 35h953q47 0 81 -35t34 -82t-34 -82t-81 -35h-350v-1085q0 -51 -37 -88t-90 -37t-91 37q-36 37 -36 88zM979 1823q0 -16 -25 -49l-135 -170q-47 -59 -119 -60h-73q-70 0 -119 60l-135 170q-25 33 -25 49
q0 41 73 41t138 -56l107 -92l106 92q68 55 152 56q55 0 55 -41z" />
    <glyph glyph-name="tcaron" unicode="&#x165;" horiz-adv-x="841" 
d="M754 106q0 -70 -66 -96q-82 -28 -170 -28q-311 0 -311 317v569h-41q-45 0 -76 31t-31 76t31 76t76 30h41v185q0 51 37 87t88 36t87 -36t36 -87v-185h194q45 -1 77 -31t32 -75t-32 -76t-77 -31h-194v-530q0 -135 133 -135l61 6q43 0 74 -30t31 -73zM758 1597q63 0 63 -59
q0 -23 -8 -47l-76 -248q-16 -51 -59 -51q-25 0 -40 16t-13 45l6 254q2 39 26 65q25 26 64 25h37z" />
    <glyph glyph-name="Umacron" unicode="&#x16a;" horiz-adv-x="1550" 
d="M1047 1575h-545q-37 0 -64 27q-26 28 -26 64t26 63q27 27 64 26h545q37 -1 63 -27t27 -63q-1 -37 -27 -63t-63 -27zM1389 621q0 -313 -164 -479t-451 -165q-288 0 -450 162t-162 469v711q0 53 37 89t89 36t89 -36t37 -89v-701q0 -197 95 -302t266 -105t266 101t96 296
v711q0 53 37 89t89 36t89 -36t37 -89v-698z" />
    <glyph glyph-name="umacron" unicode="&#x16b;" horiz-adv-x="1269" 
d="M899 1241h-545q-38 0 -64 27q-26 28 -26 64t27 63t63 26h545q37 -1 64 -27t27 -63t-28 -63q-26 -26 -63 -27zM1116 969v-856q0 -51 -37 -87t-88 -36t-88 36t-37 87v55q-129 -190 -338 -191q-180 0 -282 113t-103 303v576q0 51 36 88t88 37t88 -37t36 -88v-502
q1 -125 61 -194t170 -69t178 72q68 70 66 195v498q0 51 36 88t88 37t89 -37t37 -88z" />
    <glyph glyph-name="Ubreve" unicode="&#x16c;" horiz-adv-x="1550" 
d="M774 1540q-221 0 -313 164q-38 78 8 126q25 26 69 26t70 -48q53 -94 168 -94t164 94q27 47 71 47q45 1 69 -25t24 -60t-17 -66q-92 -164 -313 -164zM1389 621q0 -313 -164 -479t-451 -165q-288 0 -450 162t-162 469v711q0 53 37 89t89 36t89 -36t37 -89v-701
q0 -197 95 -302t266 -105t266 101t96 296v711q0 53 37 89t89 36t89 -36t37 -89v-698z" />
    <glyph glyph-name="ubreve" unicode="&#x16d;" horiz-adv-x="1269" 
d="M627 1214q-221 0 -314 164q-16 33 -16 67q0 33 25 59q24 26 68 26t71 -47q53 -94 168 -94t164 94q27 47 71 47t68 -26q46 -48 8 -126q-92 -164 -313 -164zM1116 969v-856q0 -51 -37 -87t-88 -36t-88 36t-37 87v55q-129 -190 -338 -191q-180 0 -282 113t-103 303v576
q0 51 36 88t88 37t88 -37t36 -88v-502q1 -125 61 -194t170 -69t178 72q68 70 66 195v498q0 51 36 88t88 37t89 -37t37 -88z" />
    <glyph glyph-name="Uring" unicode="&#x16e;" horiz-adv-x="1550" 
d="M1389 621q0 -313 -164 -479t-451 -165q-288 0 -450 162t-162 469v711q0 53 37 89t89 36t89 -36t37 -89v-701q0 -197 95 -302t266 -105t266 101t96 296v711q0 53 37 89t89 36t89 -36t37 -89v-698zM774 1618q51 0 89 37t38 88v4q0 51 -38 88t-89 37t-89 -37t-38 -88v-4
q0 -51 38 -88t89 -37zM774 1520q-92 0 -163 66t-70 157v4q0 92 70 158q71 65 163 65t163 -66t71 -157v-4q0 -91 -71 -157t-163 -66z" />
    <glyph glyph-name="uring" unicode="&#x16f;" horiz-adv-x="1269" 
d="M1116 969v-856q0 -51 -37 -87t-88 -36t-88 36t-37 87v55q-129 -190 -338 -191q-180 0 -282 113t-103 303v576q0 51 36 88t88 37t88 -37t36 -88v-502q1 -125 61 -194t170 -69t178 72q68 70 66 195v498q0 51 36 88t88 37t89 -37t37 -88zM627 1311q51 0 89 37t38 88v4
q0 51 -38 88t-89 37t-89 -37t-38 -88v-4q0 -51 38 -88t89 -37zM627 1212q-92 0 -163 67t-71 157v4q0 92 71 158t163 65q92 0 163 -66t70 -157v-4q0 -90 -70 -157t-163 -67z" />
    <glyph glyph-name="Uhungarumlaut" unicode="&#x170;" horiz-adv-x="1550" 
d="M574 1542q-72 0 -72 43q0 20 16 45l119 180q35 60 89 60t101 -25t47 -53t-34 -63l-138 -132q-56 -55 -128 -55zM948 1542q-70 0 -71 43q0 20 16 45l119 180q35 60 89 60t101 -25t47 -53t-35 -63l-137 -132q-59 -55 -129 -55zM1389 621q0 -313 -164 -479t-451 -165
q-288 0 -450 162t-162 469v711q0 53 37 89t89 36t89 -36t37 -89v-701q0 -197 95 -302t266 -105t266 101t96 296v711q0 53 37 89t89 36t89 -36t37 -89v-698z" />
    <glyph glyph-name="uhungarumlaut" unicode="&#x171;" horiz-adv-x="1269" 
d="M426 1208q-72 0 -72 43q0 20 17 45l118 181q35 59 89 59t102 -25q47 -25 47 -53t-35 -63l-137 -131q-57 -56 -129 -56zM800 1208q-70 0 -71 43q0 20 16 45l119 181q35 59 89 59q53 0 101 -25t48 -53t-35 -63l-137 -131q-60 -56 -130 -56zM1116 969v-856q0 -51 -37 -87
t-88 -36t-88 36t-37 87v55q-129 -190 -338 -191q-180 0 -282 113t-103 303v576q0 51 36 88t88 37t88 -37t36 -88v-502q1 -125 61 -194t170 -69t178 72q68 70 66 195v498q0 51 36 88t88 37t89 -37t37 -88z" />
    <glyph glyph-name="Uogonek" unicode="&#x172;" horiz-adv-x="1550" 
d="M602 -174q0 80 68 158q-240 28 -374 188t-134 436v711q0 53 37 89t89 36t89 -36t37 -89v-701q0 -197 95 -302t266 -105t266 101t96 296v711q0 53 37 89t89 36t89 -36t37 -89v-698q1 -295 -145 -458t-404 -181q-49 -56 -49 -114t79 -78t78 -66q0 -63 -82 -64
q-108 0 -186 43t-78 123z" />
    <glyph glyph-name="uogonek" unicode="&#x173;" horiz-adv-x="1269" 
d="M1116 969v-863q0 -51 -49 -98q-82 -80 -82 -139t78 -79t78 -66q0 -63 -82 -64q-109 0 -186 42t-77 132t109 189q-16 14 -27 59t-12 78v8q-129 -190 -338 -191q-180 0 -282 113t-103 303v576q0 51 36 88t88 37t88 -37t36 -88v-502q1 -125 61 -194t170 -69t178 72
q68 70 66 195v498q0 51 36 88t88 37t89 -37t37 -88z" />
    <glyph glyph-name="Wcircumflex" unicode="&#x174;" horiz-adv-x="2250" 
d="M86 1334q0 38 38 74t87 36t83 -26t46 -66l330 -985l323 981q35 100 127 100h19q96 0 127 -100l323 -981l330 987q33 90 123 90q51 0 88 -35t37 -72t-13 -65l-423 -1188q-37 -104 -132 -104h-24q-92 0 -129 104l-320 936l-319 -936q-37 -104 -131 -104h-25q-92 0 -131 104
l-424 1188q-10 24 -10 62zM864 1542q-55 0 -55 41q0 16 25 49l135 170q49 59 118 60h74q72 0 119 -60l135 -170q25 -33 25 -49q0 -41 -72 -41t-139 55l-107 93l-106 -93q-66 -55 -152 -55z" />
    <glyph glyph-name="wcircumflex" unicode="&#x175;" horiz-adv-x="1746" 
d="M518 -18q-100 0 -137 110l-291 823q-12 33 -12 72t34 73t87 34q90 0 120 -99l209 -655l211 655q31 98 127 99h15q96 0 127 -99l213 -655l211 657q29 96 120 97q49 0 83 -34t34 -70t-10 -66l-295 -832q-39 -111 -137 -110h-8q-102 0 -136 106l-211 643l-213 -643
q-33 -106 -133 -106h-8zM555 1249q0 16 25 49l135 170q49 59 119 60h73q72 0 119 -60l135 -170q25 -33 25 -49q0 -41 -72 -41t-139 56l-107 92l-106 -92q-66 -55 -152 -56q-55 0 -55 41z" />
    <glyph glyph-name="Ycircumflex" unicode="&#x176;" horiz-adv-x="1425" 
d="M453 1542q-55 0 -56 41q0 16 25 49l135 170q49 59 119 60h74q72 0 118 -60l136 -170q25 -33 24 -49q0 -41 -72 -41t-139 55l-106 93l-107 -93q-66 -55 -151 -55zM588 115v442l-494 678q-28 43 -28 91t36 83q37 35 100 35t113 -76l400 -575l405 577q50 76 112 76t97 -36
t35 -83t-35 -94l-489 -670v-448q0 -53 -37 -89t-90 -36t-89 36t-36 89z" />
    <glyph glyph-name="ycircumflex" unicode="&#x177;" horiz-adv-x="1202" 
d="M287 1249q0 16 24 49l135 170q49 59 119 60h74q72 0 119 -60l135 -170q25 -33 25 -49q0 -41 -72 -41t-139 56l-107 92l-106 -92q-66 -55 -152 -56q-55 0 -55 41zM370 -334q-112 0 -190 31q-78 27 -78 102q0 45 30 74t60 29t69 -11q38 -11 83 -11t79 25q34 26 64 89l9 22
l-402 897q-14 33 -14 72t35 74t88 35q84 0 121 -95l290 -718l271 718q37 94 119 95q50 0 84 -34t34 -73t-10 -69l-395 -949q-70 -167 -152 -235q-83 -68 -195 -68z" />
    <glyph glyph-name="Ydieresis" unicode="&#x178;" horiz-adv-x="1425" 
d="M375 1681q0 55 39 91t95 36t95 -36t39 -91v-14q0 -55 -39 -90t-95 -35t-95 35t-39 90v14zM917 1808q56 0 95 -36t39 -91v-14q0 -55 -39 -90t-95 -35t-96 35q-39 35 -39 90v14q0 55 39 92q40 35 96 35zM588 115v442l-494 678q-28 43 -28 91t36 83q37 35 100 35t113 -76
l400 -575l405 577q50 76 112 76t97 -36t35 -83t-35 -94l-489 -670v-448q0 -53 -37 -89t-90 -36t-89 36t-36 89z" />
    <glyph glyph-name="Zacute" unicode="&#x179;" horiz-adv-x="1437" 
d="M238 0q-45 0 -79 33t-34 78v6q0 63 47 116l807 977h-719q-45 0 -78 33t-32 78q0 45 32 79q33 34 78 34h942q45 0 79 -33t34 -78v-6q0 -59 -45 -117l-809 -977h745q47 0 80 -34q33 -35 33 -79t-33 -77t-80 -33h-968zM738 1542q-74 0 -74 43q0 20 16 45l117 180
q37 60 93 60t104 -26t48 -56t-34 -59l-138 -132q-58 -55 -132 -55z" />
    <glyph glyph-name="zacute" unicode="&#x17a;" horiz-adv-x="1146" 
d="M221 0q-51 0 -86 29t-35 71v4q0 61 56 119l575 656h-510q-43 -1 -73 29t-30 72t30 72t73 29h713q51 1 85 -27t34 -71v-6q0 -59 -54 -119l-577 -655h532q43 0 73 -30t30 -72q0 -41 -30 -71t-73 -30h-733zM584 1208q-74 0 -74 43q0 20 16 45l117 181q37 59 93 59t104 -26
t49 -56q0 -30 -35 -59l-137 -131q-59 -56 -133 -56z" />
    <glyph glyph-name="Zdotaccent" unicode="&#x17b;" horiz-adv-x="1437" 
d="M870 1681v-14q0 -55 -40 -90t-98 -35t-98 35t-40 90v14q0 55 40 91t97 36t98 -36t41 -91zM238 0q-45 0 -79 33t-34 78v6q0 63 47 116l807 977h-719q-45 0 -78 33t-32 78q0 45 32 79q33 34 78 34h942q45 0 79 -33t34 -78v-6q0 -59 -45 -117l-809 -977h745q47 0 80 -34
q33 -35 33 -79t-33 -77t-80 -33h-968z" />
    <glyph glyph-name="zdotaccent" unicode="&#x17c;" horiz-adv-x="1146" 
d="M717 1348v-15q0 -55 -40 -90t-98 -35t-99 35q-40 35 -40 90v15q0 55 40 91t98 36t98 -36q41 -36 41 -91zM221 0q-51 0 -86 29t-35 71v4q0 61 56 119l575 656h-510q-43 -1 -73 29t-30 72t30 72t73 29h713q51 1 85 -27t34 -71v-6q0 -59 -54 -119l-577 -655h532q43 0 73 -30
t30 -72q0 -41 -30 -71t-73 -30h-733z" />
    <glyph glyph-name="Zcaron" unicode="&#x17d;" horiz-adv-x="1437" 
d="M238 0q-45 0 -79 33t-34 78v6q0 63 47 116l807 977h-719q-45 0 -78 33t-32 78q0 45 32 79q33 34 78 34h942q45 0 79 -33t34 -78v-6q0 -59 -45 -117l-809 -977h745q47 0 80 -34q33 -35 33 -79t-33 -77t-80 -33h-968zM694 1544q-70 0 -119 60l-135 170q-25 33 -24 49
q0 41 59 41q86 0 152 -56l106 -92l107 92q68 55 151 56q55 0 56 -41q0 -16 -25 -49l-135 -170q-47 -59 -119 -60h-74z" />
    <glyph glyph-name="zcaron" unicode="&#x17e;" horiz-adv-x="1146" 
d="M221 0q-51 0 -86 29t-35 71v4q0 61 56 119l575 656h-510q-43 -1 -73 29t-30 72t30 72t73 29h713q51 1 85 -27t34 -71v-6q0 -59 -54 -119l-577 -655h532q43 0 73 -30t30 -72q0 -41 -30 -71t-73 -30h-733zM838 1530q55 0 55 -41q0 -16 -25 -49l-135 -170q-47 -59 -119 -60
h-73q-70 0 -119 60l-135 170q-25 33 -25 49q0 41 73 41t138 -55l107 -93l106 93q68 55 152 55z" />
    <glyph glyph-name="florin" unicode="&#x192;" horiz-adv-x="1079" 
d="M840 936q44 0 74 -31t30 -74t-30 -73t-74 -29h-203l-78 -436q-29 -163 -113 -235t-229 -72q-61 0 -97 28t-36 73q0 44 29 74t73 32q106 8 129 137l72 399h-70q-43 0 -73 30q-30 31 -31 73q0 42 31 73t73 31h105l37 192q31 160 113 239q83 79 245 79q55 0 101 -5t72 -35
t26 -72t-30 -72t-73 -29l-49 4q-72 0 -112 -38t-54 -122l-24 -141h166z" />
    <glyph glyph-name="Aringacute" unicode="&#x1fa;" horiz-adv-x="1617" 
d="M553 569h504l-252 580zM809 1454q51 0 89 37t38 88v4q0 51 -38 88t-89 37t-89 -37t-38 -88v-4q0 -51 38 -88t89 -37zM1513 98q-1 -36 -35 -72t-85 -36q-82 0 -123 88l-117 268h-696l-119 -276q-37 -80 -117 -80q-49 0 -84 34t-35 82q0 14 15 54l557 1241q-98 68 -99 178
v4q0 90 71 157q71 66 163 66t163 -66t70 -157v-4q0 -115 -98 -178l555 -1239q14 -28 14 -64zM816 1858q-74 0 -75 43q0 20 17 45l116 180q38 59 94 59q56 1 104 -25t48 -56t-35 -60l-137 -131q-58 -55 -132 -55z" />
    <glyph glyph-name="aringacute" unicode="&#x1fb;" horiz-adv-x="1202" 
d="M602 1313q51 0 89 37t38 88v4q0 51 -38 88t-89 37t-89 -37t-38 -88v-4q0 -51 38 -88t89 -37zM608 1726q-74 0 -73 43q0 20 16 46l117 180q37 59 93 59t104 -26t48 -55q0 -30 -34 -60l-138 -131q-59 -56 -133 -56zM326 322q0 -76 60 -120t168 -44t190 64t81 167v74
q-111 43 -237 43t-195 -48q-68 -48 -67 -132v-4zM602 1214q-92 0 -163 67t-70 157v4q1 92 71 158t162 65q92 0 163 -66t71 -157v-4q0 -90 -71 -157t-163 -67zM467 -23q-159 -1 -271 89t-112 245v4q0 170 121 259q121 90 298 90t318 -46v27q0 115 -68 175q-69 60 -200 60
t-240 -42q-68 -21 -106 16q-37 37 -37 80q0 72 68 98q168 63 348 64q242 0 358 -121q117 -115 117 -334v-532q0 -51 -35 -85t-87 -34t-86 30t-34 74v41q-131 -158 -352 -158z" />
    <glyph glyph-name="AEacute" unicode="&#x1fc;" horiz-adv-x="2140" 
d="M997 569v645h-41l-370 -645h411zM70 90q0 43 20 74l690 1182q49 88 148 88h985q45 0 79 -33t34 -80t-34 -80q-32 -33 -79 -33h-664v-372h572q47 0 80 -34t33 -80t-34 -79q-32 -33 -79 -33h-572v-385h674q47 -1 80 -33t33 -79t-33 -80t-80 -33h-799q-53 0 -90 37t-37 90
v219h-540l-166 -289q-41 -70 -111 -69q-47 0 -79 29q-31 30 -31 73zM1278 1542q-74 0 -74 43q0 20 17 45l116 180q37 60 93 60t105 -26q48 -26 48 -56t-35 -59l-137 -132q-59 -55 -133 -55z" />
    <glyph glyph-name="aeacute" unicode="&#x1fd;" horiz-adv-x="1949" 
d="M84 311v4q0 170 120 259t322 90q145 0 287 -46v27q0 115 -68 175q-67 60 -193 60t-239 -42q-68 -21 -106 16q-37 37 -37 80q0 72 68 98q158 63 344 64q281 0 381 -176q141 184 378 184q160 0 280 -83t174 -201t54 -249q1 -51 -33 -85t-83 -33h-676q20 -129 104 -202
t216 -73t247 94q27 23 66 23q40 0 68 -29q28 -28 28 -72t-35 -75q-161 -143 -405 -143t-402 184q-219 -182 -452 -183q-176 -1 -292 89t-116 245zM532 160q172 0 322 139q-33 82 -41 166q-115 41 -236 41t-187 -48t-64 -132v-4q0 -74 59 -118t147 -44zM1338 901
q-116 0 -192 -79t-93 -206h557q-12 125 -84 205t-188 80zM974 1208q-74 0 -75 43q0 20 16 45l117 181q37 59 93 59q57 0 105 -26t48 -56t-35 -59l-137 -131q-58 -56 -132 -56z" />
    <glyph glyph-name="Oslashacute" unicode="&#x1fe;" horiz-adv-x="1740" 
d="M874 1563q-74 0 -73 43q0 20 16 45l117 180q37 59 93 59t105 -25q48 -26 48 -56t-35 -60l-137 -131q-60 -55 -134 -55zM381 717q0 -162 86 -293l684 715q-125 92 -283 92q-211 -1 -349 -149t-138 -361v-4zM872 203q211 0 350 148q138 148 138 362v4q0 158 -86 293
l-686 -717q124 -90 284 -90zM868 -25q-254 0 -446 138l-98 -99q-31 -34 -74 -34t-68 24q-24 24 -24 60q0 38 35 73l96 101q-168 203 -168 475v4q0 307 213 524t538 217q256 0 447 -139l98 100q35 35 75 35t66 -24t26 -61q0 -38 -36 -73l-96 -100q168 -203 168 -475v-4
q0 -307 -213 -525t-539 -217z" />
    <glyph glyph-name="oslashacute" unicode="&#x1ff;" horiz-adv-x="1345" 
d="M678 1208q-74 0 -74 43q0 20 17 45l116 181q37 59 93 59t105 -26q48 -26 48 -56t-35 -59l-137 -131q-59 -56 -133 -56zM674 186q150 0 242 102t92 247v4q0 98 -47 180l-469 -479q78 -54 182 -54zM338 539q0 -96 45 -181l469 480q-82 55 -182 55q-148 0 -240 -101
t-92 -249v-4zM670 -25q-184 0 -332 99l-59 -62q-37 -37 -74 -37t-61 23q-24 22 -24 58t36 71l59 61q-119 147 -119 347v4q0 237 166 401t412 164q186 0 332 -100l61 63q37 37 74 37t61 -22t23 -56q0 -34 -35 -74l-62 -61q121 -154 121 -348v-4q1 -233 -165 -399t-414 -165z
" />
    <glyph glyph-name="Scommaaccent" unicode="&#x218;" horiz-adv-x="1310" 
d="M686 -20q-297 0 -539 180q-49 35 -49 90t35 89t81 34t77 -23q186 -147 401 -147q117 0 186 50t68 130v4q0 80 -65 127t-223 85t-240 69q-190 72 -243 199q-30 71 -30 167v4q-1 184 137 300t372 116t436 -133q55 -31 55 -90t-35 -93t-77 -34t-72 18q-168 109 -330 109
q-105 0 -169 -48t-65 -122v-4q0 -84 69 -130q69 -45 290 -99q222 -54 332 -149t110 -267v-4q0 -199 -141 -314q-142 -114 -371 -114zM537 -233q1 47 35 77t92 31q58 0 93 -39q36 -39 36 -104v-6q0 -145 -88 -222q-74 -68 -177 -67q-53 0 -53 43q0 33 43 43q133 29 129 131
q-111 18 -110 108v5z" />
    <glyph glyph-name="scommaaccent" unicode="&#x219;" horiz-adv-x="1026" 
d="M526 -20q-223 0 -411 129q-47 25 -47 76t28 81t65 29q36 0 60 -14q156 -104 311 -105q80 0 124 32t44 85v4q0 78 -217 143l-24 9q-250 67 -311 188q-28 55 -27 129v4q0 150 109 240q110 90 280 90t336 -88q59 -31 59 -84q1 -53 -29 -82t-64 -29t-58 12q-144 74 -234 74
t-131 -30t-41 -76v-4q0 -51 64 -86t158 -63t143 -50q139 -61 186 -148q29 -53 29 -122v-5q0 -163 -113 -251t-289 -88zM391 -231v4q0 47 35 77t92 31q57 0 93 -39t36 -104v-6q0 -145 -88 -221q-74 -68 -176 -68q-53 0 -53 43q0 35 43 43q133 29 129 131q-111 18 -111 109z
" />
    <glyph glyph-name="schwa" unicode="&#x259;" horiz-adv-x="1236" 
d="M590 1106q234 0 392 -157t159 -404v-4q0 -236 -150 -400t-379 -164q-164 0 -284 83q-227 157 -230 450q0 51 34 85t83 34h678q-21 129 -105 201t-216 73q-132 0 -246 -94q-29 -23 -67 -23q-39 0 -67 29t-28 72t33 76q159 143 393 143zM612 180q116 0 191 79q76 79 92 206
h-555q12 -125 84 -205t188 -80z" />
    <glyph glyph-name="circumflex" unicode="&#x2c6;" horiz-adv-x="1024" 
d="M197 1249q0 16 24 49l135 170q49 59 119 60h74q72 0 119 -60l135 -170q25 -33 24 -49q1 -41 -71 -41t-140 56l-106 92l-107 -92q-66 -55 -151 -56q-55 0 -55 41z" />
    <glyph glyph-name="caron" unicode="&#x2c7;" horiz-adv-x="1024" 
d="M772 1530q55 0 55 -41q0 -16 -24 -49l-135 -170q-47 -59 -119 -60h-74q-70 0 -119 60l-135 170q-25 33 -24 49q0 41 59 41q86 0 152 -55l106 -93l107 93q68 55 151 55z" />
    <glyph glyph-name="breve" unicode="&#x2d8;" horiz-adv-x="1024" 
d="M512 1214q-221 0 -313 164q-39 79 8 126q25 26 69 26t70 -47q53 -94 168 -94t164 94q27 47 71 47q45 0 69 -26t24 -60t-17 -66q-92 -164 -313 -164z" />
    <glyph glyph-name="dotaccent" unicode="&#x2d9;" horiz-adv-x="1024" 
d="M651 1348v-15q0 -55 -40 -90t-98 -35t-98 35t-40 90v15q0 55 40 91t97 36t98 -36t41 -91z" />
    <glyph glyph-name="ring" unicode="&#x2da;" horiz-adv-x="1024" 
d="M512 1313q51 0 89 37t38 88v4q0 51 -38 88t-89 37t-89 -37t-38 -88v-4q0 -51 38 -88t89 -37zM512 1214q-92 0 -163 67t-70 157v4q1 92 71 158t162 65q92 0 163 -66t70 -157v-4q-1 -90 -71 -157t-162 -67z" />
    <glyph glyph-name="ogonek" unicode="&#x2db;" horiz-adv-x="1024" 
d="M373 -166q0 88 106 191l166 -11q-84 -78 -84 -141t90 -86q68 -16 68 -63q0 -63 -82 -64q-109 0 -187 43t-77 131z" />
    <glyph glyph-name="tilde" unicode="&#x2dc;" horiz-adv-x="1024" 
d="M218 1194q-36 0 -58 20t-23 43q0 23 8 52q35 94 83 140t118 46t170 -41t133 -41q59 0 94 66q27 41 63 41t58 -20t23 -44q0 -22 -8 -51q-35 -94 -83 -140t-118 -46t-170 41t-133 40q-59 1 -94 -65q-27 -41 -63 -41z" />
    <glyph glyph-name="hungarumlaut" unicode="&#x2dd;" horiz-adv-x="1024" 
d="M218 1208q-72 0 -73 43q0 20 17 45l119 181q35 59 89 59t101 -25t47 -53t-35 -63l-137 -131q-56 -56 -128 -56zM592 1208q-70 0 -72 43q0 20 17 45l118 181q35 59 89 59t102 -25q47 -25 47 -53t-35 -63l-137 -131q-59 -56 -129 -56z" />
    <glyph glyph-name="commaaccent" unicode="&#x326;" horiz-adv-x="1024" 
d="M385 -231v4q0 47 35 77t92 31q57 0 93 -39t36 -104v-6q0 -145 -88 -221q-74 -68 -176 -68q-53 0 -53 43q0 35 43 43q133 29 129 131q-111 18 -111 109z" />
    <glyph glyph-name="Wgrave" unicode="&#x1e80;" horiz-adv-x="2250" 
d="M1118 1542q-74 0 -131 55l-139 132q-35 31 -35 61t48 54q49 26 105 26t93 -60l117 -180q18 -29 18 -45q-2 -43 -76 -43zM86 1334q0 38 38 74t87 36t83 -26t46 -66l330 -985l323 981q35 100 127 100h19q96 0 127 -100l323 -981l330 987q33 90 123 90q51 0 88 -35t37 -72
t-13 -65l-423 -1188q-37 -104 -132 -104h-24q-92 0 -129 104l-320 936l-319 -936q-37 -104 -131 -104h-25q-92 0 -131 104l-424 1188q-10 24 -10 62z" />
    <glyph glyph-name="wgrave" unicode="&#x1e81;" horiz-adv-x="1746" 
d="M940 1251q0 -43 -74 -43t-133 56l-139 131q-35 31 -35 61t48 54q49 26 105 26t93 -59l117 -181q18 -27 18 -45zM518 -18q-100 0 -137 110l-291 823q-12 33 -12 72t34 73t87 34q90 0 120 -99l209 -655l211 655q31 98 127 99h15q96 0 127 -99l213 -655l211 657
q29 96 120 97q49 0 83 -34t34 -70t-10 -66l-295 -832q-39 -111 -137 -110h-8q-102 0 -136 106l-211 643l-213 -643q-33 -106 -133 -106h-8z" />
    <glyph glyph-name="Wacute" unicode="&#x1e82;" horiz-adv-x="2250" 
d="M86 1334q0 38 38 74t87 36t83 -26t46 -66l330 -985l323 981q35 100 127 100h19q96 0 127 -100l323 -981l330 987q33 90 123 90q51 0 88 -35t37 -72t-13 -65l-423 -1188q-37 -104 -132 -104h-24q-92 0 -129 104l-320 936l-319 -936q-37 -104 -131 -104h-25q-92 0 -131 104
l-424 1188q-10 24 -10 62zM1130 1542q-74 0 -73 43q0 20 16 45l117 180q37 60 93 60q57 0 105 -26t48 -56t-35 -59l-137 -132q-60 -55 -134 -55z" />
    <glyph glyph-name="wacute" unicode="&#x1e83;" horiz-adv-x="1746" 
d="M518 -18q-100 0 -137 110l-291 823q-12 33 -12 72t34 73t87 34q90 0 120 -99l209 -655l211 655q31 98 127 99h15q96 0 127 -99l213 -655l211 657q29 96 120 97q49 0 83 -34t34 -70t-10 -66l-295 -832q-39 -111 -137 -110h-8q-102 0 -136 106l-211 643l-213 -643
q-33 -106 -133 -106h-8zM876 1208q-74 0 -73 43q0 20 16 45l117 181q37 59 93 59q57 0 105 -26t48 -56t-35 -59l-137 -131q-60 -56 -134 -56z" />
    <glyph glyph-name="Wdieresis" unicode="&#x1e84;" horiz-adv-x="2250" 
d="M86 1334q0 38 38 74t87 36t83 -26t46 -66l330 -985l323 981q35 100 127 100h19q96 0 127 -100l323 -981l330 987q33 90 123 90q51 0 88 -35t37 -72t-13 -65l-423 -1188q-37 -104 -132 -104h-24q-92 0 -129 104l-320 936l-319 -936q-37 -104 -131 -104h-25q-92 0 -131 104
l-424 1188q-10 24 -10 62zM921 1808q56 0 95 -36t39 -91v-14q0 -55 -39 -90t-95 -35t-96 35q-39 35 -39 90v14q0 55 39 92q40 35 96 35zM1194 1681q0 55 39 91t95 36t95 -36t39 -91v-14q0 -55 -39 -90t-95 -35t-95 35t-39 90v14z" />
    <glyph glyph-name="wdieresis" unicode="&#x1e85;" horiz-adv-x="1746" 
d="M518 -18q-100 0 -137 110l-291 823q-12 33 -12 72t34 73t87 34q90 0 120 -99l209 -655l211 655q31 98 127 99h15q96 0 127 -99l213 -655l211 657q29 96 120 97q49 0 83 -34t34 -70t-10 -66l-295 -832q-39 -111 -137 -110h-8q-102 0 -136 106l-211 643l-213 -643
q-33 -106 -133 -106h-8zM667 1475q56 0 95 -36t39 -91v-15q0 -55 -39 -90t-95 -35t-96 35q-39 35 -39 90v15q0 55 39 91q40 36 96 36zM1074 1475q56 0 95 -36t39 -91v-15q0 -55 -39 -90t-95 -35t-95 35t-39 90v15q0 55 39 91t95 36z" />
    <glyph glyph-name="Ygrave" unicode="&#x1ef2;" horiz-adv-x="1425" 
d="M782 1585q0 -43 -74 -43t-133 55l-139 132q-35 31 -35 61q1 30 49 54q48 26 104 26t93 -60l117 -180q18 -29 18 -45zM588 115v442l-494 678q-28 43 -28 91t36 83q37 35 100 35t113 -76l400 -575l405 577q50 76 112 76t97 -36t35 -83t-35 -94l-489 -670v-448
q0 -53 -37 -89t-90 -36t-89 36t-36 89z" />
    <glyph glyph-name="ygrave" unicode="&#x1ef3;" horiz-adv-x="1202" 
d="M596 1208q-74 0 -131 56l-139 131q-35 31 -35 61t48 54q48 26 104 26t94 -59l116 -181q18 -27 19 -45q-2 -43 -76 -43zM370 -334q-112 0 -190 31q-78 27 -78 102q0 45 30 74t60 29t69 -11q38 -11 83 -11t79 25q34 26 64 89l9 22l-402 897q-14 33 -14 72t35 74t88 35
q84 0 121 -95l290 -718l271 718q37 94 119 95q50 0 84 -34t34 -73t-10 -69l-395 -949q-70 -167 -152 -235q-83 -68 -195 -68z" />
    <glyph glyph-name="enspace" unicode="&#x2002;" horiz-adv-x="1024" 
 />
    <glyph glyph-name="emspace" unicode="&#x2003;" horiz-adv-x="2048" 
 />
    <glyph glyph-name="threeperemspace" unicode="&#x2004;" horiz-adv-x="681" 
 />
    <glyph glyph-name="fourperemspace" unicode="&#x2005;" horiz-adv-x="512" 
 />
    <glyph glyph-name="thinspace" unicode="&#x2009;" horiz-adv-x="272" 
 />
    <glyph glyph-name="hairspace" unicode="&#x200a;" horiz-adv-x="153" 
 />
    <glyph glyph-name="endash" unicode="&#x2013;" horiz-adv-x="1081" 
d="M221 510q-47 0 -82 35t-35 83t35 83t82 34h639q47 -1 82 -35t35 -82t-35 -83t-82 -35h-639z" />
    <glyph glyph-name="emdash" unicode="&#x2014;" horiz-adv-x="1839" 
d="M221 510q-47 0 -82 35t-35 83t35 83t82 34h1397q47 -1 82 -35t35 -82t-35 -83t-82 -35h-1397z" />
    <glyph glyph-name="quoteleft" unicode="&#x2018;" horiz-adv-x="550" 
d="M481 1384q0 -41 -49 -55q-145 -45 -139 -182q49 -14 83 -51t34 -88v-17q0 -59 -39 -98t-104 -39t-105 49t-39 131v21q0 201 102 299q84 88 193 88q63 -1 63 -58z" />
    <glyph glyph-name="quoteright" unicode="&#x2019;" horiz-adv-x="550" 
d="M72 913q0 41 47 56q145 45 139 184q-49 12 -83 48t-34 89v17q0 59 39 98t104 39q64 0 104 -49t40 -131v-21q0 -199 -94 -293t-199 -94q-63 0 -63 57z" />
    <glyph glyph-name="quotesinglbase" unicode="&#x201a;" horiz-adv-x="550" 
d="M61 -240q0 45 48 56q145 47 139 184q-49 14 -83 51t-34 88v17q0 59 39 98q38 39 104 39t105 -48t39 -132v-23q0 -195 -101 -299q-92 -88 -192 -88q-64 0 -64 57z" />
    <glyph glyph-name="quotedblleft" unicode="&#x201c;" horiz-adv-x="1026" 
d="M481 1384q0 -41 -49 -55q-145 -45 -139 -182q49 -14 83 -51t34 -88v-17q0 -59 -39 -98t-104 -39t-105 49t-39 131v21q0 201 102 299q84 88 193 88q63 -1 63 -58zM956 1384q0 -41 -49 -55q-145 -45 -139 -182q49 -14 83 -51t34 -88v-17q0 -59 -39 -98t-104 -39
q-64 0 -104 49t-40 131v21q0 199 94 293t199 94q65 -1 65 -58z" />
    <glyph glyph-name="quotedblright" unicode="&#x201d;" horiz-adv-x="1026" 
d="M545 913q0 41 49 56q145 45 139 184q-49 12 -83 48t-34 89v17q0 59 39 98t104 39t105 -49t39 -131v-21q0 -201 -102 -299q-84 -88 -193 -88q-63 0 -63 57zM72 913q0 41 47 56q145 45 139 184q-49 12 -83 48t-34 89v17q0 59 39 98t104 39q64 0 104 -49t40 -131v-21
q0 -199 -94 -293t-199 -94q-63 0 -63 57z" />
    <glyph glyph-name="quotedblbase" unicode="&#x201e;" horiz-adv-x="1026" 
d="M535 -240q0 45 49 56q145 47 139 184q-49 14 -83 51t-34 88v17q0 59 39 98t103 39t105 -49q40 -49 40 -131v-23q0 -197 -95 -292t-200 -95q-63 0 -63 57zM61 -240q0 45 48 56q145 47 139 184q-49 14 -83 51t-34 88v17q0 59 39 98q38 39 104 39t105 -48t39 -132v-23
q0 -195 -101 -299q-92 -88 -192 -88q-64 0 -64 57z" />
    <glyph glyph-name="dagger" unicode="&#x2020;" horiz-adv-x="839" 
d="M104 1105q0 30 22 50t52 19l184 -15l-18 201q-2 36 21 60t55 24t56 -24q22 -24 20 -60l-17 -201l183 15q30 2 52 -18t22 -50q0 -31 -22 -51t-55 -19l-182 15l15 -496q2 -33 -20 -55t-52 -23t-52 21t-20 55l17 498l-185 -15q-32 -2 -54 18t-22 51z" />
    <glyph glyph-name="daggerdbl" unicode="&#x2021;" horiz-adv-x="880" 
d="M440 1444q32 0 56 -24q23 -24 20 -60l-16 -201l182 15q30 2 52 -18t22 -50q0 -31 -22 -51t-54 -19l-182 15l16 -334l-16 -334l182 14q32 2 54 -18t22 -51t-22 -50t-52 -18l-182 14l16 -200q2 -37 -20 -61q-22 -23 -56 -23q-33 0 -55 24t-20 60l18 200l-184 -14
q-31 -2 -53 18t-22 51q0 30 22 50t55 18l182 -14l-16 334l16 334l-182 -15q-33 -2 -55 18t-22 51q0 30 22 50t53 19l184 -15l-18 201q-1 36 21 60t54 24z" />
    <glyph glyph-name="bullet" unicode="&#x2022;" horiz-adv-x="1005" 
d="M503 432q-120 0 -205 84t-85 203v4q0 119 86 204t204 85t204 -85t86 -204v-4q0 -119 -85 -203t-205 -84z" />
    <glyph glyph-name="ellipsis" unicode="&#x2026;" horiz-adv-x="1622" 
d="M131 152q0 61 40 101t101 40q62 0 102 -40t40 -101v-21q0 -61 -40 -101t-102 -40t-101 40q-40 40 -40 101v21zM670 152q0 61 40 101t101 40t101 -40t40 -101v-21q0 -61 -40 -101t-101 -40t-101 40t-40 101v21zM1208 152q0 61 40 101t102 40t101 -40q40 -40 40 -101v-21
q0 -61 -40 -101t-101 -40t-102 40q-40 40 -40 101v21z" />
    <glyph glyph-name="perthousand" unicode="&#x2030;" horiz-adv-x="2514" 
d="M1147 350q0 -88 45 -148t114 -61q68 -1 110 59t42 146v4q0 88 -45 148t-114 61q-69 0 -111 -59t-41 -146v-4zM1923 350q0 -88 45 -148t114 -61q68 -1 110 59t42 146v4q0 88 -45 148t-113 61q-68 0 -111 -59q-42 -59 -42 -146v-4zM281 1083q1 -89 45 -149t113 -60t111 60
t42 145v4q0 89 -45 149t-114 60t-111 -59t-41 -146v-4zM1302 -16q-148 0 -243 105q-94 105 -94 257v4q0 154 95 260q96 106 244 106t242 -104q94 -106 94 -258v-4q0 -152 -95 -259t-243 -107zM2417 350q0 -152 -95 -259q-96 -107 -244 -107t-243 105q-94 105 -94 257v4
q0 154 95 260q96 106 244 106t242 -104q94 -106 95 -258v-4zM401 -10q-41 0 -63 24t-23 53q0 30 19 56l940 1284q20 37 62 37t66 -24q48 -48 5 -109l-940 -1284q-25 -37 -66 -37zM436 717q-148 0 -243 105q-94 105 -95 257v4q0 154 96 260q96 107 244 107q150 0 243 -105
t93 -258v-4q0 -154 -95 -260t-243 -106z" />
    <glyph glyph-name="guilsinglleft" unicode="&#x2039;" horiz-adv-x="724" 
d="M588 185q0 -39 -30 -69t-78 -30t-81 43l-264 340q-29 39 -29 74t29 69l258 334q39 49 87 49q48 -1 77 -31t29 -68t-27 -73l-217 -280l221 -287q25 -31 25 -71z" />
    <glyph glyph-name="guilsinglright" unicode="&#x203a;" horiz-adv-x="724" 
d="M244 995q47 0 82 -45l264 -338q31 -40 31 -72t-31 -73l-258 -332q-35 -49 -85 -49t-79 30t-29 70t29 72l215 279l-219 286q-27 33 -26 73t30 70t76 29z" />
    <glyph glyph-name="fraction" unicode="&#x2044;" horiz-adv-x="940" 
d="M26 -211q-52 -1 -80 27t-28 61t14 62l859 1572q27 51 78 51t79 -27q28 -28 29 -61q0 -33 -14 -61l-859 -1573q-27 -51 -78 -51z" />
    <glyph glyph-name="Euro" unicode="&#x20ac;" horiz-adv-x="1474" 
d="M1256 397q50 -1 84 -33q32 -32 32 -76t-24 -73q-184 -240 -459 -240q-223 0 -379 131t-215 355h-111q-36 -1 -62 25t-26 62t26 62t62 27h80q-2 25 -2 83t4 89h-82q-36 0 -62 26q-26 25 -26 61t26 62t62 25h115q61 213 215 344t367 131q274 0 454 -209q33 -33 33 -83
t-36 -85t-88 -35t-85 41q-121 145 -285 146q-108 0 -190 -67t-125 -183h365q34 0 60 -26q26 -25 26 -61t-26 -62t-60 -25h-404q-4 -29 -4 -87t2 -85h406q34 0 60 -27q26 -26 26 -62t-26 -62t-60 -25h-369q43 -125 129 -193t207 -67q156 0 280 155q35 41 85 41z" />
    <glyph glyph-name="published" unicode="&#x2117;" horiz-adv-x="1699" 
d="M737 721h150q74 0 117 36t43 95v4q0 61 -42 95t-118 34h-150v-264zM586 408v636q0 31 22 54q23 23 54 22h237q137 0 219 -70t82 -192v-4q0 -127 -91 -197t-226 -69h-146v-180q-1 -33 -23 -55q-22 -21 -52 -21t-54 21q-22 22 -22 55zM186 713q0 -276 190 -470t473 -194
q282 0 473 196t191 472v4q0 276 -190 470q-190 193 -472 193t-473 -196t-192 -471v-4zM848 -25q-309 0 -524 216t-215 522v4q0 305 217 523t526 218t524 -216t215 -521v-4q0 -305 -217 -523t-526 -219z" />
    <glyph glyph-name="servicemark" unicode="&#x2120;" horiz-adv-x="1443" 
d="M68 914q0 24 15 39q33 33 73 3q96 -68 194 -67q57 1 90 23t33 58t-32 56t-134 45t-159 64q-56 39 -56 118v2q0 83 65 137t177 54t203 -60q31 -18 31 -45t-16 -42t-36 -15t-35 10q-80 49 -145 49q-65 1 -96 -21t-31 -56t33 -56q33 -20 133 -43t157 -65q58 -42 58 -125
q0 -82 -69 -134t-193 -52t-234 79q-26 20 -26 44zM729 850v530q0 25 17 42t42 18h15q35 0 53 -31l191 -303l192 303q18 31 51 31h15q25 0 41 -18t16 -42v-530q0 -25 -16 -41t-41 -16t-41 16t-17 41v369l-151 -230q-20 -31 -50 -31t-53 31l-147 228v-367q0 -25 -18 -41
t-41 -16q-24 0 -41 16t-17 41z" />
    <glyph glyph-name="trademark" unicode="&#x2122;" horiz-adv-x="1413" 
d="M698 850v530q0 25 18 42t42 18h14q37 0 55 -31l189 -303l192 303q18 31 54 31h14q23 0 40 -18t17 -42v-530q0 -25 -17 -41t-41 -16t-41 16t-17 41v369l-150 -230q-20 -31 -50 -31t-52 31l-150 228v-367q0 -25 -17 -41t-41 -16q-23 0 -41 16t-18 41zM248 852v471h-152
q-20 0 -37 16q-16 16 -16 39t15 39t38 17h424q23 0 38 -16t15 -40q0 -23 -16 -39t-37 -16h-151v-471q1 -25 -17 -42t-44 -17t-43 17t-17 42z" />
    <glyph glyph-name="minus" unicode="&#x2212;" horiz-adv-x="1298" 
d="M1053 604h-809q-47 0 -81 34t-34 82t34 82t81 34h809q49 0 83 -34t34 -82t-34 -82t-83 -34z" />
    <glyph glyph-name="Q.alt" horiz-adv-x="1740" 
d="M1356 713v4q0 213 -138 361t-350 148t-347 -146q-136 -146 -136 -359v-4q0 -213 138 -361t349 -147q211 0 348 145q136 146 136 359zM1620 717q0 -317 -223 -535l153 -155q54 -57 54 -113t-41 -94q-41 -39 -105 -39t-121 65l-176 185q-139 -55 -293 -56q-326 0 -536 215
t-211 523v4q0 307 213 524q212 217 538 217t537 -215t211 -522v-4z" />
    <glyph glyph-name="a.alt" 
d="M661 889q-131 0 -221 -94t-90 -252v-4q0 -154 91 -250t221 -96t221 97q92 97 92 249v4q0 152 -92 249t-222 97zM971 971q0 51 36 87t88 36t88 -37t36 -88v-856q0 -51 -36 -87t-88 -36t-88 36t-36 87v67q-143 -203 -357 -203t-364 153t-150 409v4q0 257 148 409t364 152
q214 0 359 -191v58z" />
    <glyph glyph-name="aacute.alt" 
d="M661 889q-131 0 -221 -94t-90 -252v-4q0 -154 91 -250t221 -96t221 97q92 97 92 249v4q0 152 -92 249t-222 97zM971 971q0 51 36 87t88 36t88 -37t36 -88v-856q0 -51 -36 -87t-88 -36t-88 36t-36 87v67q-143 -203 -357 -203t-364 153t-150 409v4q0 257 148 409t364 152
q214 0 359 -191v58zM704 1208q-74 0 -73 43q0 20 16 45l117 181q37 59 93 59q57 0 105 -26t48 -56t-35 -59l-137 -131q-60 -56 -134 -56z" />
    <glyph glyph-name="abreve.alt" 
d="M698 1214q-221 0 -313 164q-16 33 -16 67q1 33 25 59t68 26t70 -47q53 -94 168 -94t164 94q27 47 71 47t69 -26q46 -48 8 -126q-93 -164 -314 -164zM661 889q-131 0 -221 -94t-90 -252v-4q0 -154 91 -250t221 -96t221 97q92 97 92 249v4q0 152 -92 249t-222 97zM971 971
q0 51 36 87t88 36t88 -37t36 -88v-856q0 -51 -36 -87t-88 -36t-88 36t-36 87v67q-143 -203 -357 -203t-364 153t-150 409v4q0 257 148 409t364 152q214 0 359 -191v58z" />
    <glyph glyph-name="acircumflex.alt" 
d="M661 889q-131 0 -221 -94t-90 -252v-4q0 -154 91 -250t221 -96t221 97q92 97 92 249v4q0 152 -92 249t-222 97zM971 971q0 51 36 87t88 36t88 -37t36 -88v-856q0 -51 -36 -87t-88 -36t-88 36t-36 87v67q-143 -203 -357 -203t-364 153t-150 409v4q0 257 148 409t364 152
q214 0 359 -191v58zM383 1249q0 16 25 49l135 170q49 59 119 60h73q72 0 119 -60l135 -170q25 -33 25 -49q0 -41 -72 -41t-139 56l-107 92l-106 -92q-66 -55 -152 -56q-55 0 -55 41z" />
    <glyph glyph-name="adieresis.alt" 
d="M661 889q-131 0 -221 -94t-90 -252v-4q0 -154 91 -250t221 -96t221 97q92 97 92 249v4q0 152 -92 249t-222 97zM971 971q0 51 36 87t88 36t88 -37t36 -88v-856q0 -51 -36 -87t-88 -36t-88 36t-36 87v67q-143 -203 -357 -203t-364 153t-150 409v4q0 257 148 409t364 152
q214 0 359 -191v58zM495 1475q56 0 95 -36t39 -91v-15q0 -55 -39 -90t-95 -35t-96 35q-39 35 -39 90v15q0 55 39 91q40 36 96 36zM902 1475q56 0 95 -36t39 -91v-15q0 -55 -39 -90t-95 -35t-95 35t-39 90v15q0 55 39 91t95 36z" />
    <glyph glyph-name="agrave.alt" 
d="M768 1251q0 -43 -74 -43t-133 56l-139 131q-35 31 -35 61t48 54q49 26 105 26t93 -59l117 -181q18 -27 18 -45zM661 889q-131 0 -221 -94t-90 -252v-4q0 -154 91 -250t221 -96t221 97q92 97 92 249v4q0 152 -92 249t-222 97zM971 971q0 51 36 87t88 36t88 -37t36 -88
v-856q0 -51 -36 -87t-88 -36t-88 36t-36 87v67q-143 -203 -357 -203t-364 153t-150 409v4q0 257 148 409t364 152q214 0 359 -191v58z" />
    <glyph glyph-name="amacron.alt" 
d="M971 1241h-545q-37 0 -64 27q-26 28 -26 64t26 63q27 27 64 26h545q37 -1 63 -27t27 -63q-1 -37 -27 -63t-63 -27zM661 889q-131 0 -221 -94t-90 -252v-4q0 -154 91 -250t221 -96t221 97q92 97 92 249v4q0 152 -92 249t-222 97zM971 971q0 51 36 87t88 36t88 -37t36 -88
v-856q0 -51 -36 -87t-88 -36t-88 36t-36 87v67q-143 -203 -357 -203t-364 153t-150 409v4q0 257 148 409t364 152q214 0 359 -191v58z" />
    <glyph glyph-name="aogonek.alt" 
d="M971 971q0 51 36 87t88 36t88 -37t36 -88v-863q0 -55 -50 -98q-80 -78 -79 -139q0 -61 86 -82q68 -16 67 -63q0 -63 -80 -64q-111 0 -187 42t-75 134q0 92 109 187q-16 14 -28 64q-11 50 -11 83v10q-143 -203 -357 -203t-364 153t-150 409v4q0 257 148 409t364 152
q214 0 359 -191v58zM661 889q-131 0 -221 -94t-90 -252v-4q0 -154 91 -250t221 -96t221 97q92 97 92 249v4q0 152 -92 249t-222 97z" />
    <glyph glyph-name="aring.alt" 
d="M661 889q-131 0 -221 -94t-90 -252v-4q0 -154 91 -250t221 -96t221 97q92 97 92 249v4q0 152 -92 249t-222 97zM971 971q0 51 36 87t88 36t88 -37t36 -88v-856q0 -51 -36 -87t-88 -36t-88 36t-36 87v67q-143 -203 -357 -203t-364 153t-150 409v4q0 257 148 409t364 152
q214 0 359 -191v58zM698 1313q51 0 89 37t38 88v4q0 51 -38 88t-89 37t-89 -37t-38 -88v-4q0 -51 38 -88t89 -37zM698 1214q-92 0 -162 67t-71 157v4q0 92 71 158q70 66 162 65q92 0 163 -66t71 -157v-4q0 -90 -71 -157t-163 -67z" />
    <glyph glyph-name="aring.alt2" horiz-adv-x="1202" 
d="M604 1098q51 0 89 37t38 88v4q0 51 -38 88t-89 37t-89 -37t-38 -88v-4q0 -51 38 -88t89 -37zM326 322q0 -76 60 -120t168 -44t190 64t81 167v74q-111 43 -237 43t-195 -48q-68 -48 -67 -132v-4zM467 -23q-159 -1 -271 89t-112 245v4q0 170 121 259q121 90 298 90t318 -46
v27q0 115 -68 175q-69 60 -200 60t-240 -42q-68 -21 -106 16q-37 37 -37 80q0 72 68 98q98 37 186 51q-53 59 -53 140v4q-1 91 69 157t163 66t164 -67t71 -156v-4q0 -88 -70 -152q111 -29 176 -96q117 -115 117 -334v-532q0 -51 -35 -85t-87 -34t-86 30t-34 74v41
q-131 -158 -352 -158z" />
    <glyph glyph-name="aringacute.alt" 
d="M661 889q-131 0 -221 -94t-90 -252v-4q0 -154 91 -250t221 -96t221 97q92 97 92 249v4q0 152 -92 249t-222 97zM971 971q0 51 36 87t88 36t88 -37t36 -88v-856q0 -51 -36 -87t-88 -36t-88 36t-36 87v67q-143 -203 -357 -203t-364 153t-150 409v4q0 257 148 409t364 152
q214 0 359 -191v58zM698 1313q51 0 89 37t38 88v4q0 51 -38 88t-89 37t-89 -37t-38 -88v-4q0 -51 38 -88t89 -37zM698 1214q-92 0 -162 67t-71 157v4q0 92 71 158q70 66 162 65q92 0 163 -66t71 -157v-4q0 -90 -71 -157t-163 -67zM704 1726q-74 0 -73 43q0 20 16 46l117 180
q37 59 93 59t105 -25q48 -26 48 -56t-35 -60l-137 -131q-60 -56 -134 -56z" />
    <glyph glyph-name="aringacute.alt2" horiz-adv-x="1202" 
d="M608 1511q-74 0 -73 43q0 20 16 45l117 181q37 59 93 59q56 1 104 -25t48 -56t-34 -60l-138 -131q-59 -56 -133 -56zM604 1098q51 0 89 37t38 88v4q0 51 -38 88t-89 37t-89 -37t-38 -88v-4q0 -51 38 -88t89 -37zM326 322q0 -76 60 -120t168 -44t190 64t81 167v74
q-111 43 -237 43t-195 -48q-68 -48 -67 -132v-4zM467 -23q-159 -1 -271 89t-112 245v4q0 170 121 259q121 90 298 90t318 -46v27q0 115 -68 175q-69 60 -200 60t-240 -42q-68 -21 -106 16q-37 37 -37 80q0 72 68 98q98 37 186 51q-53 59 -53 140v4q-1 91 69 157t163 66
t164 -67t71 -156v-4q0 -88 -70 -152q111 -29 176 -96q117 -115 117 -334v-532q0 -51 -35 -85t-87 -34t-86 30t-34 74v41q-131 -158 -352 -158z" />
    <glyph glyph-name="atilde.alt" 
d="M412 1194q-36 0 -58 20t-22 43t8 52q35 94 83 140q47 46 117 46t170 -41t134 -41q59 0 94 66q27 41 63 41q37 0 59 -20t22 -44q0 -22 -9 -51q-35 -94 -83 -140t-118 -46t-170 41t-133 40q-59 1 -94 -65q-27 -41 -63 -41zM661 889q-131 0 -221 -94t-90 -252v-4
q0 -154 91 -250t221 -96t221 97q92 97 92 249v4q0 152 -92 249t-222 97zM971 971q0 51 36 87t88 36t88 -37t36 -88v-856q0 -51 -36 -87t-88 -36t-88 36t-36 87v67q-143 -203 -357 -203t-364 153t-150 409v4q0 257 148 409t364 152q214 0 359 -191v58z" />
    <glyph glyph-name="three.alt" horiz-adv-x="1249" 
d="M637 -25q-281 0 -481 179q-47 39 -47 92t34 87q35 34 82 34t80 -29q145 -135 336 -135q119 0 187 56t69 153v4q0 96 -83 148t-232 52h-60q-43 0 -75 32t-31 75q0 43 31 75q32 32 75 31h66q122 1 196 57t74 148v4q0 86 -66 140q-67 53 -182 53q-152 0 -278 -131
q-35 -35 -82 -35t-81 34t-34 82t35 83q178 195 444 194q221 0 358 -107q136 -108 136 -276v-4q0 -231 -213 -336q252 -96 252 -323v-4q0 -188 -138 -311q-139 -122 -372 -122z" />
    <glyph glyph-name="registered.alt" horiz-adv-x="1699" 
d="M698 748h193q72 0 113 32t40 88v4q0 57 -40 90q-41 32 -113 31h-193v-245zM551 412v641q-1 31 21 53t53 20h272q154 0 236 -82q63 -63 63 -163v-4q0 -174 -172 -232l147 -184q21 -20 21 -50t-20 -52q-20 -21 -54 -21q-33 0 -59 35l-195 245h-166v-206q0 -31 -22 -53
q-22 -21 -52 -21t-52 21q-21 22 -21 53zM186 713q0 -276 190 -470t473 -194q282 0 473 196t191 472v4q0 276 -190 470q-190 193 -472 193t-473 -196t-192 -471v-4zM848 -25q-309 0 -524 216t-215 522v4q0 305 217 523t526 218t524 -216t215 -521v-4q0 -305 -217 -523
t-526 -219z" />
    <glyph glyph-name="NUL" horiz-adv-x="0" 
 />
    <glyph glyph-name="hfjslug" horiz-adv-x="1421" 
d="M872 580q-33 0 -32 34q0 12 9 24t23 11q14 0 24 -11t9 -24q0 -34 -33 -34zM997 612h-22v35h22q20 0 21 -16q-1 -19 -21 -19zM659 823q-33 0 -33 45t33 78l41 -80q-16 -43 -41 -43zM645 1056q0 30 29 29q27 -1 27 -35t-31 -69q-25 45 -25 75zM494 662l28 -97h17l22 70h2
l23 -70h16l29 97h-17l-20 -72h-2l-23 72h-14l-23 -72h-2l-20 72h-16zM270 662v-95h17v66l51 -66h14v95h-16v-66l-51 66h-15zM395 662v-95h70v15h-53v26h47v15h-47v24h53v15h-70zM750 567h16v35l37 60h-19l-26 -46l-27 46h-18l37 -60v-35zM872 565q20 1 34 15q33 33 1 68
q-15 16 -35 16t-34 -16t-14 -34q0 -20 14 -34t34 -15zM1034 631q0 31 -35 31h-41v-95h17v31h24l21 -31h18l-24 35q20 8 20 29zM1071 662v-95h16v25l17 16l31 -41h20l-41 54l37 41h-21l-40 -50h-3v50h-16zM729 1047q0 63 -55 63q-25 0 -41 -18q-35 -39 12 -125
q-47 -37 -47 -83q0 -91 59 -89q39 0 60 49h2l24 -49l25 12l-35 65q13 29 27 80l-27 6q-8 -37 -16 -61h-2l-33 64q47 43 47 86zM985 799q63 0 64 73v281h-33v-281q0 -45 -33 -45q-16 0 -41 11v-31q20 -8 43 -8zM377 1153v-352h31v162h96v-162h31v352h-31v-162h-96v162h-31z
M819 1153v-352h31v160h78v28h-78v135h88v29h-119zM1319 -410h-426l-16 29h-334l-17 -29h-424v621q29 0 48 19q18 19 18 46q0 26 -20 46t-46 20v1135h205l62 161h684l59 -161h207v-1887z" />
    <glyph glyph-name="i.dot" horiz-adv-x="585" 
d="M170 113v856q0 53 36 89t87 36t88 -37t37 -88v-856q0 -51 -36 -87t-88 -36t-88 36t-36 87zM152 1360v12q0 55 39 88t101 33t102 -33t40 -88v-12q0 -55 -40 -89t-101 -34t-102 34q-39 34 -39 89z" />
    <glyph glyph-name="caron.alt" horiz-adv-x="1024" 
d="M553 1499q63 0 63 -59q0 -23 -8 -47l-76 -248q-16 -51 -59 -51q-25 0 -40 16t-13 45l6 254q2 39 27 65t63 25h37z" />
    </font>
</defs>
</svg>
