<?xml version="1.0" standalone="no"?>
<!DOCTYPE svg PUBLIC "-//W3C//DTD SVG 1.1//EN" "http://www.w3.org/Graphics/SVG/1.1/DTD/svg11.dtd" >
<svg xmlns="http://www.w3.org/2000/svg">
<metadata>
Created by FontPrep 20130207 at Wed Oct  8 12:32:46 2014
 By Davo
2000 Albert-Jan Pool, published by Fontshop International for the FontFont library.
</metadata>
<defs>
<font id="54bc58aaaf4d87e858b892df39ecdecb" horiz-adv-x='1024' >
  <font-face 
    font-family="DINCond-Medium"
    font-weight="500"
    font-stretch="normal"
    units-per-em="2048"
    panose-1="0 0 0 0 0 0 0 0 0 0"
    ascent="1638"
    descent="-410"
    x-height="1061"
    cap-height="1458"
    bbox="-207 -410 1882.01 1944"
    underline-thickness="102"
    underline-position="-153"
    unicode-range="U+0020-FB02"
  />
<missing-glyph horiz-adv-x="2048" 
 />
    <glyph glyph-name=".notdef" horiz-adv-x="2048" 
 />
    <glyph glyph-name=".null" horiz-adv-x="0" 
 />
    <glyph glyph-name="nonmarkingreturn" horiz-adv-x="681" 
 />
    <glyph glyph-name="space" unicode=" " horiz-adv-x="382" 
 />
    <glyph glyph-name="exclam" unicode="!" horiz-adv-x="495" 
d="M375 0h-203v203h203v-203zM356 395h-166v1063h166v-1063z" />
    <glyph glyph-name="quotedbl" unicode="&#x22;" horiz-adv-x="808" 
d="M307 1065h-170v393h170v-393zM670 1065h-170v393h170v-393z" />
    <glyph glyph-name="numbersign" unicode="#" horiz-adv-x="1134" 
d="M694 893h-215l-39 -297h213zM971 596v-156h-172l-60 -440h-168l60 440h-215l-60 -440h-168l60 440h-144v156h168l39 297h-147l-2 156h172l55 409h170l-55 -409h213l55 409h170l-57 -409h143l2 -156h-168l-39 -297h148z" />
    <glyph glyph-name="dollar" unicode="$" horiz-adv-x="888" 
d="M264 1094q0 -96 20 -141t81 -76v426q-101 -42 -101 -209zM625 371q0 127 -21 179q-20 52 -82 85v-479q103 35 103 215zM801 368q0 -344 -279 -378v-223h-157v221q-127 16 -187 76t-80 129q-20 70 -20 188h176q0 -139 49 -191q20 -25 62 -36v536l-78 33q-113 49 -156 125
t-43 257t111 281q68 61 166 80v185h157v-185q113 -16 178 -80q96 -94 97 -299h-176q0 174 -99 216v-482l74 -30q121 -51 163 -137q42 -84 42 -286z" />
    <glyph glyph-name="percent" unicode="%" horiz-adv-x="1382" 
d="M426 938v309q0 104 -92 105q-90 0 -90 -105v-309q0 -104 91 -104t91 104zM1139 211v309q0 104 -92 105q-92 0 -93 -105v-309q0 -104 93 -105q92 1 92 105zM1012 1458l-508 -1458h-133l508 1458h133zM565 934q0 -104 -65 -165q-66 -60 -166 -60t-165 60t-65 165v315
q0 105 65 165t165 60t166 -60t65 -165v-315zM1278 209q0 -105 -66 -165t-166 -60t-165 60q-66 60 -66 165v315q0 104 66 164t166 62q99 0 165 -60t66 -166v-315z" />
    <glyph glyph-name="ampersand" unicode="&#x26;" horiz-adv-x="1007" 
d="M553 1168q0 74 -36 114q-36 41 -95 41t-93 -45t-34 -111q0 -92 123 -262q72 73 104 131t31 132zM233 360q-1 -98 51 -161t150 -63t207 145l-250 383q-158 -158 -158 -304zM408 -16q-145 0 -240 98q-94 98 -94 264q0 125 56 229t179 222q-96 133 -132 207t-36 159
q0 139 77 225t209 85q132 0 206 -81t74 -207q-1 -126 -49 -216t-156 -197l223 -338q63 121 78 307h147q-16 -262 -133 -452l184 -289h-178l-98 150q-71 -84 -143 -125t-174 -41z" />
    <glyph glyph-name="quotesingle" unicode="'" horiz-adv-x="446" 
d="M309 1065h-172v393h172v-393z" />
    <glyph glyph-name="parenleft" unicode="(" horiz-adv-x="499" 
d="M109 209v1040q0 141 41 215t153 187l113 -113q-88 -88 -115 -140t-27 -161v-1016q0 -109 27 -161t115 -140l-113 -113q-113 113 -153 187t-41 215z" />
    <glyph glyph-name="parenright" unicode=")" horiz-adv-x="499" 
d="M391 209q0 -141 -41 -215t-153 -187l-113 113q88 88 115 140t26 161v1016q-1 109 -27 161t-114 140l113 113q113 -113 153 -187t41 -215v-1040z" />
    <glyph glyph-name="asterisk" unicode="*" horiz-adv-x="804" 
d="M709 1008l-62 -107l-188 115l6 -258h-125l8 258l-190 -115l-62 107l195 104l-195 102l62 109l190 -117l-8 258h125l-6 -258l188 117l62 -109l-197 -102z" />
    <glyph glyph-name="plus" unicode="+" horiz-adv-x="909" 
d="M815 500h-280v-281h-158v281h-283v157h283v283h158v-283h280v-157z" />
    <glyph glyph-name="comma" unicode="," horiz-adv-x="423" 
d="M117 205h188v-320l-188 -139v459z" />
    <glyph glyph-name="hyphen" unicode="-" horiz-adv-x="610" 
d="M506 500h-402v157h402v-157z" />
    <glyph glyph-name="period" unicode="." horiz-adv-x="442" 
d="M324 0h-203v203h203v-203z" />
    <glyph glyph-name="slash" unicode="/" horiz-adv-x="557" 
d="M549 1610l-379 -1762h-162l379 1762h162z" />
    <glyph glyph-name="zero" unicode="0" horiz-adv-x="780" 
d="M516 281v897q0 72 -36 110t-91 37q-55 0 -90 -38t-35 -109v-897q0 -72 35 -110t90 -38t91 38t36 110zM682 287q0 -143 -82 -226q-82 -77 -210 -77t-210 77q-82 82 -82 226v884q0 143 82 226q82 78 210 78t210 -80t82 -224v-884z" />
    <glyph glyph-name="one" unicode="1" horiz-adv-x="780" 
d="M516 0h-166v1264l-213 -174v192l213 176h166v-1458z" />
    <glyph glyph-name="two" unicode="2" horiz-adv-x="780" 
d="M688 0h-588v139l357 756q66 143 65 283q0 72 -35 110t-90 37q-55 0 -91 -38t-36 -109v-99h-166v95q0 141 82 221t210 80t210 -78t82 -227t-84 -328l-325 -692h409v-150z" />
    <glyph glyph-name="three" unicode="3" horiz-adv-x="780" 
d="M684 400q0 -133 -16 -207t-74 -132q-78 -77 -207 -77t-211 77q-84 84 -84 224v94h166v-98q0 -72 36 -110t92 -38t94 45t38 240t-43 248q-31 41 -90 41h-78v139h78q47 0 84 38t37 200t-34 201q-34 40 -87 40t-85 -37t-32 -106v-103h-166v95q0 145 80 223t205 78t205 -80
q80 -81 80 -273t-34 -252t-85 -94q100 -67 121 -186q10 -57 10 -190z" />
    <glyph glyph-name="four" unicode="4" horiz-adv-x="780" 
d="M723 240h-102v-240h-166v240h-396v149l373 1069h160l-363 -1069h226v334h166v-334h102v-149z" />
    <glyph glyph-name="five" unicode="5" horiz-adv-x="780" 
d="M688 471q0 -174 -15 -258t-73 -145q-78 -84 -209 -84t-211 75q-84 84 -84 226v84h166v-99q0 -76 35 -114t93 -39q58 0 95 51q37 52 37 290t-39 298q-35 49 -92 49t-93 -40t-36 -108v-49h-158v850h566v-149h-414v-453q67 98 180 97t182 -83q42 -53 56 -139t14 -260z" />
    <glyph glyph-name="six" unicode="6" horiz-adv-x="780" 
d="M522 438q0 216 -38 262t-94 46t-94 -46q-38 -44 -38 -262t37 -261q37 -44 95 -44t95 44t37 261zM688 444q0 -160 -16 -234t-58 -128q-74 -98 -223 -98t-225 98q-43 57 -58 131q-16 74 -16 254t60 336l245 655h170l-237 -608q45 35 104 35q109 0 180 -84q42 -49 58 -123
t16 -234z" />
    <glyph glyph-name="seven" unicode="7" horiz-adv-x="780" 
d="M244 1309v-215h-162v364h612v-137l-385 -1321h-168l385 1309h-282z" />
    <glyph glyph-name="eight" unicode="8" horiz-adv-x="780" 
d="M512 1081q0 166 -36 205t-87 39t-86 -38t-35 -206t43 -211q29 -28 78 -28t86 36t37 203zM390 133q60 -1 96 45t36 198t-8 202q-8 51 -38 87q-30 35 -85 35t-86 -36t-39 -86q-8 -52 -8 -202t43 -206q29 -37 89 -37zM688 435q0 -173 -16 -245t-72 -127q-76 -79 -210 -79
t-210 79q-55 55 -71 127q-17 72 -17 204t9 190q19 119 122 186q-53 36 -87 98t-34 204t18 210t68 117q76 76 202 76t202 -76q49 -49 67 -118q19 -69 19 -210t-34 -203t-87 -98q53 -35 82 -82q49 -81 49 -253z" />
    <glyph glyph-name="nine" unicode="9" horiz-adv-x="780" 
d="M522 1020q0 217 -37 261t-95 44t-95 -44t-37 -261t38 -262t94 -45t94 45t38 262zM688 992q0 -180 -59 -337l-246 -655h-170l238 608q-45 -35 -105 -35q-109 0 -180 84q-41 49 -57 123q-17 74 -17 234t16 234t58 128q74 98 223 98t225 -98q42 -56 58 -130t16 -254z" />
    <glyph glyph-name="colon" unicode=":" horiz-adv-x="495" 
d="M375 0h-203v203h203v-203zM375 668h-203v202h203v-202z" />
    <glyph glyph-name="semicolon" unicode=";" horiz-adv-x="495" 
d="M375 668h-203v202h203v-202zM180 205h189v-320l-189 -139v459z" />
    <glyph glyph-name="less" unicode="&#x3c;" horiz-adv-x="780" 
d="M711 154l-641 372v125l641 375v-184l-443 -252l443 -252v-184z" />
    <glyph glyph-name="equal" unicode="=" horiz-adv-x="909" 
d="M815 324h-721v157h721v-157zM815 655h-721v158h721v-158z" />
    <glyph glyph-name="greater" unicode="&#x3e;" horiz-adv-x="780" 
d="M711 526l-641 -372v184l442 252l-442 252v184l641 -375v-125z" />
    <glyph glyph-name="question" unicode="?" horiz-adv-x="819" 
d="M530 0h-202v203h202v-203zM426 1321q-143 0 -143 -207h-166q0 184 88 270q90 86 226 86t223 -86t87 -288q0 -152 -63 -244l-121 -174q-45 -66 -45 -143v-140h-166v160q0 86 57 172l119 174q53 78 53 199q0 221 -149 221z" />
    <glyph glyph-name="at" unicode="@" horiz-adv-x="1150" 
d="M866 281v421q0 72 -35 110t-90 38t-91 -38t-36 -110v-421q0 -72 36 -110t91 -38t90 38t35 110zM449 700q-1 152 65 225t181 73t171 -89v217q0 190 -176 191h-244q-84 0 -130 -48t-46 -143v-882q0 -94 58 -150l-119 -117q-104 96 -105 263v903q0 145 86 230t224 85h309
q139 0 224 -85t85 -230v-1143h-160v82q-22 -39 -70 -69t-110 -29q-113 0 -178 74t-65 223v419z" />
    <glyph glyph-name="A" unicode="A" horiz-adv-x="868" 
d="M569 502l-135 672l-137 -672h272zM858 0h-186l-70 344h-338l-69 -344h-185l340 1458h170z" />
    <glyph glyph-name="B" unicode="B" horiz-adv-x="909" 
d="M432 834q96 0 142 55t47 181t-45 178t-144 52h-125v-466h125zM631 416q0 142 -48 204t-149 62h-127v-524h127q102 0 150 58q47 59 47 200zM807 420q0 -238 -89 -329t-274 -91h-313v1458h315q180 0 267 -88q84 -90 84 -282t-80 -273q-41 -41 -84 -55q174 -53 174 -340z
" />
    <glyph glyph-name="C" unicode="C" horiz-adv-x="866" 
d="M612 1098q0 111 -43 165t-119 54t-114 -53q-39 -53 -51 -161q-13 -108 -13 -374t12 -374q12 -109 52 -161q39 -52 114 -52q76 0 120 56t44 162h177q-4 -197 -113 -297q-86 -79 -234 -79t-241 104q-70 78 -88 208t-19 433q0 303 19 433q18 130 88 208q95 104 243 104
t243 -91q95 -92 99 -285h-176z" />
    <glyph glyph-name="D" unicode="D" horiz-adv-x="917" 
d="M645 729q0 263 -10 365t-50 154t-122 52h-156v-1142h156q82 0 122 52t50 154t10 365zM821 729q0 -305 -16 -428t-86 -199q-96 -102 -250 -102h-338v1458h338q154 0 250 -102q70 -76 86 -199t16 -428z" />
    <glyph glyph-name="E" unicode="E" horiz-adv-x="778" 
d="M694 0h-563v1458h563v-158h-387v-489h334v-158h-334v-495h387v-158z" />
    <glyph glyph-name="F" unicode="F" horiz-adv-x="768" 
d="M694 1300h-387v-489h334v-158h-334v-653h-176v1458h563v-158z" />
    <glyph glyph-name="G" unicode="G" horiz-adv-x="888" 
d="M791 350q-1 -176 -95 -271t-246 -95t-247 104q-70 78 -88 208t-19 433q0 303 19 433q18 130 88 208q95 104 245 104t244 -96t99 -282h-177q0 221 -161 221q-78 0 -117 -53t-51 -161q-13 -108 -13 -374t12 -374q12 -109 52 -161q39 -52 116 -52q78 0 120 56t42 146v291
h-161v147h338v-432z" />
    <glyph glyph-name="H" unicode="H" horiz-adv-x="937" 
d="M807 0h-176v662h-324v-662h-176v1458h176v-637h324v637h176v-1458z" />
    <glyph glyph-name="I" unicode="I" horiz-adv-x="440" 
d="M307 0h-176v1458h176v-1458z" />
    <glyph glyph-name="J" unicode="J" horiz-adv-x="739" 
d="M621 348q1 -172 -93 -268t-256 -96t-262 110l125 117q51 -70 131 -70q80 1 129 55t49 152v1110h177v-1110z" />
    <glyph glyph-name="K" unicode="K" horiz-adv-x="899" 
d="M307 0h-176v1458h176v-739l352 739h181l-295 -602l338 -856h-191l-258 659l-127 -251v-408z" />
    <glyph glyph-name="L" unicode="L" horiz-adv-x="739" 
d="M694 0h-563v1458h176v-1300h387v-158z" />
    <glyph glyph-name="M" unicode="M" horiz-adv-x="1183" 
d="M1051 0h-177v1038l-231 -682h-108l-228 666v-1022h-176v1458h166l295 -811l293 811h166v-1458z" />
    <glyph glyph-name="N" unicode="N" horiz-adv-x="976" 
d="M844 0h-160l-377 997v-997h-176v1458h164l375 -997l-2 997h176v-1458z" />
    <glyph glyph-name="O" unicode="O" horiz-adv-x="905" 
d="M633 729q0 266 -12 374q-11 108 -51 161t-118 53t-116 -53q-39 -53 -51 -161q-13 -108 -13 -374t12 -374q12 -109 52 -161q39 -52 117 -52q79 0 117 52q38 54 50 162t13 373zM809 729q0 -307 -17 -435t-87 -206q-94 -104 -251 -104t-251 104q-70 78 -88 208t-19 433
q0 303 19 433q18 130 88 208q94 104 251 104t251 -104q70 -78 87 -206t17 -435z" />
    <glyph glyph-name="P" unicode="P" horiz-adv-x="890" 
d="M629 1032q0 133 -36 201t-130 67h-156v-536h156q94 0 130 68t36 200zM459 1458q174 0 260 -96t86 -324q0 -229 -82 -330t-264 -102h-152v-606h-176v1458h328z" />
    <glyph glyph-name="Q" unicode="Q" horiz-adv-x="905" 
d="M633 682q0 318 -11 424q-10 106 -50 158t-120 53q-80 0 -118 -52q-39 -53 -50 -159q-12 -106 -12 -376t12 -378q12 -106 50 -158q39 -52 119 -53q43 0 73 21l-94 80l84 100l84 -72q33 94 33 412zM809 752q0 -284 -11 -404q-11 -121 -53 -198l117 -99l-84 -100l-116 98
q-82 -65 -224 -65t-235 104q-70 78 -88 208t-19 433q0 303 19 433q18 130 88 208q94 104 251 104t251 -104q70 -78 87 -206t17 -412z" />
    <glyph glyph-name="R" unicode="R" horiz-adv-x="931" 
d="M463 782q94 0 130 66t36 193q0 128 -36 194t-130 65h-156v-518h156zM307 627v-627h-176v1458h330q174 0 259 -93t85 -323q0 -154 -41 -246t-135 -134l223 -662h-184l-201 627h-160z" />
    <glyph glyph-name="S" unicode="S" horiz-adv-x="860" 
d="M428 1313q-164 0 -164 -219q0 -109 27 -154t112 -82l164 -67q121 -49 163 -135t42 -290q0 -202 -90 -292q-92 -88 -259 -88t-255 88q-49 49 -70 119q-20 70 -20 188h176q0 -139 45 -187t126 -49t126 49t45 185t-28 187t-115 89l-166 68q-113 47 -156 124t-43 258t111 281
q89 84 237 84t240 -89t92 -294h-176q0 121 -42 173t-122 53z" />
    <glyph glyph-name="T" unicode="T" horiz-adv-x="751" 
d="M709 1300h-244v-1300h-176v1300h-246v158h666v-158z" />
    <glyph glyph-name="U" unicode="U" horiz-adv-x="911" 
d="M793 332q1 -158 -95 -253t-242 -95t-242 95t-95 253v1126h176v-1136q0 -84 46 -132t115 -49q68 0 114 48t46 133v1136h177v-1126z" />
    <glyph glyph-name="V" unicode="V" horiz-adv-x="827" 
d="M819 1458l-315 -1458h-180l-316 1458h195l211 -1173l213 1173h192z" />
    <glyph glyph-name="W" unicode="W" horiz-adv-x="1335" 
d="M1327 1458l-250 -1458h-182l-227 1174l-226 -1174h-182l-252 1458h195l149 -1173l217 1173h197l221 -1173l148 1173h192z" />
    <glyph glyph-name="X" unicode="X" horiz-adv-x="825" 
d="M795 0h-193l-190 578l-189 -578h-192l278 758l-256 700h193l166 -532l168 532h192l-264 -700z" />
    <glyph glyph-name="Y" unicode="Y" horiz-adv-x="722" 
d="M449 0h-177v590l-268 868h193l163 -622l164 622h195l-270 -868v-590z" />
    <glyph glyph-name="Z" unicode="Z" horiz-adv-x="714" 
d="M651 0h-588v133l406 1167h-379v158h561v-133l-403 -1167h403v-158z" />
    <glyph glyph-name="bracketleft" unicode="[" horiz-adv-x="530" 
d="M471 -152h-352v1762h352v-146h-186v-1470h186v-146z" />
    <glyph glyph-name="backslash" unicode="\" horiz-adv-x="557" 
d="M549 -152h-162l-379 1762h162z" />
    <glyph glyph-name="bracketright" unicode="]" horiz-adv-x="530" 
d="M412 -152h-353v146h187v1470h-187v146h353v-1762z" />
    <glyph glyph-name="asciicircum" unicode="^" horiz-adv-x="931" 
d="M815 893h-164l-184 407l-184 -407h-166l274 575h150z" />
    <glyph glyph-name="underscore" unicode="_" horiz-adv-x="909" 
d="M909 -295h-909v125h909v-125z" />
    <glyph glyph-name="grave" unicode="`" 
d="M461 1200h-127l-166 277h151z" />
    <glyph glyph-name="a" unicode="a" horiz-adv-x="768" 
d="M399 492q-166 0 -167 -182t128 -181q59 0 97 46q37 46 37 120v197h-95zM494 612v168q0 152 -125 152q-47 0 -84 -38t-37 -120h-166q0 143 80 223t210 80t203 -73q84 -88 84 -234v-770h-157v94q-67 -110 -183 -110q-115 0 -185 78t-68 237q0 158 88 236t231 77h109z" />
    <glyph glyph-name="b" unicode="b" horiz-adv-x="792" 
d="M283 289q0 -156 127 -156q111 0 126 158q7 75 7 240t-7 241q-15 158 -126 158q-53 0 -90 -37t-37 -119v-485zM709 530q-1 -205 -15 -309t-61 -160q-66 -78 -176 -77q-61 0 -111 30t-70 68v-82h-159v1458h166v-471q59 92 172 91t178 -79q47 -55 61 -159t15 -310z" />
    <glyph glyph-name="c" unicode="c" horiz-adv-x="741" 
d="M82 530q0 178 16 284q40 264 285 263q283 0 291 -311h-164q0 84 -34 124t-93 40t-89 -41t-38 -120t-8 -239t8 -238t38 -118q30 -41 88 -41t93 39t35 123h164q-8 -313 -291 -311q-243 0 -285 262q-16 106 -16 284z" />
    <glyph glyph-name="d" unicode="d" horiz-adv-x="792" 
d="M510 289v485q0 80 -38 118t-93 38t-85 -41t-38 -120t-8 -239t8 -238q16 -159 125 -159q55 0 92 37t37 119zM341 1077q115 0 169 -90v471h166v-1458h-162v82q-20 -39 -68 -69t-110 -29q-203 0 -239 238q-15 105 -15 308q0 202 15 308t63 161q66 78 181 78z" />
    <glyph glyph-name="e" unicode="e" horiz-adv-x="761" 
d="M518 616q0 218 -39 266t-95 48t-96 -48t-40 -266h270zM684 492h-436q0 -256 41 -308t97 -51q56 0 93 42t37 120h164q-4 -147 -80 -229t-210 -82t-214 82q-58 60 -76 168t-18 297t17 298t75 166q80 82 211 82t199 -74t84 -188t16 -323z" />
    <glyph glyph-name="f" unicode="f" horiz-adv-x="520" 
d="M485 932h-163v-932h-166v932h-121v129h121v102q0 160 86 232t243 71v-149q-164 0 -163 -160v-96h163v-129z" />
    <glyph glyph-name="g" unicode="g" horiz-adv-x="792" 
d="M510 336v438q0 80 -38 118t-90 38t-91 -45q-43 -55 -43 -329t43 -331q39 -45 91 -45t90 40t38 116zM82 554q0 190 18 292q18 100 66 155q63 76 177 76t171 -92v76h162v-1088q0 -378 -295 -376q-135 -1 -214 77t-79 228h164q0 -88 36 -125t91 -37t93 43t38 182v160
q-60 -92 -168 -91q-198 1 -242 231q-18 99 -18 289z" />
    <glyph glyph-name="h" unicode="h" horiz-adv-x="808" 
d="M456 1077q114 0 179 -74t65 -223v-780h-165v780q0 72 -36 110t-91 38q-54 0 -90 -38t-35 -110v-780h-166v1458h166v-473q59 92 173 92z" />
    <glyph glyph-name="i" unicode="i" horiz-adv-x="399" 
d="M297 1249h-195v193h195v-193zM283 0h-166v1042h166v-1042z" />
    <glyph glyph-name="j" unicode="j" horiz-adv-x="399" 
d="M297 1249h-195v193h195v-193zM283 -94q0 -160 -95 -238q-78 -66 -231 -65v149q80 0 120 37t40 123v1130h166v-1136z" />
    <glyph glyph-name="k" unicode="k" horiz-adv-x="808" 
d="M283 0h-166v1458h166v-901l301 504h176l-258 -414l282 -647h-184l-203 500l-114 -183v-317z" />
    <glyph glyph-name="l" unicode="l" horiz-adv-x="466" 
d="M432 0q-152 0 -229 66q-94 78 -94 237v1155h165v-1149q0 -160 158 -159v-150z" />
    <glyph glyph-name="m" unicode="m" horiz-adv-x="1226" 
d="M867 1077q121 0 185 -73t64 -224v-780h-166v780q0 72 -35 110t-90 38t-90 -38t-35 -110v-780h-165v780q0 72 -36 110t-91 38q-54 0 -90 -38t-35 -110v-780h-166v1061h159v-82q23 39 71 69q47 30 109 29t116 -31t87 -79q88 110 208 110z" />
    <glyph glyph-name="n" unicode="n" horiz-adv-x="808" 
d="M700 0h-165v780q0 72 -36 110t-91 38q-54 0 -90 -38t-35 -110v-780h-166v1061h159v-82q23 39 71 69t110 29q113 0 178 -74t65 -223v-780z" />
    <glyph glyph-name="o" unicode="o" horiz-adv-x="768" 
d="M518 531q0 165 -7 241q-15 158 -127 158t-128 -161q-8 -79 -8 -239t8 -238q16 -159 127 -159q113 -1 128 157q7 76 7 241zM684 530q0 -180 -15 -284q-38 -262 -286 -262q-243 0 -285 262q-16 106 -16 284t16 284q40 264 286 263q246 0 285 -262q15 -105 15 -285z" />
    <glyph glyph-name="p" unicode="p" horiz-adv-x="792" 
d="M283 289q0 -156 127 -156q111 0 126 158q7 75 7 240t-7 241q-15 158 -126 158q-53 0 -90 -37t-37 -119v-485zM283 -397h-166v1458h159v-82q18 37 68 67t113 31q111 0 176 -78q47 -55 61 -159t15 -310q0 -205 -15 -309q-32 -237 -242 -237q-115 0 -169 90v-471z" />
    <glyph glyph-name="q" unicode="q" horiz-adv-x="792" 
d="M510 289v485q0 80 -38 118t-93 38t-85 -41t-38 -120t-8 -239t8 -238q16 -159 125 -159q55 0 92 37t37 119zM82 530q0 202 15 308t63 161q66 78 176 78q62 0 110 -30t68 -68v82h162v-1458h-166v471q-59 -92 -172 -91q-205 2 -241 239q-15 105 -15 308z" />
    <glyph glyph-name="r" unicode="r" horiz-adv-x="557" 
d="M524 918h-49q-86 0 -139 -52t-53 -143v-723h-166v1061h159v-113q22 41 86 85t162 44v-159z" />
    <glyph glyph-name="s" unicode="s" horiz-adv-x="735" 
d="M672 274q0 -116 -86 -203t-221 -87t-219 87t-85 228h164q0 -82 41 -124q40 -42 100 -42t100 40q40 41 40 101t-27 101t-94 76l-137 69q-102 52 -140 116t-38 146q0 127 84 211t214 84t205 -76q86 -82 86 -233h-163q0 86 -37 125t-93 39t-94 -37t-36 -91q0 -54 20 -90
t86 -67l135 -67q107 -51 151 -120q44 -70 44 -186z" />
    <glyph glyph-name="t" unicode="t" horiz-adv-x="532" 
d="M492 0q-166 0 -251 71t-85 232v629h-121v129h121v291h166v-291h163v-129h-163v-623q0 -160 170 -159v-150z" />
    <glyph glyph-name="u" unicode="u" horiz-adv-x="808" 
d="M692 0h-160v82q-22 -39 -70 -69t-110 -29q-113 0 -178 74t-65 223v780h165v-780q0 -72 36 -110t91 -38t91 38q35 38 34 110v780h166v-1061z" />
    <glyph glyph-name="v" unicode="v" horiz-adv-x="702" 
d="M694 1061l-254 -1061h-176l-256 1061h182l162 -799l160 799h182z" />
    <glyph glyph-name="w" unicode="w" horiz-adv-x="1077" 
d="M1069 1061l-223 -1061h-168l-143 776l-140 -776h-168l-219 1061h189l120 -799l142 799h149l150 -799l123 799h188z" />
    <glyph glyph-name="x" unicode="x" horiz-adv-x="729" 
d="M702 0h-184l-153 383l-154 -383h-184l241 541l-229 520h184l142 -371l141 371h184l-233 -520z" />
    <glyph glyph-name="y" unicode="y" horiz-adv-x="706" 
d="M43 -397v147q82 0 127 27t63 96l33 129l-258 1059h182l162 -797l160 797h182l-299 -1231q-33 -133 -119 -180t-233 -47z" />
    <glyph glyph-name="z" unicode="z" horiz-adv-x="616" 
d="M567 0h-518v127l334 786h-311v148h495v-127l-334 -784h334v-150z" />
    <glyph glyph-name="braceleft" unicode="{" horiz-adv-x="636" 
d="M578 -152h-86q-113 0 -185 72t-71 205v393q0 63 -34 100t-85 37h-58v148h58q51 0 85 37t34 100v393q0 133 71 205q72 72 185 72h86v-150h-58q-51 0 -85 -36t-34 -99v-379q0 -119 -59 -178q-16 -16 -68 -39q45 -12 68 -39q59 -59 59 -178v-379q0 -63 34 -99t85 -36h58
v-150z" />
    <glyph glyph-name="bar" unicode="|" horiz-adv-x="593" 
d="M381 -152h-166v1762h166v-1762z" />
    <glyph glyph-name="braceright" unicode="}" horiz-adv-x="636" 
d="M578 655h-58q-51 0 -84 -37t-33 -100v-393q-1 -131 -73 -204t-185 -73h-86v150h58q53 0 87 36t34 99v379q0 121 57 178q14 14 70 39q-47 14 -70 39q-57 57 -57 178v379q0 63 -34 99t-87 36h-58v150h86q113 0 186 -73t72 -204v-393q0 -63 33 -100t84 -37h58v-148z" />
    <glyph glyph-name="asciitilde" unicode="~" horiz-adv-x="909" 
d="M296 551q-58 0 -124 -68l-100 99q70 70 120 96t115 27q66 1 158 -45t147 -46t125 70l103 -100q-70 -70 -121 -97t-116 -27t-157 46q-92 45 -150 45z" />
    <glyph glyph-name="nbspace" unicode="&#xa0;" horiz-adv-x="382" 
 />
    <glyph glyph-name="exclamdown" unicode="&#xa1;" horiz-adv-x="495" 
d="M324 858h-203v203h203v-203zM305 -397h-166v1063h166v-1063z" />
    <glyph glyph-name="cent" unicode="&#xa2;" horiz-adv-x="751" 
d="M256 737q0 -157 7 -229t29 -100t34 -33v725q-12 -6 -34 -34t-29 -100t-7 -229zM457 0h-131v219q-187 30 -221 246q-15 100 -15 272q0 173 15 273q32 216 221 245v203h131v-203q216 -30 223 -294h-164q0 82 -24 108t-35 33v-727q16 12 24 20q35 37 35 117h164
q-4 -150 -82 -225q-53 -49 -141 -66v-221z" />
    <glyph glyph-name="sterling" unicode="&#xa3;" horiz-adv-x="874" 
d="M809 0h-610v692h-131v127h131v295q0 164 100 262t256 98t254 -108l-123 -117q-55 68 -133 68t-128 -54t-50 -145v-299h174v-127h-174v-534h434v-158z" />
    <glyph glyph-name="currency" unicode="&#xa4;" horiz-adv-x="970" 
d="M68 510v127h120v184h-120v127h125q3 180 25 272t77 150q95 104 243 104t244 -92q96 -93 101 -284h-176q-4 219 -162 219q-80 0 -116 -48q-36 -47 -47 -109t-13 -212h245v-127h-247v-184h247v-127h-245q2 -150 13 -211t49 -109t114 -49q158 0 162 219h176
q-4 -197 -113 -297q-86 -79 -234 -79t-241 104q-55 58 -78 150t-24 272h-125z" />
    <glyph glyph-name="yen" unicode="&#xa5;" horiz-adv-x="722" 
d="M631 829v-127h-152l-35 -112v-82h187v-127h-187v-381h-168v381h-186v127h186v82l-32 112h-154v127h113l-189 629h187l159 -622l162 622h185l-189 -629h113z" />
    <glyph glyph-name="brokenbar" unicode="&#xa6;" horiz-adv-x="593" 
d="M381 -150h-166v713h166v-713zM381 895h-166v713h166v-713z" />
    <glyph glyph-name="section" unicode="&#xa7;" horiz-adv-x="837" 
d="M565 555q0 101 -9 151t-44 84t-92 33q-57 0 -92 -32q-35 -31 -45 -83t-11 -153q0 -184 46 -227t103 -43q56 0 93 37q51 49 51 233zM731 563q0 -139 -18 -207q-19 -68 -63 -106t-93 -51q84 -53 121 -116t37 -151q0 -137 -81 -219t-216 -82t-219 84t-84 213h168
q0 -68 37 -108t95 -39q58 0 95 37q35 39 35 100t-27 100t-90 70l-141 70q-61 32 -104 74t-60 113t-17 205t18 198t66 106q48 43 93 53q-86 49 -122 109t-36 168t83 191t208 83q126 0 210 -74t85 -217h-166q0 70 -36 107t-89 37t-89 -35t-36 -92t20 -92q29 -41 84 -70
l142 -70q75 -34 117 -78t58 -108t15 -203z" />
    <glyph glyph-name="dieresis" unicode="&#xa8;" 
d="M629 1231h-166v168h166v-168zM309 1231h-168v168h168v-168z" />
    <glyph glyph-name="copyright" unicode="&#xa9;" horiz-adv-x="1746" 
d="M967 913q1 131 -91 129q-42 0 -67 -32q-33 -47 -33 -284t30 -276t71 -38q90 0 90 131h110q-4 -121 -59 -176t-145 -55t-148 67q-37 45 -48 125t-11 224t11 224t48 125q57 68 147 68t146 -57q57 -57 59 -175h-110zM1495 729q0 265 -180 449q-179 184 -441 184t-442 -183
t-180 -449t180 -450t441 -184t441 184t181 449zM1614 729q0 -307 -217 -524t-525 -217t-524 217q-217 217 -217 524t217 524t524 217q306 0 524 -217t218 -524z" />
    <glyph glyph-name="ordfeminine" unicode="&#xaa;" horiz-adv-x="643" 
d="M410 872v134h-76q-63 0 -99 -33t-36 -103q0 -133 104 -133q45 0 76 38t31 97zM549 629h-131v67q-18 -30 -56 -54t-96 -24q-94 0 -150 62t-56 181q0 120 81 192q66 55 183 55h86v123q0 51 -27 83t-71 32t-72 -30t-29 -95h-139q0 115 68 180t174 65q104 0 170 -66t65 -179
v-592z" />
    <glyph glyph-name="guillemotleft" unicode="&#xab;" horiz-adv-x="802" 
d="M698 86l-303 471l303 469v-260l-141 -209l141 -211v-260zM356 86l-303 471l303 469v-260l-139 -209l139 -211v-260z" />
    <glyph glyph-name="logicalnot" unicode="&#xac;" horiz-adv-x="909" 
d="M807 299h-158v219h-547v158h705v-377z" />
    <glyph glyph-name="registered" unicode="&#xae;" horiz-adv-x="1746" 
d="M895 766q35 0 59 26t25 108q0 83 -24 108t-60 24h-98v-266h98zM895 1135q193 0 195 -236q0 -127 -54 -180q-16 -16 -41 -31l119 -366h-115l-106 344h-96v-344h-111v813h209zM1495 729q0 265 -180 449q-179 184 -441 184t-442 -183t-180 -449t180 -450t441 -184t441 184
t181 449zM1614 729q0 -307 -217 -524t-525 -217t-524 217q-217 217 -217 524t217 524t524 217q306 0 524 -217t218 -524z" />
    <glyph glyph-name="macron" unicode="&#xaf;" 
d="M621 1253h-469v117h469v-117z" />
    <glyph glyph-name="degree" unicode="&#xb0;" horiz-adv-x="811" 
d="M406 1016q68 0 112 46t45 115q0 69 -45 115q-44 46 -112 45q-68 0 -113 -45q-45 -44 -45 -114t45 -116t113 -46zM711 1178q0 -125 -89 -215q-89 -91 -216 -91q-126 0 -216 90t-90 216q0 125 89 214t217 89t216 -89q89 -89 89 -214z" />
    <glyph glyph-name="plusminus" unicode="&#xb1;" horiz-adv-x="909" 
d="M815 49h-721v158h721v-158zM815 616h-280v-280h-158v280h-283v158h283v281h158v-281h280v-158z" />
    <glyph glyph-name="twosuperior" unicode="&#xb2;" horiz-adv-x="651" 
d="M551 584h-447v92l277 434q45 70 45 136q0 122 -101 122t-102 -115v-49h-123v45q0 111 60 165t162 54q100 0 164 -51t65 -152q0 -101 -62 -198l-247 -387h309v-96z" />
    <glyph glyph-name="threesuperior" unicode="&#xb3;" horiz-adv-x="651" 
d="M215 797q1 -125 103 -123q44 0 73 30t29 126q0 97 -27 129t-78 32h-55v96h55q101 0 101 146q0 82 -27 109t-74 26q-96 0 -96 -113v-38h-125v34q0 111 60 164t161 53q103 0 163 -57t60 -161t-32 -150q-33 -47 -72 -62q111 -39 111 -200q1 -92 -13 -134t-63 -86t-153 -44
t-165 54q-60 54 -61 171v30h125v-32z" />
    <glyph glyph-name="acute" unicode="&#xb4;" 
d="M602 1477l-166 -277h-125l140 277h151z" />
    <glyph glyph-name="mu" unicode="&#xb5;" horiz-adv-x="817" 
d="M698 0h-161v82q-23 -41 -70 -70q-47 -28 -109 -28t-84 28v-409h-159v1458h166v-780q1 -72 35 -110t90 -38t91 38q36 38 35 110v780h166v-1061z" />
    <glyph glyph-name="paragraph" unicode="&#xb6;" horiz-adv-x="1167" 
d="M1049 -397h-166v1700h-228v-1700h-166v1003h-110q-295 0 -295 426t295 426h670v-1855z" />
    <glyph glyph-name="periodcentered" unicode="&#xb7;" horiz-adv-x="544" 
d="M416 477h-289v289h289v-289z" />
    <glyph glyph-name="cedilla" unicode="&#xb8;" 
d="M463 -78l-103 -295h-131l117 295h117z" />
    <glyph glyph-name="onesuperior" unicode="&#xb9;" horiz-adv-x="651" 
d="M410 584h-123v745l-148 -96v125l148 100h123v-874z" />
    <glyph glyph-name="ordmasculine" unicode="&#xba;" horiz-adv-x="641" 
d="M426 1040q0 219 -35 269q-29 35 -74 35t-73 -40t-29 -264q0 -224 29 -262q28 -39 74 -39t73 33q35 49 35 268zM565 1040q0 -270 -62 -347q-63 -77 -183 -77t-182 77t-62 347t63 348t181 78t182 -77q63 -79 63 -349z" />
    <glyph glyph-name="guillemotright" unicode="&#xbb;" horiz-adv-x="802" 
d="M408 557l-304 -471v260l142 211l-142 209v260zM750 557l-304 -471v260l140 211l-140 209v260z" />
    <glyph glyph-name="onequarter" unicode="&#xbc;" horiz-adv-x="1624" 
d="M410 584h-125v745l-146 -96v125l148 100h123v-874zM1522 129h-68v-129h-123v129h-301v100l240 645h121l-236 -645h176v179h123v-179h68v-100zM1106 1458l-506 -1458h-131l506 1458h131z" />
    <glyph glyph-name="onehalf" unicode="&#xbd;" horiz-adv-x="1624" 
d="M410 584h-125v745l-146 -96v125l148 100h123v-874zM1526 0h-447v92l277 434q45 70 45 136q0 124 -103 122q-100 0 -100 -114v-49h-123v45q1 110 61 164t160 54t165 -50t65 -152t-62 -199l-247 -387h309v-96zM1106 1458l-506 -1458h-131l506 1458h131z" />
    <glyph glyph-name="threequarters" unicode="&#xbe;" horiz-adv-x="1624" 
d="M1522 129h-68v-129h-123v129h-303v100l242 645h121l-236 -645h176v179h123v-179h68v-100zM1106 1458l-506 -1458h-131l506 1458h131zM215 797q1 -125 103 -123q44 0 73 30t29 126q0 97 -27 129t-78 32h-55v96h55q101 0 101 146q0 82 -27 109t-74 26q-96 0 -96 -113v-38
h-125v34q0 111 60 164t161 53q103 0 163 -57t60 -161t-32 -150q-33 -47 -72 -62q111 -39 111 -200q1 -92 -13 -134t-63 -86t-153 -44t-165 54q-60 54 -61 171v30h125v-32z" />
    <glyph glyph-name="questiondown" unicode="&#xbf;" horiz-adv-x="819" 
d="M492 858h-203v203h203v-203zM244 -39q0 -221 149 -221q59 0 103 44t43 163h166q0 -184 -89 -271q-90 -86 -227 -86t-224 87t-87 288q0 152 63 244l121 174q45 66 45 143v140h166v-160q0 -86 -57 -172l-119 -174q-53 -78 -53 -199z" />
    <glyph glyph-name="Agrave" unicode="&#xc0;" horiz-adv-x="868" 
d="M512 1559h-127l-166 276h152zM569 502l-135 672l-137 -672h272zM858 0h-186l-70 344h-338l-69 -344h-185l340 1458h170z" />
    <glyph glyph-name="Aacute" unicode="&#xc1;" horiz-adv-x="868" 
d="M651 1835l-166 -276h-125l140 276h151zM569 502l-135 672l-137 -672h272zM858 0h-186l-70 344h-338l-69 -344h-185l340 1458h170z" />
    <glyph glyph-name="Acircumflex" unicode="&#xc2;" horiz-adv-x="868" 
d="M694 1559h-135l-123 178l-121 -178h-137l191 276h137zM569 502l-135 672l-137 -672h272zM858 0h-186l-70 344h-338l-69 -344h-185l340 1458h170z" />
    <glyph glyph-name="Atilde" unicode="&#xc3;" horiz-adv-x="868" 
d="M556 1579q-70 0 -122 33t-96 33q-43 0 -90 -48l-76 76q88 88 158 88t124 -34q56 -33 93 -33t86 49l78 -78q-85 -86 -155 -86zM569 502l-135 672l-137 -672h272zM858 0h-186l-70 344h-338l-69 -344h-185l340 1458h170z" />
    <glyph glyph-name="Adieresis" unicode="&#xc4;" horiz-adv-x="868" 
d="M680 1589h-166v168h166v-168zM360 1589h-167v168h167v-168zM569 502l-135 672l-137 -672h272zM858 0h-186l-70 344h-338l-69 -344h-185l340 1458h170z" />
    <glyph glyph-name="Aring" unicode="&#xc5;" horiz-adv-x="868" 
d="M537 1745q0 41 -30 71t-71 30q-40 0 -70 -30t-30 -71t30 -72t70 -31t71 31q30 31 30 72zM569 502l-135 672l-137 -672h272zM637 1745q0 -82 -58 -141q-57 -60 -141 -60t-142 58t-58 142q0 83 57 141q57 59 141 59t142 -58t59 -141zM858 0h-186l-70 344h-338l-69 -344
h-185l340 1458h170z" />
    <glyph glyph-name="AE" unicode="&#xc6;" horiz-adv-x="1310" 
d="M664 512v788l-279 -788h279zM1225 0h-561v352h-334l-125 -352h-195l539 1458h676v-158h-385v-489h331v-158h-331v-495h385v-158z" />
    <glyph glyph-name="Ccedilla" unicode="&#xc7;" horiz-adv-x="866" 
d="M516 -78l-102 -295h-131l116 295h117zM612 1098q0 111 -43 165t-119 54t-114 -53q-39 -53 -51 -161q-13 -108 -13 -374t12 -374q12 -109 52 -161q39 -52 114 -52q76 0 120 56t44 162h177q-4 -197 -113 -297q-86 -79 -234 -79t-241 104q-70 78 -88 208t-19 433
q0 303 19 433q18 130 88 208q95 104 243 104t243 -91q95 -92 99 -285h-176z" />
    <glyph glyph-name="Egrave" unicode="&#xc8;" horiz-adv-x="778" 
d="M494 1559h-127l-166 276h151zM694 0h-563v1458h563v-158h-387v-489h334v-158h-334v-495h387v-158z" />
    <glyph glyph-name="Eacute" unicode="&#xc9;" horiz-adv-x="778" 
d="M635 1835l-166 -276h-125l139 276h152zM694 0h-563v1458h563v-158h-387v-489h334v-158h-334v-495h387v-158z" />
    <glyph glyph-name="Ecircumflex" unicode="&#xca;" horiz-adv-x="778" 
d="M676 1559h-135l-123 178l-121 -178h-137l190 276h137zM694 0h-563v1458h563v-158h-387v-489h334v-158h-334v-495h387v-158z" />
    <glyph glyph-name="Edieresis" unicode="&#xcb;" horiz-adv-x="778" 
d="M662 1589h-166v168h166v-168zM342 1589h-168v168h168v-168zM694 0h-563v1458h563v-158h-387v-489h334v-158h-334v-495h387v-158z" />
    <glyph glyph-name="Igrave" unicode="&#xcc;" horiz-adv-x="440" 
d="M307 1559h-127l-166 276h152zM307 0h-176v1458h176v-1458z" />
    <glyph glyph-name="Iacute" unicode="&#xcd;" horiz-adv-x="440" 
d="M440 1835l-166 -276h-124l139 276h151zM307 0h-176v1458h176v-1458z" />
    <glyph glyph-name="Icircumflex" unicode="&#xce;" horiz-adv-x="440" 
d="M477 1559h-135l-123 178l-121 -178h-137l191 276h137zM307 0h-176v1458h176v-1458z" />
    <glyph glyph-name="Idieresis" unicode="&#xcf;" horiz-adv-x="440" 
d="M465 1589h-166v168h166v-168zM145 1589h-168v168h168v-168zM307 0h-176v1458h176v-1458z" />
    <glyph glyph-name="Eth" unicode="&#xd0;" horiz-adv-x="940" 
d="M668 729q0 263 -10 365t-51 154q-40 52 -124 52h-153v-497h166v-141h-166v-504h153q84 0 124 52q41 52 51 154t10 365zM844 729q0 -301 -18 -426t-87 -201q-96 -102 -250 -102h-335v662h-107v141h107v655h335q154 0 250 -102q69 -76 87 -201t18 -426z" />
    <glyph glyph-name="Ntilde" unicode="&#xd1;" horiz-adv-x="976" 
d="M614 1579q-70 0 -122 33t-95 33t-90 -48l-76 76q87 88 157 88t126 -34q56 -33 92 -33q37 0 86 49l78 -78q-86 -86 -156 -86zM844 0h-160l-377 997v-997h-176v1458h164l375 -997l-2 997h176v-1458z" />
    <glyph glyph-name="Ograve" unicode="&#xd2;" horiz-adv-x="905" 
d="M520 1559h-127l-166 276h152zM633 729q0 266 -12 374q-11 108 -51 161t-118 53t-116 -53q-39 -53 -51 -161q-13 -108 -13 -374t12 -374q12 -109 52 -161q39 -52 117 -52q79 0 117 52q38 54 50 162t13 373zM809 729q0 -307 -17 -435t-87 -206q-94 -104 -251 -104t-251 104
q-70 78 -88 208t-19 433q0 303 19 433q18 130 88 208q94 104 251 104t251 -104q70 -78 87 -206t17 -435z" />
    <glyph glyph-name="Oacute" unicode="&#xd3;" horiz-adv-x="905" 
d="M662 1835l-166 -276h-125l139 276h152zM633 729q0 266 -12 374q-11 108 -51 161t-118 53t-116 -53q-39 -53 -51 -161q-13 -108 -13 -374t12 -374q12 -109 52 -161q39 -52 117 -52q79 0 117 52q38 54 50 162t13 373zM809 729q0 -307 -17 -435t-87 -206q-94 -104 -251 -104
t-251 104q-70 78 -88 208t-19 433q0 303 19 433q18 130 88 208q94 104 251 104t251 -104q70 -78 87 -206t17 -435z" />
    <glyph glyph-name="Ocircumflex" unicode="&#xd4;" horiz-adv-x="905" 
d="M702 1559h-135l-123 178l-120 -178h-138l191 276h137zM633 729q0 266 -12 374q-11 108 -51 161t-118 53t-116 -53q-39 -53 -51 -161q-13 -108 -13 -374t12 -374q12 -109 52 -161q39 -52 117 -52q79 0 117 52q38 54 50 162t13 373zM809 729q0 -307 -17 -435t-87 -206
q-94 -104 -251 -104t-251 104q-70 78 -88 208t-19 433q0 303 19 433q18 130 88 208q94 104 251 104t251 -104q70 -78 87 -206t17 -435z" />
    <glyph glyph-name="Otilde" unicode="&#xd5;" horiz-adv-x="905" 
d="M564 1579q-70 0 -122 33t-96 33q-43 0 -90 -48l-76 76q88 88 158 88t124 -34q56 -33 93 -33t86 49l78 -78q-85 -86 -155 -86zM633 729q0 266 -12 374q-11 108 -51 161t-118 53t-116 -53q-39 -53 -51 -161q-13 -108 -13 -374t12 -374q12 -109 52 -161q39 -52 117 -52
q79 0 117 52q38 54 50 162t13 373zM809 729q0 -307 -17 -435t-87 -206q-94 -104 -251 -104t-251 104q-70 78 -88 208t-19 433q0 303 19 433q18 130 88 208q94 104 251 104t251 -104q70 -78 87 -206t17 -435z" />
    <glyph glyph-name="Odieresis" unicode="&#xd6;" horiz-adv-x="905" 
d="M688 1589h-166v168h166v-168zM369 1589h-168v168h168v-168zM633 729q0 266 -12 374q-11 108 -51 161t-118 53t-116 -53q-39 -53 -51 -161q-13 -108 -13 -374t12 -374q12 -109 52 -161q39 -52 117 -52q79 0 117 52q38 54 50 162t13 373zM809 729q0 -307 -17 -435t-87 -206
q-94 -104 -251 -104t-251 104q-70 78 -88 208t-19 433q0 303 19 433q18 130 88 208q94 104 251 104t251 -104q70 -78 87 -206t17 -435z" />
    <glyph glyph-name="multiply" unicode="&#xd7;" horiz-adv-x="909" 
d="M801 330l-107 -107l-239 238l-238 -238l-108 107l239 239l-239 238l108 108l238 -239l239 239l107 -108l-238 -238z" />
    <glyph glyph-name="Oslash" unicode="&#xd8;" horiz-adv-x="882" 
d="M454 141q78 -1 116 53t50 162t13 377q0 270 -17 354l-278 -901q39 -45 116 -45zM450 1317q-76 0 -114 -53q-39 -53 -51 -161q-13 -107 -13 -385t17 -349l278 901q-41 47 -117 47zM809 718q0 -296 -17 -424t-87 -206q-94 -104 -252 -104q-104 0 -170 39l-39 -113h-127
l69 196q-59 76 -74 207q-16 131 -16 425t19 424q18 130 88 208q94 104 250 105q100 0 170 -41l39 114h126l-67 -198q57 -76 73 -206t15 -426z" />
    <glyph glyph-name="Ugrave" unicode="&#xd9;" horiz-adv-x="911" 
d="M537 1559h-127l-166 276h151zM793 332q1 -158 -95 -253t-242 -95t-242 95t-95 253v1126h176v-1136q0 -84 46 -132t115 -49q68 0 114 48t46 133v1136h177v-1126z" />
    <glyph glyph-name="Uacute" unicode="&#xda;" horiz-adv-x="911" 
d="M678 1835l-166 -276h-125l139 276h152zM793 332q1 -158 -95 -253t-242 -95t-242 95t-95 253v1126h176v-1136q0 -84 46 -132t115 -49q68 0 114 48t46 133v1136h177v-1126z" />
    <glyph glyph-name="Ucircumflex" unicode="&#xdb;" horiz-adv-x="911" 
d="M719 1559h-135l-123 178l-121 -178h-137l190 276h137zM793 332q1 -158 -95 -253t-242 -95t-242 95t-95 253v1126h176v-1136q0 -84 46 -132t115 -49q68 0 114 48t46 133v1136h177v-1126z" />
    <glyph glyph-name="Udieresis" unicode="&#xdc;" horiz-adv-x="911" 
d="M705 1589h-166v168h166v-168zM385 1589h-168v168h168v-168zM793 332q1 -158 -95 -253t-242 -95t-242 95t-95 253v1126h176v-1136q0 -84 46 -132t115 -49q68 0 114 48t46 133v1136h177v-1126z" />
    <glyph glyph-name="Yacute" unicode="&#xdd;" horiz-adv-x="722" 
d="M582 1835l-166 -276h-125l139 276h152zM449 0h-177v590l-268 868h193l163 -622l164 622h195l-270 -868v-590z" />
    <glyph glyph-name="Thorn" unicode="&#xde;" horiz-adv-x="890" 
d="M463 469q94 -1 130 67t36 200t-36 200t-130 68h-156v-535h156zM459 1163q174 -1 260 -97t86 -325t-82 -329t-264 -101h-152v-311h-176v1458h176v-295h152z" />
    <glyph glyph-name="germandbls" unicode="&#xdf;" horiz-adv-x="806" 
d="M426 909q117 0 117 207q0 123 -36 166t-94 43q-59 0 -95 -38t-35 -111v-1176h-166v1169q0 141 84 226q84 80 214 80t212 -82t82 -265q0 -133 -31 -192t-80 -92q99 -64 118 -185q11 -69 11 -215t-15 -228q-15 -80 -84 -148t-216 -68v150q76 0 104 34t37 94q8 60 8 228
t-36 215t-97 47h-16v141h14z" />
    <glyph glyph-name="agrave" unicode="&#xe0;" horiz-adv-x="768" 
d="M455 1200h-127l-166 277h151zM397 492q-166 0 -167 -182t128 -181q59 0 97 46q37 46 37 120v197h-95zM63 298q0 161 95 243q78 72 225 71h109v168q0 152 -125 152q-51 0 -86 -38t-35 -120h-166q0 143 80 223t210 80t203 -73q84 -88 84 -234v-770h-157v94
q-67 -110 -183 -110q-115 0 -185 76t-69 238z" />
    <glyph glyph-name="aacute" unicode="&#xe1;" horiz-adv-x="768" 
d="M596 1477l-166 -277h-125l139 277h152zM399 492q-166 0 -167 -182t128 -181q59 0 97 46q37 46 37 120v197h-95zM494 612v168q0 152 -125 152q-47 0 -84 -38t-37 -120h-166q0 143 80 223t210 80t203 -73q84 -88 84 -234v-770h-157v94q-67 -110 -183 -110q-115 0 -185 78
t-68 237q0 158 88 236t231 77h109z" />
    <glyph glyph-name="acircumflex" unicode="&#xe2;" horiz-adv-x="768" 
d="M633 1200h-135l-123 178l-121 -178h-137l190 277h137zM399 492q-166 0 -167 -182t128 -181q59 0 97 46q37 46 37 120v197h-95zM494 612v168q0 152 -125 152q-47 0 -84 -38t-37 -120h-166q0 143 80 223t210 80t203 -73q84 -88 84 -234v-770h-157v94q-67 -110 -183 -110
q-115 0 -185 78t-68 237q0 158 88 236t231 77h109z" />
    <glyph glyph-name="atilde" unicode="&#xe3;" horiz-adv-x="768" 
d="M494 1221q-70 1 -122 33t-95 32t-91 -47l-75 76q88 88 157 88q68 0 124 -34t93 -34t86 49l78 -77q-85 -86 -155 -86zM399 492q-166 0 -167 -182t128 -181q59 0 97 46q37 46 37 120v197h-95zM494 612v168q0 152 -125 152q-47 0 -84 -38t-37 -120h-166q0 143 80 223t210 80
t203 -73q84 -88 84 -234v-770h-157v94q-67 -110 -183 -110q-115 0 -185 78t-68 237q0 158 88 236t231 77h109z" />
    <glyph glyph-name="adieresis" unicode="&#xe4;" horiz-adv-x="768" 
d="M618 1231h-165v168h165v-168zM299 1231h-168v168h168v-168zM399 492q-166 0 -167 -182t128 -181q59 0 97 46q37 46 37 120v197h-95zM494 612v168q0 152 -125 152q-47 0 -84 -38t-37 -120h-166q0 143 80 223t210 80t203 -73q84 -88 84 -234v-770h-157v94
q-67 -110 -183 -110q-115 0 -185 78t-68 237q0 158 88 236t231 77h109z" />
    <glyph glyph-name="aring" unicode="&#xe5;" horiz-adv-x="768" 
d="M475 1397q0 41 -30 71q-31 30 -71 29q-40 0 -70 -30q-30 -31 -30 -71t30 -71t71 -31t71 31t29 72zM399 492q-166 0 -167 -182t128 -181q59 0 97 46q37 46 37 120v197h-95zM575 1397q0 -81 -58 -141t-141 -60t-142 58q-58 58 -58 142t57 141q57 58 141 58t143 -58
q58 -58 58 -140zM494 612v168q0 152 -125 152q-47 0 -84 -38t-37 -120h-166q0 143 80 223t210 80t203 -73q84 -88 84 -234v-770h-157v94q-67 -110 -183 -110q-115 0 -185 78t-68 237q0 158 88 236t231 77h109z" />
    <glyph glyph-name="ae" unicode="&#xe6;" horiz-adv-x="1173" 
d="M928 616q0 218 -39 266t-94 48t-95 -48t-41 -266h269zM399 492q-166 0 -167 -182t128 -181q59 0 97 46q37 46 37 120v197h-95zM307 -16q-103 0 -173 78t-68 237q0 158 88 236t231 77h109v168q0 152 -125 152q-51 0 -86 -40t-35 -118h-166q0 143 80 223t201 80t182 -53
q20 -18 39 -47q12 23 30 37q70 63 192 63q206 0 260 -211q22 -84 25 -158t3 -216h-435q0 -258 40 -308q39 -50 97 -51q58 0 95 42t37 120h164q-4 -147 -80 -229t-215 -82q-172 0 -250 147q-37 -72 -80 -102q-57 -45 -160 -45z" />
    <glyph glyph-name="ccedilla" unicode="&#xe7;" horiz-adv-x="741" 
d="M463 -78l-103 -295h-131l117 295h117zM82 530q0 178 16 284q40 264 285 263q283 0 291 -311h-164q0 84 -34 124t-93 40t-89 -41t-38 -120t-8 -239t8 -238t38 -118q30 -41 88 -41t93 39t35 123h164q-8 -313 -291 -311q-243 0 -285 262q-16 106 -16 284z" />
    <glyph glyph-name="egrave" unicode="&#xe8;" 
d="M528 1200h-127l-165 277h151zM604 616q0 218 -39 266t-95 48t-96 -48t-40 -266h270zM770 492h-436q0 -256 41 -308t97 -51q56 0 93 42t37 120h164q-4 -147 -80 -229t-210 -82t-214 82q-58 60 -76 168t-18 297t17 298t75 166q80 82 211 82t199 -74t84 -188t16 -323z" />
    <glyph glyph-name="eacute" unicode="&#xe9;" horiz-adv-x="761" 
d="M602 1477l-166 -277h-125l140 277h151zM518 616q0 218 -39 266t-95 48t-96 -48t-40 -266h270zM684 492h-436q0 -256 41 -308t97 -51q56 0 93 42t37 120h164q-4 -147 -80 -229t-210 -82t-214 82q-58 60 -76 168t-18 297t17 298t75 166q80 82 211 82t199 -74t84 -188
t16 -323z" />
    <glyph glyph-name="ecircumflex" unicode="&#xea;" horiz-adv-x="761" 
d="M643 1200h-135l-123 178l-121 -178h-137l190 277h138zM518 616q0 218 -39 266t-95 48t-96 -48t-40 -266h270zM684 492h-436q0 -256 41 -308t97 -51q56 0 93 42t37 120h164q-4 -147 -80 -229t-210 -82t-214 82q-58 60 -76 168t-18 297t17 298t75 166q80 82 211 82t199 -74
t84 -188t16 -323z" />
    <glyph glyph-name="edieresis" unicode="&#xeb;" horiz-adv-x="761" 
d="M629 1231h-166v168h166v-168zM309 1231h-168v168h168v-168zM518 616q0 218 -39 266t-95 48t-96 -48t-40 -266h270zM684 492h-436q0 -256 41 -308t97 -51q56 0 93 42t37 120h164q-4 -147 -80 -229t-210 -82t-214 82q-58 60 -76 168t-18 297t17 298t75 166q80 82 211 82
t199 -74t84 -188t16 -323z" />
    <glyph glyph-name="igrave" unicode="&#xec;" horiz-adv-x="399" 
d="M281 1200h-127l-166 277h151zM285 0h-166v1061h166v-1061z" />
    <glyph glyph-name="iacute" unicode="&#xed;" horiz-adv-x="399" 
d="M420 1477l-166 -277h-127l141 277h152zM285 0h-166v1061h166v-1061z" />
    <glyph glyph-name="icircumflex" unicode="&#xee;" horiz-adv-x="399" 
d="M459 1200h-135l-123 178l-123 -178h-135l190 277h135zM285 0h-166v1061h166v-1061z" />
    <glyph glyph-name="idieresis" unicode="&#xef;" horiz-adv-x="399" 
d="M125 1231h-168v168h168v-168zM444 1231h-168v168h168v-168zM285 0h-166v1061h166v-1061z" />
    <glyph glyph-name="eth" unicode="&#xf0;" 
d="M520 506q0 156 -7 226q-15 148 -127 149q-112 0 -128 -151q-8 -72 -8 -224t8 -224q17 -150 128 -149q112 0 127 148q7 69 7 225zM686 566q0 -234 -16 -334q-39 -247 -285 -248q-145 0 -223 95t-78 425q0 193 15 292t63 152q70 76 182 76q72 0 119 -33l-64 187h-159v125
h118l-55 155h168l55 -155h146v-125h-107l72 -222q49 -156 49 -390z" />
    <glyph glyph-name="ntilde" unicode="&#xf1;" horiz-adv-x="808" 
d="M530 1221q-70 1 -122 33t-95 32t-90 -47l-76 76q87 88 157 88t126 -34t92 -34q37 0 86 49l78 -77q-86 -86 -156 -86zM700 0h-165v780q0 72 -36 110t-91 38q-54 0 -90 -38t-35 -110v-780h-166v1061h159v-82q23 39 71 69t110 29q113 0 178 -74t65 -223v-780z" />
    <glyph glyph-name="ograve" unicode="&#xf2;" 
d="M541 1200h-127l-166 277h151zM604 531q0 165 -7 241q-15 158 -127 158t-128 -161q-8 -79 -8 -239t8 -238q16 -159 127 -159q113 -1 128 157q7 76 7 241zM770 530q0 -180 -15 -284q-38 -262 -286 -262q-243 0 -285 262q-16 106 -16 284t16 284q40 264 286 263
q246 0 285 -262q15 -105 15 -285z" />
    <glyph glyph-name="oacute" unicode="&#xf3;" horiz-adv-x="768" 
d="M602 1477l-166 -277h-125l140 277h151zM518 531q0 165 -7 241q-15 158 -127 158t-128 -161q-8 -79 -8 -239t8 -238q16 -159 127 -159q113 -1 128 157q7 76 7 241zM684 530q0 -180 -15 -284q-38 -262 -286 -262q-243 0 -285 262q-16 106 -16 284t16 284q40 264 286 263
q246 0 285 -262q15 -105 15 -285z" />
    <glyph glyph-name="ocircumflex" unicode="&#xf4;" horiz-adv-x="768" 
d="M643 1200h-135l-123 178l-121 -178h-137l190 277h138zM518 531q0 165 -7 241q-15 158 -127 158t-128 -161q-8 -79 -8 -239t8 -238q16 -159 127 -159q113 -1 128 157q7 76 7 241zM684 530q0 -180 -15 -284q-38 -262 -286 -262q-243 0 -285 262q-16 106 -16 284t16 284
q40 264 286 263q246 0 285 -262q15 -105 15 -285z" />
    <glyph glyph-name="otilde" unicode="&#xf5;" horiz-adv-x="768" 
d="M502 1221q-70 1 -122 33t-95 32t-90 -47l-76 76q87 88 157 88t125 -34t92 -34t87 49l77 -77q-86 -86 -155 -86zM518 531q0 165 -7 241q-15 158 -127 158t-128 -161q-8 -79 -8 -239t8 -238q16 -159 127 -159q113 -1 128 157q7 76 7 241zM684 530q0 -180 -15 -284
q-38 -262 -286 -262q-243 0 -285 262q-16 106 -16 284t16 284q40 264 286 263q246 0 285 -262q15 -105 15 -285z" />
    <glyph glyph-name="odieresis" unicode="&#xf6;" horiz-adv-x="768" 
d="M629 1231h-166v168h166v-168zM309 1231h-168v168h168v-168zM518 531q0 165 -7 241q-15 158 -127 158t-128 -161q-8 -79 -8 -239t8 -238q16 -159 127 -159q113 -1 128 157q7 76 7 241zM684 530q0 -180 -15 -284q-38 -262 -286 -262q-243 0 -285 262q-16 106 -16 284
t16 284q40 264 286 263q246 0 285 -262q15 -105 15 -285z" />
    <glyph glyph-name="divide" unicode="&#xf7;" horiz-adv-x="909" 
d="M557 807h-203v203h203v-203zM557 125h-203v203h203v-203zM815 487h-721v160h721v-160z" />
    <glyph glyph-name="oslash" unicode="&#xf8;" horiz-adv-x="757" 
d="M381 934q-57 0 -87 -41t-38 -120t-8 -243t10 -200l213 567q-33 37 -90 37zM387 127q57 0 87 41q30 42 38 120t8 238t-12 205l-211 -567q33 -37 90 -37zM684 530q0 -180 -15 -284q-38 -262 -286 -262q-86 0 -150 34l-40 -108h-119l73 186q-66 102 -65 434q0 178 16 284
q40 264 285 263q86 0 149 -35l43 109h119l-76 -186q66 -98 66 -435z" />
    <glyph glyph-name="ugrave" unicode="&#xf9;" horiz-adv-x="808" 
d="M475 1200h-127l-166 277h152zM692 0h-160v82q-22 -39 -70 -69t-110 -29q-113 0 -178 74t-65 223v780h165v-780q0 -72 36 -110t91 -38t91 38q35 38 34 110v780h166v-1061z" />
    <glyph glyph-name="uacute" unicode="&#xfa;" horiz-adv-x="808" 
d="M637 1477l-166 -277h-125l139 277h152zM692 0h-160v82q-22 -39 -70 -69t-110 -29q-113 0 -178 74t-65 223v780h165v-780q0 -72 36 -110t91 -38t91 38q35 38 34 110v780h166v-1061z" />
    <glyph glyph-name="ucircumflex" unicode="&#xfb;" horiz-adv-x="808" 
d="M666 1200h-136l-122 178l-121 -178h-137l190 277h137zM692 0h-160v82q-22 -39 -70 -69t-110 -29q-113 0 -178 74t-65 223v780h165v-780q0 -72 36 -110t91 -38t91 38q35 38 34 110v780h166v-1061z" />
    <glyph glyph-name="udieresis" unicode="&#xfc;" horiz-adv-x="808" 
d="M649 1231h-166v168h166v-168zM330 1231h-168v168h168v-168zM692 0h-160v82q-22 -39 -70 -69t-110 -29q-113 0 -178 74t-65 223v780h165v-780q0 -72 36 -110t91 -38t91 38q35 38 34 110v780h166v-1061z" />
    <glyph glyph-name="yacute" unicode="&#xfd;" horiz-adv-x="706" 
d="M575 1477l-165 -277h-125l139 277h151zM43 -397v147q82 0 127 27t63 96l33 129l-258 1059h182l162 -797l160 797h182l-299 -1231q-33 -133 -119 -180t-233 -47z" />
    <glyph glyph-name="thorn" unicode="&#xfe;" horiz-adv-x="796" 
d="M285 289q0 -156 127 -156q111 0 126 158q7 75 7 240t-7 241q-15 158 -126 158q-53 0 -90 -37t-37 -119v-485zM285 -397h-166v1855h160v-479q18 37 68 67t112 31q111 0 176 -78q47 -55 61 -159t15 -310q0 -205 -15 -309q-32 -237 -242 -237q-115 0 -169 90v-471z" />
    <glyph glyph-name="ydieresis" unicode="&#xff;" horiz-adv-x="706" 
d="M602 1231h-166v168h166v-168zM283 1231h-168v168h168v-168zM43 -397v147q82 0 127 27t63 96l33 129l-258 1059h182l162 -797l160 797h182l-299 -1231q-33 -133 -119 -180t-233 -47z" />
    <glyph glyph-name="dotlessi" unicode="&#x131;" horiz-adv-x="399" 
d="M285 0h-166v1061h166v-1061z" />
    <glyph glyph-name="Lslash" unicode="&#x141;" horiz-adv-x="753" 
d="M707 0h-562v563l-98 -88v174l98 90v719h177v-573l192 172v-174l-192 -172v-553h385v-158z" />
    <glyph glyph-name="lslash" unicode="&#x142;" horiz-adv-x="522" 
d="M481 0q-154 0 -231 66q-94 78 -94 237v330l-117 -115v168l117 113v659h166v-516l118 115v-166l-118 -117v-465q0 -160 159 -159v-150z" />
    <glyph glyph-name="OE" unicode="&#x152;" horiz-adv-x="1273" 
d="M633 729q0 266 -12 374q-11 108 -51 161t-118 53t-116 -53q-39 -53 -51 -161q-13 -108 -13 -374t12 -374q12 -109 52 -161q39 -52 117 -52q79 0 117 52q38 54 50 162t13 373zM1188 0h-547v68q-71 -84 -211 -84t-227 104q-66 78 -86 215q-21 137 -21 428t21 427
q20 136 86 212q90 104 230 104t208 -83v67h547v-158h-385v-489h332v-158h-332v-495h385v-158z" />
    <glyph glyph-name="oe" unicode="&#x153;" horiz-adv-x="1200" 
d="M954 616q0 218 -39 266t-95 48t-96 -48t-40 -266h270zM518 531q0 165 -7 241q-15 158 -127 158t-128 -161q-8 -79 -8 -239t8 -238q16 -159 127 -159q113 -1 128 157q7 76 7 241zM386 1077q152 0 218 -114q18 33 37 49q71 66 191 66t188 -75q68 -74 84 -188t16 -323h-436
q0 -256 41 -308t97 -51q56 0 93 42t37 120h164q-4 -147 -84 -234q-76 -77 -219 -77t-209 116q-14 -29 -37 -51q-76 -66 -184 -65q-243 0 -285 262q-16 106 -16 284t16 284q40 263 288 263z" />
    <glyph glyph-name="Scaron" unicode="&#x160;" horiz-adv-x="860" 
d="M694 1827l-190 -277h-139l-189 277h137l121 -178l123 178h137zM428 1313q-164 0 -164 -219q0 -109 27 -154t112 -82l164 -67q121 -49 163 -135t42 -290q0 -202 -90 -292q-92 -88 -259 -88t-255 88q-49 49 -70 119q-20 70 -20 188h176q0 -139 45 -187t126 -49t126 49
t45 185t-28 187t-115 89l-166 68q-113 47 -156 124t-43 258t111 281q89 84 237 84t240 -89t92 -294h-176q0 121 -42 173t-122 53z" />
    <glyph glyph-name="scaron" unicode="&#x161;" horiz-adv-x="735" 
d="M635 1468l-191 -276h-139l-188 276h137l121 -178l123 178h137zM672 274q0 -116 -86 -203t-221 -87t-219 87t-85 228h164q0 -82 41 -124q40 -42 100 -42t100 40q40 41 40 101t-27 101t-94 76l-137 69q-102 52 -140 116t-38 146q0 127 84 211t214 84t205 -76
q86 -82 86 -233h-163q0 86 -37 125t-93 39t-94 -37t-36 -91q0 -54 20 -90t86 -67l135 -67q107 -51 151 -120q44 -70 44 -186z" />
    <glyph glyph-name="Ydieresis" unicode="&#x178;" horiz-adv-x="722" 
d="M608 1589h-166v168h166v-168zM289 1589h-168v168h168v-168zM449 0h-177v590l-268 868h193l163 -622l164 622h195l-270 -868v-590z" />
    <glyph glyph-name="Zcaron" unicode="&#x17d;" horiz-adv-x="714" 
d="M625 1827l-191 -277h-139l-189 277h138l121 -178l122 178h138zM651 0h-588v133l406 1167h-379v158h561v-133l-403 -1167h403v-158z" />
    <glyph glyph-name="zcaron" unicode="&#x17e;" horiz-adv-x="616" 
d="M582 1468l-191 -276h-139l-189 276h138l121 -178l122 178h138zM567 0h-518v127l334 786h-311v148h495v-127l-334 -784h334v-150z" />
    <glyph glyph-name="florin" unicode="&#x192;" horiz-adv-x="718" 
d="M674 1319h-62q-59 0 -101 -36t-54 -99l-72 -396h162v-126h-185l-198 -1059h-164l197 1059h-111v126h135l72 404q25 135 110 205q86 70 209 69h62v-147z" />
    <glyph glyph-name="circumflex" unicode="&#x2c6;" 
d="M643 1200h-135l-123 178l-121 -178h-137l190 277h138z" />
    <glyph glyph-name="caron" unicode="&#x2c7;" 
d="M645 1468l-190 -276h-140l-188 276h137l121 -178l123 178h137z" />
    <glyph glyph-name="breve" unicode="&#x2d8;" 
d="M386 1198q-226 0 -241 227h119q12 -109 121 -109t121 109h121q-15 -227 -241 -227z" />
    <glyph glyph-name="dotaccent" unicode="&#x2d9;" 
d="M469 1268h-166v166h166v-166z" />
    <glyph glyph-name="ring" unicode="&#x2da;" 
d="M485 1397q1 41 -29 71t-71 29q-41 0 -71 -30q-30 -31 -30 -71t30 -71t71 -31t71 31q29 31 29 72zM586 1397q0 -81 -60 -141t-141 -60q-82 0 -140 58q-59 58 -59 142t58 141q58 58 142 58t142 -58t58 -140z" />
    <glyph glyph-name="ogonek" unicode="&#x2db;" 
d="M543 -373h-131l-103 295h117z" />
    <glyph glyph-name="tilde" unicode="&#x2dc;" 
d="M504 1221q-70 1 -122 33t-95 32t-90 -47l-76 76q87 88 157 88t125 -34t93 -34t86 49l77 -77q-86 -86 -155 -86z" />
    <glyph glyph-name="hungarumlaut" unicode="&#x2dd;" 
d="M412 1468l-142 -276h-120l108 276h154zM719 1468l-139 -276h-121l106 276h154z" />
    <glyph glyph-name="endash" unicode="&#x2013;" horiz-adv-x="909" 
d="M815 500h-721v157h721v-157z" />
    <glyph glyph-name="emdash" unicode="&#x2014;" horiz-adv-x="1415" 
d="M1311 500h-1207v157h1207v-157z" />
    <glyph glyph-name="quoteleft" unicode="&#x2018;" horiz-adv-x="423" 
d="M305 1260h-188v198l188 139v-337z" />
    <glyph glyph-name="quoteright" unicode="&#x2019;" horiz-adv-x="423" 
d="M117 1458h188v-198l-188 -140v338z" />
    <glyph glyph-name="quotesinglbase" unicode="&#x201a;" horiz-adv-x="423" 
d="M117 199h188v-199l-188 -139v338z" />
    <glyph glyph-name="quotedblleft" unicode="&#x201c;" horiz-adv-x="763" 
d="M305 1260h-188v198l188 139v-337zM647 1260h-188v198l188 139v-337z" />
    <glyph glyph-name="quotedblright" unicode="&#x201d;" horiz-adv-x="763" 
d="M117 1458h188v-198l-188 -140v338zM459 1458h188v-198l-188 -140v338z" />
    <glyph glyph-name="quotedblbase" unicode="&#x201e;" horiz-adv-x="763" 
d="M117 199h188v-199l-188 -139v338zM459 199h188v-199l-188 -139v338z" />
    <glyph glyph-name="dagger" unicode="&#x2020;" horiz-adv-x="907" 
d="M811 922h-279v-922h-157v922h-281v139h281v397h157v-397h279v-139z" />
    <glyph glyph-name="daggerdbl" unicode="&#x2021;" horiz-adv-x="907" 
d="M811 0h-279v-397h-157v397h-281v139h281v783h-281v139h281v397h157v-397h279v-139h-279v-783h279v-139z" />
    <glyph glyph-name="bullet" unicode="&#x2022;" horiz-adv-x="931" 
d="M799 684q-1 -138 -99 -236t-235 -98t-236 97q-98 97 -98 237t98 236q97 98 235 98t236 -98t99 -236z" />
    <glyph glyph-name="ellipsis" unicode="&#x2026;" horiz-adv-x="1230" 
d="M717 0h-203v203h203v-203zM324 0h-203v203h203v-203zM1112 0h-203v203h203v-203z" />
    <glyph glyph-name="perthousand" unicode="&#x2030;" horiz-adv-x="1986" 
d="M426 938v309q0 104 -92 105q-90 0 -90 -105v-309q0 -104 91 -104t91 104zM1743 211v309q0 104 -92 105q-90 0 -90 -105v-309q0 -104 90 -105q92 1 92 105zM1139 211v309q0 104 -92 105q-92 0 -93 -105v-309q0 -104 93 -105q92 1 92 105zM1012 1458l-508 -1458h-133
l508 1458h133zM565 934q0 -104 -65 -165q-66 -60 -166 -60t-165 60t-65 165v315q0 105 65 165t165 60t166 -60t65 -165v-315zM1882 209q0 -104 -65 -165q-66 -60 -166 -60t-165 60t-65 165v315q0 104 65 164t165 62q100 0 166 -60t65 -166v-315zM1278 209q0 -105 -66 -165
t-166 -60t-165 60q-66 60 -66 165v315q0 104 66 164t166 62q99 0 165 -60t66 -166v-315z" />
    <glyph glyph-name="guilsinglleft" unicode="&#x2039;" horiz-adv-x="460" 
d="M356 86l-303 471l303 469v-260l-139 -209l139 -211v-260z" />
    <glyph glyph-name="guilsinglright" unicode="&#x203a;" horiz-adv-x="460" 
d="M408 557l-304 -471v260l140 211l-140 209v260z" />
    <glyph glyph-name="fraction" unicode="&#x2044;" horiz-adv-x="221" 
d="M430 1458l-506 -1458h-131l504 1458h133z" />
    <glyph glyph-name="Euro" unicode="&#x20ac;" horiz-adv-x="970" 
d="M68 510v127h120v184h-120v127h125q3 180 25 272t77 150q95 104 243 104t244 -92q96 -93 101 -284h-176q-4 219 -162 219q-80 0 -116 -48q-36 -47 -47 -109t-13 -212h245v-127h-247v-184h247v-127h-245q2 -150 13 -211t49 -109t114 -49q158 0 162 219h176
q-4 -197 -113 -297q-86 -79 -234 -79t-241 104q-55 58 -78 150t-24 272h-125z" />
    <glyph glyph-name="trademark" unicode="&#x2122;" horiz-adv-x="1261" 
d="M473 1352h-149v-781h-115v781h-150v106h414v-106zM1153 571h-117v598l-133 -385h-72l-133 377v-590h-114v887h106l178 -477l176 477h109v-887z" />
    <glyph glyph-name="minus" unicode="&#x2212;" horiz-adv-x="610" 
d="M506 500h-402v157h402v-157z" />
    <glyph glyph-name="fi" unicode="&#xfb01;" horiz-adv-x="882" 
d="M780 1249h-194v193h194v-193zM766 0h-166v1061h166v-1061zM485 932h-163v-932h-166v932h-121v129h121v104q0 162 85 233t244 70v-149q-84 0 -124 -38t-39 -122v-98h163v-129z" />
    <glyph glyph-name="fl" unicode="&#xfb02;" horiz-adv-x="958" 
d="M926 0q-154 0 -232 66q-94 78 -94 237v1155h166v-1149q0 -160 160 -159v-150zM485 932h-163v-932h-166v932h-121v129h121v104q0 162 85 233t244 70v-149q-164 0 -163 -160v-98h163v-129z" />
    <glyph glyph-name="eurocurrency" horiz-adv-x="1220" 
d="M821 569q0 89 -61 151q-60 62 -150 62t-151 -61t-61 -151t62 -150q62 -62 150 -62t150 62t61 149zM610 211q-104 0 -196 61l-115 -116l-104 104l116 115q-59 88 -59 194t59 197l-116 115l104 104l115 -115q86 58 196 58t195 -58l115 115l104 -104l-117 -115
q61 -92 61 -196t-61 -195l117 -115l-104 -104l-115 116q-91 -61 -195 -61z" />
    </font>
</defs>
</svg>
