<?xml version="1.0" standalone="no"?>
<!DOCTYPE svg PUBLIC "-//W3C//DTD SVG 1.1//EN" "http://www.w3.org/Graphics/SVG/1.1/DTD/svg11.dtd" >
<svg xmlns="http://www.w3.org/2000/svg">
<metadata>
Created by FontPrep 20130207 at Wed Oct  8 12:32:47 2014
 By Davo
\251 Dutch Design: Albert-Jan Pool, 1995. Published by FontShop International FontFont release 15
</metadata>
<defs>
<font id="2027e760254904bf0a383b6efd34e0f4" horiz-adv-x='1024' >
  <font-face 
    font-family="DIN-Light"
    font-weight="5"
    font-stretch="normal"
    units-per-em="2048"
    panose-1="0 0 0 0 0 0 0 0 0 0"
    ascent="1638"
    descent="-410"
    x-height="987"
    cap-height="1458"
    bbox="-205 -483 2251 1997"
    underline-thickness="77"
    underline-position="-250"
    unicode-range="U+0020-F002"
  />
<missing-glyph horiz-adv-x="1564" 
d="M1372 96v1372h-1179v-1372h1179zM96 0v1565h1372v-1565h-1372z" />
    <glyph glyph-name=".notdef" horiz-adv-x="1564" 
d="M1372 96v1372h-1179v-1372h1179zM96 0v1565h1372v-1565h-1372z" />
    <glyph glyph-name=".null" horiz-adv-x="0" 
 />
    <glyph glyph-name="nonmarkingreturn" horiz-adv-x="522" 
 />
    <glyph glyph-name="space" unicode=" " horiz-adv-x="522" 
 />
    <glyph glyph-name="exclam" unicode="!" horiz-adv-x="622" 
d="M272 0v137h138v-137h-138zM391 393h-100l-6 1065h112z" />
    <glyph glyph-name="quotedbl" unicode="&#x22;" horiz-adv-x="835" 
d="M195 1139v319h129v-319h-129zM512 1139v319h129v-319h-129z" />
    <glyph glyph-name="numbersign" unicode="#" horiz-adv-x="1308" 
d="M537 895l-52 -313h359l51 313h-358zM1145 582v-90h-211l-78 -492h-104l79 492h-360l-76 -492h-104l78 492h-197v90h211l51 313h-203v92h215l74 471h107l-76 -471h358l74 471h102l-73 -471h192v-92h-205l-51 -313h197z" />
    <glyph glyph-name="dollar" unicode="$" horiz-adv-x="1202" 
d="M635 88q156 0 246 82t90 216t-80 206q-51 43 -96 55t-160 29v-588zM543 1374q-139 0 -219 -84t-80 -213t80.5 -197t218.5 -85v579zM635 -10v-223h-92v221q-137 0 -237.5 46t-201.5 146l78 78q170 -170 361 -170v604l-33 4q-78 10 -145.5 39t-148.5 97.5t-81 241.5
t110.5 283.5t297.5 110.5v183h92v-183q109 0 196 -38.5t177 -116.5l-72 -72q-76 68 -139.5 100.5t-161.5 32.5v-594l59 -10q109 -20 161 -37.5t139 -90.5t87 -251t-119.5 -289.5t-326.5 -111.5z" />
    <glyph glyph-name="percent" unicode="%" horiz-adv-x="1695" 
d="M231 983q-1 -199 179 -199t180 199v211q0 201 -179.5 201t-179.5 -201v-211zM1106 264q0 -201 179 -201t179 201v211q0 201 -179 201t-179 -201v-211zM413 707q-120 0 -196 75.5t-76 196.5v219q0 123 74 199t195 76t195.5 -77t74.5 -198v-219q0 -121 -73.5 -196.5
t-193.5 -75.5zM555 0h-92l680 1458h92zM1286 -14q-121 0 -195.5 76.5t-74.5 197.5v219q0 123 73.5 199t194.5 76t195.5 -77t74.5 -198v-219q0 -123 -73.5 -198.5t-194.5 -75.5z" />
    <glyph glyph-name="ampersand" unicode="&#x26;" horiz-adv-x="1527" 
d="M283 401q0 -134 94 -224.5t246 -90.5q100 0 192 35t197 127l-443 534q-152 -104 -219 -175.5t-67 -205.5zM642 1372q-81 0 -134 -53t-53 -123t27.5 -122t115.5 -159l84 58q74 49 110.5 93t36.5 120t-53 131t-134 55zM1274 698q0 -289 -127 -444l209 -254h-142l-141 172
q-74 -70 -182.5 -127t-265.5 -57q-203 0 -328 114.5t-125 284.5t81 262t253 207q-98 117 -130 186.5t-32 137.5q0 123 86 206.5t211 83.5t211 -83.5t86 -208.5q0 -151 -168 -263l-108 -73l417 -506q47 74 66.5 151.5t19.5 210.5h109z" />
    <glyph glyph-name="quotesingle" unicode="'" horiz-adv-x="518" 
d="M195 1139v319h129v-319h-129z" />
    <glyph glyph-name="parenleft" unicode="(" horiz-adv-x="581" 
d="M199 162v1134q0 117 30.5 175.5t53 85t90.5 94.5l71 -72q-33 -33 -87 -90.5t-54 -204.5v-1110q0 -96 22.5 -144t47 -76t71.5 -75l-71 -72q-104 104 -139 172t-35 183z" />
    <glyph glyph-name="parenright" unicode=")" horiz-adv-x="581" 
d="M272 174v1110q0 98 -21.5 143.5t-46 73t-71.5 74.5l76 76q103 -103 131.5 -155t35.5 -95t7 -105v-1134q0 -121 -31 -177q-31 -57 -53.5 -83.5t-89.5 -94.5l-76 76q31 33 64 64q57 65 66 120.5t9 106.5z" />
    <glyph glyph-name="asterisk" unicode="*" horiz-adv-x="956" 
d="M764 897l-246 150l6 -289h-92l6 289l-245 -150l-46 78l252 139l-252 139l46 78l245 -149l-6 288h92l-6 -288l246 149l45 -78l-252 -139l252 -139z" />
    <glyph glyph-name="plus" unicode="+" 
d="M575 492v-371h-96v371h-370v96h370v368h96v-368h369v-96h-369z" />
    <glyph glyph-name="comma" unicode="," horiz-adv-x="528" 
d="M195 139h139v-278l-139 -140v418z" />
    <glyph glyph-name="hyphen" unicode="-" horiz-adv-x="872" 
d="M168 492v96h537v-96h-537z" />
    <glyph glyph-name="period" unicode="." horiz-adv-x="540" 
d="M195 0v152h151v-152h-151z" />
    <glyph glyph-name="slash" unicode="/" horiz-adv-x="692" 
d="M109 -152h-109l584 1762h108z" />
    <glyph glyph-name="zero" unicode="0" 
d="M805 1071q0 135 -73 221t-205 86t-205.5 -86t-73.5 -221v-684q0 -135 72.5 -221t204.5 -86t206 86t74 221v684zM526 -12q-170 0 -276.5 108.5t-106.5 280.5v704q0 172 106.5 280.5t276.5 108.5t276.5 -108.5t106.5 -280.5v-704q0 -172 -106.5 -280.5t-276.5 -108.5z" />
    <glyph glyph-name="one" unicode="1" 
d="M537 0v1339l-265 -233v125l265 227h104v-1458h-104z" />
    <glyph glyph-name="two" unicode="2" 
d="M147 0v92l586 768q82 104 82 232t-74.5 207t-201.5 79t-206 -72.5t-79 -218.5h-104q0 168 103 275.5t281 107.5t282 -104t104 -279q0 -82 -23 -144t-78 -136l-547 -715h648v-92h-773z" />
    <glyph glyph-name="three" unicode="3" 
d="M887 1085q0 -241 -207 -331q236 -80 235 -365q0 -188 -115.5 -295.5t-298 -107.5t-299 93t-116.5 275h104q0 -139 91.5 -207.5t222.5 -68.5t219 84t88 232q0 306 -317 306h-25v93h25q289 0 288 292q0 139 -79.5 217t-204.5 78t-200 -70.5t-89 -195.5h-105
q14 168 123 263.5t277 95.5t275.5 -105.5t107.5 -282.5z" />
    <glyph glyph-name="four" unicode="4" 
d="M770 240v-240h-104v240h-578v92l537 1126h110l-536 -1126h467v463h104v-463h195v-92h-195z" />
    <glyph glyph-name="five" unicode="5" 
d="M526 -14q-180 0 -250.5 71.5t-97 131t-26.5 133.5h104q16 -121 81.5 -182.5t192.5 -61.5t192.5 65.5t81 144.5t15.5 189q0 223 -73.5 306t-185.5 83t-183.5 -40t-93.5 -113h-93v745h701v-92h-608v-516q94 108 264 108t248.5 -78.5t103.5 -176t25 -229.5t-20.5 -222
t-92.5 -162q-105 -104 -285 -104z" />
    <glyph glyph-name="six" unicode="6" 
d="M532 727q-131 0 -206.5 -88t-75.5 -235.5t75.5 -235.5t204.5 -88t206 89t77 230t-75 234.5t-206 93.5zM531 -12q-179 0 -282.5 113.5t-103.5 295.5q0 137 82 305l375 756h105l-336 -674q74 35 170 35q174 0 275.5 -115.5t101.5 -294.5t-104 -300t-283 -121z" />
    <glyph glyph-name="seven" unicode="7" 
d="M281 1366v-229h-105v321h764v-92l-516 -1366h-107l517 1366h-553z" />
    <glyph glyph-name="eight" unicode="8" 
d="M527 709q-134 0 -223 -91.5t-89 -224.5t88 -223t221 -90t223.5 90t90.5 224t-88.5 224.5t-222.5 90.5zM525 1378q-124 0 -201.5 -79.5t-77.5 -208.5t77.5 -209t202.5 -80t203 80t78 208t-79 208.5t-203 80.5zM942 393q0 -176 -118.5 -290.5t-297 -114.5t-297 114.5
t-118.5 290.5q0 121 61 214t170 151q-201 107 -201 332q0 162 107.5 271t277.5 109t277.5 -107.5t107.5 -272.5q0 -225 -198 -332q229 -120 229 -365z" />
    <glyph glyph-name="nine" unicode="9" 
d="M521 1378q-130 0 -205.5 -88t-75.5 -231t72.5 -235.5t203.5 -92.5t209 89.5t78 235.5t-76 234t-206 88zM510 639q-174 0 -274.5 115.5t-100.5 295.5t103.5 300t282.5 120t282.5 -113.5t103.5 -295.5q0 -137 -82 -305l-374 -756h-105l336 674q-74 -35 -172 -35z" />
    <glyph glyph-name="colon" unicode=":" horiz-adv-x="598" 
d="M252 0v152h151v-152h-151zM252 639v152h151v-152h-151z" />
    <glyph glyph-name="semicolon" unicode=";" horiz-adv-x="598" 
d="M256 139h139v-278l-139 -140v418zM252 639v152h151v-152h-151z" />
    <glyph glyph-name="less" unicode="&#x3c;" horiz-adv-x="2103" 
d="M1987 590v-103h-1678l776 -776h-141l-827 828l827 827h141l-776 -776h1678z" />
    <glyph glyph-name="equal" unicode="=" 
d="M109 334v96h835v-96h-835zM109 647v96h835v-96h-835z" />
    <glyph glyph-name="greater" unicode="&#x3e;" horiz-adv-x="2103" 
d="M117 487v103h1677l-776 776h141l828 -827l-828 -828h-141l776 776h-1677z" />
    <glyph glyph-name="question" unicode="?" horiz-adv-x="999" 
d="M475 0v137h137v-137h-137zM596 487v-96h-104v92q0 101 59 185l172 254q70 108 70 206q0 97 -75 173.5t-190 76.5t-187.5 -78.5t-72.5 -189.5h-104q0 152 102 256t262 104t264.5 -102t104.5 -258q0 -66 -22.5 -121t-67.5 -123l-174 -256q-37 -60 -37 -123z" />
    <glyph glyph-name="at" unicode="@" horiz-adv-x="1427" 
d="M889 909q-166 0 -221.5 -113.5t-55.5 -329.5t73 -302t204 -86q166 0 221 114t55 330t-72.5 301.5t-203.5 85.5zM1165 0v121q-98 -135 -282 -135t-259 98t-95.5 184t-20.5 226q0 256 88 381.5t276 125.5q187 0 293 -139v182q0 88 -18.5 141.5t-84.5 121t-214 67.5h-270
q-145 0 -212 -66.5t-85.5 -119.5t-18.5 -144v-722q0 -104 24.5 -156.5t102.5 -108.5l-72 -71q-94 66 -126.5 133t-32.5 203v716q0 193 109.5 306.5t291.5 113.5h307q178 0 291 -112.5t113 -307.5v-1038h-105z" />
    <glyph glyph-name="A" unicode="A" horiz-adv-x="1232" 
d="M616 1311l-305 -858h611zM1083 0l-127 354h-680l-126 -354h-119l536 1458h99l536 -1458h-119z" />
    <glyph glyph-name="B" unicode="B" horiz-adv-x="1374" 
d="M766 696h-430v-598h430q150 0 240 80t90 219.5t-90 219t-240 79.5zM750 1360h-414v-565h414q141 0 232 69.5t91 213t-89 213t-234 69.5zM778 0h-553v1458h537q186 0 304 -101.5t118 -279.5q0 -117 -60.5 -205t-167.5 -122q119 -39 184.5 -132.5t65.5 -220.5
q0 -193 -114.5 -295t-313.5 -102z" />
    <glyph glyph-name="C" unicode="C" horiz-adv-x="1318" 
d="M168 708q0 250 11 375t142.5 256t337.5 131t337.5 -112.5t166.5 -313.5h-112q-33 154 -134 241t-257 87t-249.5 -93t-112.5 -198t-19 -335t11 -343.5t112 -215t257 -101.5t259.5 87t136.5 241h108q-35 -197 -167.5 -311.5t-337.5 -114.5t-326 120.5t-142.5 235
t-21.5 364.5z" />
    <glyph glyph-name="D" unicode="D" horiz-adv-x="1388" 
d="M688 1360h-352v-1262h352q98 0 175 24.5t145.5 95.5t85 198t16.5 334v63q0 197 -26 287t-84 149q-109 111 -312 111zM715 0h-490v1458h490q231 0 346 -114.5t137.5 -248.5t22.5 -355t-22 -365t-120 -242q-133 -133 -364 -133z" />
    <glyph glyph-name="E" unicode="E" horiz-adv-x="1224" 
d="M225 0v1458h885v-98h-774v-576h659v-98h-659v-588h774v-98h-885z" />
    <glyph glyph-name="F" unicode="F" horiz-adv-x="1179" 
d="M336 1360v-600h659v-98h-659v-662h-111v1458h885v-98h-774z" />
    <glyph glyph-name="G" unicode="G" horiz-adv-x="1333" 
d="M672 -12q-104 0 -200.5 39t-178.5 120.5t-103.5 196t-21.5 364.5t11 375t142.5 256t335.5 131t338.5 -114.5t169.5 -311.5h-110q-33 152 -136 240t-259 88t-249.5 -93t-112.5 -198t-19 -335t11 -343.5t112 -215t276 -101.5q176 0 278.5 125t102.5 305v131h-391v98h501
v-237q0 -117 -26 -199.5t-95 -156.5t-170.5 -119t-205.5 -45z" />
    <glyph glyph-name="H" unicode="H" horiz-adv-x="1431" 
d="M1096 0v686h-760v-686h-111v1458h111v-674h760v674h110v-1458h-110z" />
    <glyph glyph-name="I" unicode="I" horiz-adv-x="561" 
d="M225 0v1458h111v-1458h-111z" />
    <glyph glyph-name="J" unicode="J" horiz-adv-x="1019" 
d="M384 -12q-198 0 -323 125l76 75q49 -49 102.5 -75.5t141.5 -26.5q158 0 241 95t83 272v1005h110v-1028q0 -201 -116.5 -321.5t-314.5 -120.5z" />
    <glyph glyph-name="K" unicode="K" horiz-adv-x="1320" 
d="M336 0h-111v1458h111v-911l739 911h133l-450 -557l526 -901h-131l-469 817l-348 -422v-395z" />
    <glyph glyph-name="L" unicode="L" horiz-adv-x="1171" 
d="M225 0v1458h111v-1360h774v-98h-885z" />
    <glyph glyph-name="M" unicode="M" horiz-adv-x="1675" 
d="M1339 0v1202l-442 -997h-111l-450 997v-1202h-111v1458h111l508 -1124l495 1124h111v-1458h-111z" />
    <glyph glyph-name="N" unicode="N" horiz-adv-x="1513" 
d="M336 0h-111v1458h111l842 -1263v1263h110v-1458h-110l-842 1268v-1268z" />
    <glyph glyph-name="O" unicode="O" horiz-adv-x="1335" 
d="M668 1372q-164 0 -257.5 -93t-112.5 -198t-19 -335t11 -343.5t112 -215t265 -101.5q165 0 258 93t112.5 198t19.5 335t-11.5 344t-101.5 204q-112 112 -276 112zM168 708q0 250 11 375t142.5 256t347.5 131t335.5 -120.5t141 -235t21.5 -364.5t-11 -375t-124 -238
q-150 -149 -364 -149t-335.5 120.5t-143 235t-21.5 364.5z" />
    <glyph glyph-name="P" unicode="P" horiz-adv-x="1292" 
d="M748 1360h-412v-643h412q158 0 250 81t92 240.5t-93 240.5t-249 81zM760 618h-424v-618h-111v1458h535q197 0 318.5 -110.5t121.5 -307.5t-122.5 -309.5t-317.5 -112.5z" />
    <glyph glyph-name="Q" unicode="Q" horiz-adv-x="1333" 
d="M668 1372q-164 0 -257.5 -93t-112.5 -198t-19 -335t11 -343.5t112 -215t253 -101.5t260 86l-204 205l73 74l203 -203q43 63 56.5 167.5t13.5 315.5t-11.5 325t-101.5 204q-112 112 -276 112zM168 708q0 250 11 375t142.5 256t347.5 131t335.5 -120.5t141 -234
t21.5 -361.5t-9 -364t-95 -218l172 -172l-74 -74l-172 172q-139 -111 -321 -110q-215 0 -336 120.5t-142.5 235t-21.5 364.5z" />
    <glyph glyph-name="R" unicode="R" horiz-adv-x="1345" 
d="M766 1360h-430v-590h430q147 0 234 74t87 220t-87 221t-234 75zM336 672v-672h-111v1458h555q182 0 300 -103.5t118 -276.5t-90 -275.5t-246 -128.5l352 -674h-129l-348 672h-401z" />
    <glyph glyph-name="S" unicode="S" horiz-adv-x="1202" 
d="M590 -12q-164 0 -272.5 44t-213.5 148l78 78q96 -96 188 -134t246 -38t254.5 80t100.5 217t-60.5 190.5t-99.5 67.5t-131 29l-170 26q-166 25 -270.5 114t-104.5 266t121 285.5t332 108.5q133 0 227 -35.5t193 -121.5l-72 -72q-78 70 -155 102.5t-217 32.5t-230 -80
t-90 -214t79.5 -200.5t213.5 -86.5l157 -25q106 -16 157.5 -34.5t140.5 -92.5t89 -255t-132 -290.5t-359 -109.5z" />
    <glyph glyph-name="T" unicode="T" horiz-adv-x="1103" 
d="M606 1360v-1360h-110v1360h-435v98h981v-98h-436z" />
    <glyph glyph-name="U" unicode="U" horiz-adv-x="1409" 
d="M704.5 -12q-221.5 0 -360.5 135t-139 350v985h110v-971q0 -180 106.5 -290.5t283 -110.5t283 108.5t106.5 292.5v971h110v-985q0 -215 -139 -350t-360.5 -135z" />
    <glyph glyph-name="V" unicode="V" horiz-adv-x="1093" 
d="M594 0h-94l-480 1458h117l410 -1263l409 1263h117z" />
    <glyph glyph-name="W" unicode="W" horiz-adv-x="1724" 
d="M1319 0h-113l-344 1270l-344 -1270h-112l-365 1458h117l307 -1268l340 1268h115l340 -1268l307 1268h116z" />
    <glyph glyph-name="X" unicode="X" horiz-adv-x="1089" 
d="M924 0l-381 649l-381 -649h-125l446 748l-417 710h129l348 -612l350 612h127l-418 -710l451 -748h-129z" />
    <glyph glyph-name="Y" unicode="Y" horiz-adv-x="1011" 
d="M561 0h-110v604l-431 854h119l371 -737l362 737h119l-430 -854v-604z" />
    <glyph glyph-name="Z" unicode="Z" horiz-adv-x="1144" 
d="M129 0v117l768 1243h-737v98h856v-98l-774 -1262h774v-98h-887z" />
    <glyph glyph-name="bracketleft" unicode="[" horiz-adv-x="593" 
d="M199 -152v1762h303v-92h-199v-1577h199v-93h-303z" />
    <glyph glyph-name="backslash" unicode="\" horiz-adv-x="692" 
d="M584 -152l-584 1762h109l583 -1762h-108z" />
    <glyph glyph-name="bracketright" unicode="]" horiz-adv-x="593" 
d="M92 -152v86h205v1590h-205v86h303v-1762h-303z" />
    <glyph glyph-name="asciicircum" unicode="^" 
d="M793 864l-267 496l-266 -496h-104l323 606h94l324 -606h-104z" />
    <glyph glyph-name="underscore" unicode="_" 
d="M0 -328v78h1053v-78h-1053z" />
    <glyph glyph-name="grave" unicode="`" horiz-adv-x="1024" 
d="M489 1208l-217 301h138l198 -301h-119z" />
    <glyph glyph-name="a" unicode="a" horiz-adv-x="1073" 
d="M778 471h-307q-252 0 -252 -199q0 -193 258 -192q82 0 139.5 14.5t109.5 64.5t52 185v127zM778 666q0 241 -256 241q-126 0 -187 -27.5t-108 -97.5l-75 66q59 84 142 117.5t206 33.5q383 0 383 -323v-676h-105v98q-61 -61 -128.5 -85.5t-174.5 -24.5t-174.5 20.5
t-126.5 83t-59 188.5t91 200.5t253 74.5h319v111z" />
    <glyph glyph-name="b" unicode="b" horiz-adv-x="1105" 
d="M583 907q-165 0 -222.5 -112.5t-57.5 -301t56.5 -301t221.5 -112.5t222 112.5t57 301t-56 301t-221 112.5zM596 999q369 0 369 -505q0 -137 -48 -321.5t-329 -184.5q-84 0 -155 29.5t-130 109.5v-127h-104v1458h104v-598q59 80 130 109.5t163 29.5z" />
    <glyph glyph-name="c" unicode="c" horiz-adv-x="1009" 
d="M575 -12q-201 0 -317.5 135t-116.5 370.5t117 370.5t317 135q106 0 175 -31.5t151 -119.5l-72 -66q-63 72 -118.5 98.5t-135.5 26.5q-172 0 -250.5 -114.5t-78.5 -298.5q0 -102 14 -165t78.5 -156t236.5 -93q80 0 135.5 26.5t118.5 98.5l72 -66q-78 -86 -151 -118.5
t-175 -32.5z" />
    <glyph glyph-name="d" unicode="d" horiz-adv-x="1105" 
d="M525 907q-165 0 -222 -112.5t-57 -301t56 -301t221 -112.5t222.5 112.5t57.5 301t-56.5 301t-221.5 112.5zM510 -12q-369 0 -369 506q0 292 106.5 398.5t262.5 106.5q92 0 162.5 -29.5t130.5 -109.5v598h104v-1458h-104v127q-59 -80 -130 -109.5t-163 -29.5z" />
    <glyph glyph-name="e" unicode="e" horiz-adv-x="1071" 
d="M537 907q-86 0 -155 -44t-95.5 -108.5t-33.5 -98t-7 -101.5h581q1 99 -33 182q-34 82 -102.5 126t-154.5 44zM246 471q0 -188 82 -288.5t238 -100.5t274 119l78 -62q-78 -78 -159 -114.5t-198 -36.5q-205 0 -312.5 130t-107.5 373t104.5 375.5t290.5 132.5t291 -128
t105 -353v-47h-686z" />
    <glyph glyph-name="f" unicode="f" horiz-adv-x="622" 
d="M334 909v-909h-105v909h-135v78h135v213q0 117 61.5 187.5t176.5 70.5h90v-92h-72q-152 0 -151 -164v-215h223v-78h-223z" />
    <glyph glyph-name="g" unicode="g" horiz-adv-x="1105" 
d="M525 907q-165 0 -222 -112.5t-57 -301t56 -301t221 -112.5t222.5 112.5t57.5 301t-56.5 301t-221.5 112.5zM510 -12q-369 0 -369 506q0 292 106.5 398.5t262.5 106.5q92 0 162.5 -29.5t130.5 -109.5v127h104v-1042q0 -193 -106.5 -310.5t-296.5 -117.5q-106 0 -175 28.5
t-151 102.5l70 69q66 -57 118 -82.5t138 -25.5q150 0 224.5 94t74.5 248v176q-59 -80 -130 -109.5t-163 -29.5z" />
    <glyph glyph-name="h" unicode="h" horiz-adv-x="1144" 
d="M854 0v612q0 295 -272 295q-131 0 -205 -77.5t-74 -217.5v-612h-104v1458h104v-588q111 129 286 129t272 -99t97 -269v-631h-104z" />
    <glyph glyph-name="i" unicode="i" horiz-adv-x="501" 
d="M199 0v987h104v-987h-104zM186 1329v129h129v-129h-129z" />
    <glyph glyph-name="j" unicode="j" horiz-adv-x="501" 
d="M66 -471h-91v92h72q84 0 118 40t34 126v1200h104v-1202q0 -121 -59 -188.5t-178 -67.5zM186 1329v129h129v-129h-129z" />
    <glyph glyph-name="k" unicode="k" horiz-adv-x="1079" 
d="M303 0h-104v1458h104v-1028l490 557h133l-326 -369l397 -618h-129l-340 543l-225 -260v-283z" />
    <glyph glyph-name="l" unicode="l" horiz-adv-x="587" 
d="M432 0q-117 0 -177 68.5t-60 187.5v1202h104v-1200q0 -88 33 -127t119 -39h71v-92h-90z" />
    <glyph glyph-name="m" unicode="m" horiz-adv-x="1798" 
d="M1509 0v612q0 295 -272 295q-129 0 -204 -74.5t-75 -201.5v-631h-104v612q0 295 -272 295q-131 0 -205 -77.5t-74 -217.5v-612h-104v987h104v-117q111 129 293 129q225 0 317 -180q115 180 336 180q80 0 146.5 -24.5t141.5 -96t75 -247.5v-631h-103z" />
    <glyph glyph-name="n" unicode="n" horiz-adv-x="1144" 
d="M854 0v612q0 295 -272 295q-131 0 -205 -77.5t-74 -217.5v-612h-104v987h104v-117q111 129 283 129t272 -96t100 -272v-631h-104z" />
    <glyph glyph-name="o" unicode="o" horiz-adv-x="1077" 
d="M538.5 907q-120.5 0 -184 -63.5t-86 -135t-22.5 -215t21.5 -214t86 -135t185 -64.5t184 63.5t86 135t22.5 215t-21.5 214t-66.5 115.5q-84 84 -204.5 84zM141 497q0 128 24.5 224t116 187t257.5 91t256 -90t115.5 -190.5t25.5 -228.5t-24.5 -224t-98.5 -170
q-109 -109 -274.5 -108.5t-255.5 90.5t-116 190.5t-26 228.5z" />
    <glyph glyph-name="p" unicode="p" horiz-adv-x="1105" 
d="M583 907q-165 0 -222.5 -112.5t-57.5 -301t56.5 -301t221.5 -112.5t222 112.5t57 301t-56 301t-221 112.5zM596 999q369 0 369 -505q0 -137 -48 -321.5t-329 -184.5q-84 0 -155 29.5t-130 109.5v-598h-104v1458h104v-127q59 80 130 109.5t163 29.5z" />
    <glyph glyph-name="q" unicode="q" horiz-adv-x="1105" 
d="M525 907q-165 0 -222 -112.5t-57 -301t56 -301t221 -112.5t222.5 112.5t57.5 301t-56.5 301t-221.5 112.5zM510 -12q-369 0 -369 506q0 292 106.5 398.5t262.5 106.5q92 0 162.5 -29.5t130.5 -109.5v127h104v-1458h-104v598q-59 -80 -130 -109.5t-163 -29.5z" />
    <glyph glyph-name="r" unicode="r" horiz-adv-x="837" 
d="M567 907q-125 0 -194.5 -85t-69.5 -214v-608h-104v987h104v-131q43 68 120 105.5t159 37.5t139 -21.5t108 -72.5l-75 -76q-45 45 -84 61.5t-103 16.5z" />
    <glyph glyph-name="s" unicode="s" horiz-adv-x="1011" 
d="M502 -12q-252 0 -400 141l72 72q115 -121 324 -121q297 0 297 201q0 147 -189 165l-164 15q-145 0 -221 69.5t-76 193.5t96.5 199.5t281.5 75.5t323 -104l-70 -70q-115 84 -256 84q-272 0 -272 -190q0 -147 201 -166l159 -14q139 -12 214 -67.5t75 -189.5t-107.5 -214
t-287.5 -80z" />
    <glyph glyph-name="t" unicode="t" horiz-adv-x="665" 
d="M461 0q-113 0 -175.5 70.5t-62.5 187.5v651h-135v78h135v316h105v-316h223v-78h-223v-653q0 -164 151 -164h72v-92h-90z" />
    <glyph glyph-name="u" unicode="u" horiz-adv-x="1144" 
d="M842 0v117q-111 -129 -283 -129t-272.5 96t-100.5 272v631h105v-612q0 -295 272 -295q131 0 205 78t74 217v612h104v-987h-104z" />
    <glyph glyph-name="v" unicode="v" horiz-adv-x="880" 
d="M492 0h-103l-360 987h114l297 -864l297 864h115z" />
    <glyph glyph-name="w" unicode="w" horiz-adv-x="1458" 
d="M1114 0h-106l-279 823l-278 -823h-107l-315 987h114l252 -864l283 864h102l283 -864l252 864h115z" />
    <glyph glyph-name="x" unicode="x" horiz-adv-x="942" 
d="M733 0l-260 416l-264 -416h-127l334 504l-320 483h127l250 -397l246 397h127l-320 -483l334 -504h-127z" />
    <glyph glyph-name="y" unicode="y" horiz-adv-x="880" 
d="M90 -446v92h39q82 0 117 28.5t63 106.5l80 219l-360 987h114l297 -864l297 864h115l-459 -1255q-29 -80 -81.5 -129t-172.5 -49h-49z" />
    <glyph glyph-name="z" unicode="z" horiz-adv-x="925" 
d="M111 0v98l594 797h-562v92h672v-98l-596 -797h596v-92h-704z" />
    <glyph glyph-name="braceleft" unicode="{" horiz-adv-x="647" 
d="M516 -152q-143 0 -185 42t-54.5 84t-12.5 124v424q0 86 -37.5 124t-87.5 38h-37v90h37q49 0 87 38t38 124v424q0 141 54.5 195.5t197.5 54.5h29v-92h-27q-94 0 -121.5 -29t-27.5 -131v-424q0 -80 -29 -126t-96 -79q66 -33 95.5 -80t29.5 -125v-424q0 -102 27.5 -130.5
t121.5 -28.5h27v-93h-29z" />
    <glyph glyph-name="bar" unicode="|" horiz-adv-x="649" 
d="M272 -152v1762h105v-1762h-105z" />
    <glyph glyph-name="braceright" unicode="}" horiz-adv-x="647" 
d="M508 684q-50 0 -87.5 -38t-37.5 -124v-424q0 -141 -54.5 -195.5t-197.5 -54.5h-29v93h27q94 0 122 28.5t28 130.5v424q0 80 28.5 126t95.5 79q-66 33 -95 80t-29 125v424q0 102 -28 131t-122 29h-27v92h29q143 0 185 -42t54.5 -84t12.5 -124v-424q0 -86 38 -124t87 -38
h37v-90h-37z" />
    <glyph glyph-name="asciitilde" unicode="~" 
d="M713 440q-57 0 -97.5 15.5t-110 45t-99 40t-70.5 10.5t-72 -15.5t-92 -76.5l-63 63q80 80 127 103.5t104 23.5t97 -15.5t109.5 -45t99.5 -39.5t71 -10t71.5 15t92.5 77l63 -64q-80 -80 -127 -103.5t-104 -23.5z" />
    <glyph glyph-name="nonbreakingspace" unicode="&#xa0;" horiz-adv-x="522" 
 />
    <glyph glyph-name="exclamdown" unicode="&#xa1;" horiz-adv-x="622" 
d="M225 -471l6 1065h101l6 -1065h-113zM213 850v137h137v-137h-137z" />
    <glyph glyph-name="cent" unicode="&#xa2;" horiz-adv-x="1019" 
d="M246 750q0 -102 14 -165t69.5 -141.5t180.5 -101.5v815q-125 -23 -194.5 -123t-69.5 -284zM598 244v-244h-88v248q-172 23 -270.5 155t-98.5 347t98.5 347t270.5 154v207h88v-203q94 0 159.5 -32.5t143.5 -118.5l-72 -66q-57 66 -111 95.5t-120 29.5v-827q70 0 120 27.5
t111 97.5l72 -66q-74 -82 -143.5 -116.5t-159.5 -34.5z" />
    <glyph glyph-name="sterling" unicode="&#xa3;" horiz-adv-x="1099" 
d="M233 0v700h-131v78h131v250q0 201 117 321.5t315 120.5t322 -124l-76 -76q-49 49 -102 75.5t-141 26.5q-158 0 -241 -95t-83 -271v-228h324v-78h-324v-602h643v-98h-754z" />
    <glyph glyph-name="currency" unicode="&#xa4;" horiz-adv-x="1345" 
d="M671.5 889q-145.5 0 -245.5 -100.5t-100 -246t100 -245.5t245.5 -100t246 100t100.5 245.5t-100.5 246t-246 100.5zM672 987q162 0 280 -96l154 149l65 -65l-151 -150q96 -119 96 -281t-96 -282l151 -151l-65 -66l-154 152q-121 -98 -280.5 -98.5t-280.5 98.5l-151 -152
l-66 66l152 151q-98 121 -98 282t98 281l-152 150l66 65l151 -149q119 96 281 96z" />
    <glyph glyph-name="yen" unicode="&#xa5;" horiz-adv-x="1009" 
d="M877 791v-78h-261l-55 -109v-108h316v-78h-316v-418h-110v418h-318v78h318v108l-56 109h-262v78h223l-336 667h117l371 -739l366 739h115l-334 -667h222z" />
    <glyph glyph-name="section" unicode="&#xa7;" horiz-adv-x="1159" 
d="M576 797q-118 0 -176 -62.5t-74.5 -113.5t-16.5 -117t18.5 -116t75 -111.5t177 -61.5t195.5 81t75 210q0 70 -14.5 117t-57.5 90q-84 84 -202 84zM946 -141q0 -150 -103 -246t-263 -96t-268.5 85t-108.5 232h110q20 -219 267 -219q121 0 188.5 62.5t67.5 162.5
q0 194 -193 248l-170 47q-129 37 -201.5 136.5t-72.5 228.5t63.5 219t161.5 135q-100 45 -151.5 112.5t-51.5 176.5q0 150 103.5 238.5t255 88.5t258 -82.5t106.5 -226.5h-108q-10 113 -74 163t-182 50t-184 -58.5t-66 -159.5q0 -184 186 -232l170 -47q127 -35 201 -137.5
t74 -229.5t-64 -217t-162 -135q98 -33 154.5 -112t56.5 -187z" />
    <glyph glyph-name="dieresis" unicode="&#xa8;" horiz-adv-x="1024" 
d="M240 1229v157h118v-157h-118zM666 1229v157h118v-157h-118z" />
    <glyph glyph-name="copyright" unicode="&#xa9;" horiz-adv-x="1830" 
d="M910 307q-164 0 -256.5 120t-92.5 303t92 303t271 120q86 0 141 -23.5t127 -85.5l-62 -61q-55 49 -100 67.5t-106 18.5q-145 0 -208 -94t-63 -245t63.5 -245t207.5 -94q63 0 106 16.5t100 67.5l62 -61q-118 -107 -282 -107zM915.5 1380q-264.5 0 -454 -193.5
t-189.5 -457.5t189.5 -457.5t454 -193.5t454 193.5t189.5 457.5t-189.5 457.5t-454 193.5zM915.5 -12q-307.5 0 -524.5 217t-217 524t217 524t524.5 217t524.5 -217t217 -524t-217 -524t-524.5 -217z" />
    <glyph glyph-name="ordfeminine" unicode="&#xaa;" horiz-adv-x="915" 
d="M403 1040q-194 0 -194 -153q0 -147 199 -148q86 0 122.5 13.5t73.5 48.5t37 143v96h-238zM641 670v73q-49 -47 -101.5 -65.5t-131.5 -18.5q-160 0 -209 50.5t-63.5 89.5t-14.5 86q0 109 71.5 168t200.5 59h248v86q0 186 -215 186q-84 0 -130 -20.5t-83 -77.5l-66 55
q49 68 115 95.5t164 27.5q150 0 226.5 -66.5t76.5 -191.5v-536h-88z" />
    <glyph glyph-name="guillemotleft" unicode="&#xab;" horiz-adv-x="1079" 
d="M86 543l401 401v-135l-266 -266l266 -267v-135zM510 543l401 401v-135l-266 -266l266 -267v-135z" />
    <glyph glyph-name="logicalnot" unicode="&#xac;" 
d="M848 219v273h-739v96h835v-369h-96z" />
    <glyph glyph-name="registered" unicode="&#xae;" horiz-adv-x="1830" 
d="M934 1057h-160v-314h160q76 0 124 44t48 112t-49 113t-123 45zM774 662v-343h-92v822h262q104 0 179 -68.5t75 -164.5q0 -186 -186 -238l207 -351h-107l-203 343h-135zM915.5 1382q-266.5 0 -456 -193.5t-189.5 -459.5t189.5 -459.5t456 -193.5t456 193.5t189.5 459.5
t-189.5 459.5t-456 193.5zM915.5 -12q-307.5 0 -524.5 217t-217 524t217 524t524.5 217t524.5 -217t217 -524t-217 -524t-524.5 -217z" />
    <glyph glyph-name="degree" unicode="&#xb0;" horiz-adv-x="937" 
d="M468 1386q-99 0 -163.5 -66.5t-64.5 -167.5t65.5 -169t164.5 -68t163.5 67t64.5 168t-65.5 168.5t-164.5 67.5zM469 829q-133 0 -227.5 94.5t-94.5 227.5t94.5 227.5t227.5 94.5t227.5 -94.5t94.5 -227.5t-94.5 -227.5t-227.5 -94.5z" />
    <glyph glyph-name="plusminus" unicode="&#xb1;" 
d="M109 0v96h835v-96h-835zM575 553v-373h-96v373h-370v96h370v371h96v-371h369v-96h-369z" />
    <glyph glyph-name="acute" unicode="&#xb4;" horiz-adv-x="1024" 
d="M535 1208h-119l198 301h138z" />
    <glyph glyph-name="mu" unicode="&#xb5;" horiz-adv-x="1138" 
d="M836 0v117q-111 -129 -282 -129t-269 92v-551h-105v1458h105v-612q0 -295 272 -295q131 0 205 78t74 217v612h104v-987h-104z" />
    <glyph glyph-name="paragraph" unicode="&#xb6;" horiz-adv-x="1185" 
d="M856 -471v1831h-252v-1831h-104v1151q-186 0 -297 116.5t-111 275.5t116 272.5t316 113.5h437v-1929h-105z" />
    <glyph glyph-name="cedilla" unicode="&#xb8;" horiz-adv-x="1024" 
d="M500 -451h-129l147 308h113z" />
    <glyph glyph-name="ordmasculine" unicode="&#xba;" horiz-adv-x="925" 
d="M236 1072q0 -104 11 -162t66.5 -113.5t149.5 -55.5t143 49.5t66.5 104.5t17.5 159t-11 162t-56 103q-66 66 -160 65.5t-143.5 -49.5t-66.5 -104t-17 -159zM463 662q-131 0 -203 71.5t-92.5 152t-20.5 194.5t26 182.5t92.5 135t197.5 66.5t202.5 -71.5t92 -152
t20.5 -194.5q0 -200 -92 -292t-223 -92z" />
    <glyph glyph-name="guillemotright" unicode="&#xbb;" horiz-adv-x="1079" 
d="M168 141v135l266 267l-266 266v135l401 -401zM592 141v135l266 267l-266 266v135l401 -401z" />
    <glyph glyph-name="questiondown" unicode="&#xbf;" horiz-adv-x="999" 
d="M471 -483q-160 0 -264.5 102t-104.5 258q0 66 22.5 121t68.5 123l174 256q36 58 36 123v96h105v-92q0 -96 -59 -185l-173 -253q-69 -107 -69 -205q0 -99 74.5 -175.5t189.5 -76.5t187.5 79t72.5 189h105q0 -152 -102.5 -256t-262.5 -104zM387 850v137h137v-137h-137z" />
    <glyph glyph-name="Agrave" unicode="&#xc0;" horiz-adv-x="1232" 
d="M616 1311l-305 -858h611zM1083 0l-127 354h-680l-126 -354h-119l536 1458h99l536 -1458h-119zM594 1597l-217 301h137l199 -301h-119z" />
    <glyph glyph-name="Aacute" unicode="&#xc1;" horiz-adv-x="1232" 
d="M616 1311l-305 -858h611zM1083 0l-127 354h-680l-126 -354h-119l536 1458h99l536 -1458h-119zM639 1597h-119l199 301h137z" />
    <glyph glyph-name="Acircumflex" unicode="&#xc2;" horiz-adv-x="1232" 
d="M616 1311l-305 -858h611zM1083 0l-127 354h-680l-126 -354h-119l536 1458h99l536 -1458h-119zM807 1597l-191 224l-190 -224h-117l252 301h111l252 -301h-117z" />
    <glyph glyph-name="Atilde" unicode="&#xc3;" horiz-adv-x="1232" 
d="M616 1311l-305 -858h611zM1083 0l-127 354h-680l-126 -354h-119l536 1458h99l536 -1458h-119zM739 1628q-39 0 -67 11t-75 38t-65 35t-50 8t-52 -10t-68 -57l-61 59q61 62 101 80t82 18t69 -10t83 -45t107 -36t117 67l62 -60q-98 -98 -183 -98z" />
    <glyph glyph-name="Adieresis" unicode="&#xc4;" horiz-adv-x="1232" 
d="M616 1311l-305 -858h611zM1083 0l-127 354h-680l-126 -354h-119l536 1458h99l536 -1458h-119zM344 1618v158h119v-158h-119zM770 1618v158h119v-158h-119z" />
    <glyph glyph-name="Aring" unicode="&#xc5;" horiz-adv-x="1232" 
d="M616 1311l-305 -858h611zM1083 0l-127 354h-680l-126 -354h-119l536 1458h99l536 -1458h-119zM618 1911q-61 0 -106 -43q-45 -42 -45 -104t44 -106t105 -44t106 44q44 44 44 105t-43 105q-44 43 -105 43zM850 1764q0 -96 -68 -166t-165 -70t-165 68t-69 167q0 98 68 166
q67 68 165 68t166 -68t68 -165z" />
    <glyph glyph-name="AE" unicode="&#xc6;" horiz-adv-x="1845" 
d="M848 453v907l-475 -907h475zM848 0v354h-522l-185 -354h-121l773 1458h938v-98h-775v-582h660v-98h-660v-582h775v-98h-883z" />
    <glyph glyph-name="Ccedilla" unicode="&#xc7;" horiz-adv-x="1318" 
d="M659 1470q205 0 337 -112t167 -314h-112q-33 154 -135 241t-256 87q-156 0 -249 -93t-113 -199t-19 -334q0 -230 11 -344t83 -186q131 -130 287 -130q155 0 259 87q103 87 136 241h108q-35 -198 -167 -312t-338 -114q-205 0 -365 159q-82 82 -104 196q-21 115 -21 365
t11 375t143 256t337 131zM618 -451h-129l148 308h113z" />
    <glyph glyph-name="Egrave" unicode="&#xc8;" horiz-adv-x="1224" 
d="M225 0v1458h885v-98h-774v-576h659v-98h-659v-588h774v-98h-885zM621 1597l-218 301h138l198 -301h-118z" />
    <glyph glyph-name="Eacute" unicode="&#xc9;" horiz-adv-x="1224" 
d="M225 0v1458h885v-98h-774v-576h659v-98h-659v-588h774v-98h-885zM666 1597h-119l198 301h138z" />
    <glyph glyph-name="Ecircumflex" unicode="&#xca;" horiz-adv-x="1224" 
d="M225 0v1458h885v-98h-774v-576h659v-98h-659v-588h774v-98h-885zM834 1597l-191 224l-190 -224h-117l252 301h110l252 -301h-116z" />
    <glyph glyph-name="Edieresis" unicode="&#xcb;" horiz-adv-x="1224" 
d="M225 0v1458h885v-98h-774v-576h659v-98h-659v-588h774v-98h-885zM371 1618v158h118v-158h-118zM797 1618v158h118v-158h-118z" />
    <glyph glyph-name="Igrave" unicode="&#xcc;" horiz-adv-x="561" 
d="M225 0v1458h111v-1458h-111zM442 1597l-217 301h137l199 -301h-119z" />
    <glyph glyph-name="Iacute" unicode="&#xcd;" horiz-adv-x="561" 
d="M225 0v1458h111v-1458h-111zM344 1597h-119l199 301h137z" />
    <glyph glyph-name="Icircumflex" unicode="&#xce;" horiz-adv-x="561" 
d="M225 0v1458h111v-1458h-111zM723 1597l-191 224l-190 -224h-117l252 301h111l252 -301h-117z" />
    <glyph glyph-name="Idieresis" unicode="&#xcf;" horiz-adv-x="561" 
d="M225 0v1458h111v-1458h-111zM225 1618v158h119v-158h-119zM651 1618v158h119v-158h-119z" />
    <glyph glyph-name="Ntilde" unicode="&#xd1;" horiz-adv-x="1513" 
d="M336 0h-111v1458h111l842 -1263v1263h110v-1458h-110l-842 1268v-1268zM881 1628q-39 0 -68 11t-75 38t-64 35t-50 8t-52 -10t-68 -57l-62 59q62 62 102 80t82 18t68 -10t83 -45q56 -35 107 -36t117 67l62 -60q-98 -98 -182 -98z" />
    <glyph glyph-name="Ograve" unicode="&#xd2;" horiz-adv-x="1335" 
d="M668 1372q-164 0 -257 -93t-113 -199t-19 -334q0 -230 11 -344t83 -186q131 -130 295 -130t257 93t112 199t19 334q0 230 -10 344q-12 114 -102 204q-112 112 -276 112zM668 1470q215 0 374 -159q82 -82 104 -196q22 -115 22 -365t-12 -375q-11 -125 -124 -238
q-150 -149 -364 -149t-375 159q-82 82 -104 196q-21 115 -21 365t11 375t143 256t346 131zM645 1597l-217 301h137l199 -301h-119z" />
    <glyph glyph-name="Oacute" unicode="&#xd3;" horiz-adv-x="1335" 
d="M668 1372q-164 0 -257 -93t-113 -199t-19 -334q0 -230 11 -344t83 -186q131 -130 295 -130t257 93t112 199t19 334q0 230 -10 344q-12 114 -102 204q-112 112 -276 112zM668 1470q215 0 374 -159q82 -82 104 -196q22 -115 22 -365t-12 -375q-11 -125 -124 -238
q-150 -149 -364 -149t-375 159q-82 82 -104 196q-21 115 -21 365t11 375t143 256t346 131zM690 1597h-119l199 301h137z" />
    <glyph glyph-name="Ocircumflex" unicode="&#xd4;" horiz-adv-x="1335" 
d="M668 1372q-164 0 -257 -93t-113 -199t-19 -334q0 -230 11 -344t83 -186q131 -130 295 -130t257 93t112 199t19 334q0 230 -10 344q-12 114 -102 204q-112 112 -276 112zM668 1470q215 0 374 -159q82 -82 104 -196q22 -115 22 -365t-12 -375q-11 -125 -124 -238
q-150 -149 -364 -149t-375 159q-82 82 -104 196q-21 115 -21 365t11 375t143 256t346 131zM858 1597l-190 224l-191 -224h-117l252 301h111l252 -301h-117z" />
    <glyph glyph-name="Otilde" unicode="&#xd5;" horiz-adv-x="1335" 
d="M668 1372q-164 0 -257 -93t-113 -199t-19 -334q0 -230 11 -344t83 -186q131 -130 295 -130t257 93t112 199t19 334q0 230 -10 344q-12 114 -102 204q-112 112 -276 112zM668 1470q215 0 374 -159q82 -82 104 -196q22 -115 22 -365t-12 -375q-11 -125 -124 -238
q-150 -149 -364 -149t-375 159q-82 82 -104 196q-21 115 -21 365t11 375t143 256t346 131zM791 1628q-39 0 -68 11t-75 38t-64 35t-50 8t-52 -10t-68 -57l-62 59q62 62 102 80t82 18t68 -10t83 -45q56 -35 107 -36t117 67l62 -60q-98 -98 -182 -98z" />
    <glyph glyph-name="Odieresis" unicode="&#xd6;" horiz-adv-x="1335" 
d="M668 1372q-164 0 -257 -93t-113 -199t-19 -334q0 -230 11 -344t83 -186q131 -130 295 -130t257 93t112 199t19 334q0 230 -10 344q-12 114 -102 204q-112 112 -276 112zM668 1470q215 0 374 -159q82 -82 104 -196q22 -115 22 -365t-12 -375q-11 -125 -124 -238
q-150 -149 -364 -149t-375 159q-82 82 -104 196q-21 115 -21 365t11 375t143 256t346 131zM395 1618v158h119v-158h-119zM821 1618v158h119v-158h-119z" />
    <glyph glyph-name="Oslash" unicode="&#xd8;" horiz-adv-x="1335" 
d="M648 1372q-144 0 -237.5 -93t-112.5 -198.5t-19 -319.5t9 -334t83 -206l518 1084q-97 67 -241 67zM687 86q145 0 238 93t112.5 198.5t19.5 319.5t-9 334t-83 206l-519 -1083q96 -68 241 -68zM168 708q0 250 11 375t142.5 256t346.5 131q145 0 266 -71l72 149h108
l-100 -209l18 -18q92 -92 113.5 -206.5t21.5 -364.5t-11 -375t-124 -238q-150 -150 -364 -149q-145 0 -267 71l-71 -149h-109l101 209l-19 18q-92 92 -113.5 206.5t-21.5 364.5z" />
    <glyph glyph-name="Ugrave" unicode="&#xd9;" horiz-adv-x="1406" 
d="M705 -12q-221 0 -361 135q-139 135 -139 350v985h110v-971q1 -181 107 -291t282 -110t283 109q106 109 107 292v971h110v-985q0 -215 -139 -350t-360 -135zM682 1597l-217 301h137l199 -301h-119z" />
    <glyph glyph-name="Uacute" unicode="&#xda;" horiz-adv-x="1406" 
d="M705 -12q-221 0 -361 135q-139 135 -139 350v985h110v-971q1 -181 107 -291t282 -110t283 109q106 109 107 292v971h110v-985q0 -215 -139 -350t-360 -135zM727 1597h-119l199 301h137z" />
    <glyph glyph-name="Ucircumflex" unicode="&#xdb;" horiz-adv-x="1406" 
d="M705 -12q-221 0 -361 135q-139 135 -139 350v985h110v-971q1 -181 107 -291t282 -110t283 109q106 109 107 292v971h110v-985q0 -215 -139 -350t-360 -135zM895 1597l-190 224l-191 -224h-117l252 301h111l252 -301h-117z" />
    <glyph glyph-name="Udieresis" unicode="&#xdc;" horiz-adv-x="1406" 
d="M705 -12q-221 0 -361 135q-139 135 -139 350v985h110v-971q1 -181 107 -291t282 -110t283 109q106 109 107 292v971h110v-985q0 -215 -139 -350t-360 -135zM432 1618v158h119v-158h-119zM858 1618v158h119v-158h-119z" />
    <glyph glyph-name="germandbls" unicode="&#xdf;" horiz-adv-x="1126" 
d="M694 0h-110v92h90q47 0 73.5 9.5t71.5 45t45 140.5v366q0 94 -47 140.5t-133 46.5h-100v92h80q90 0 145 57t55 159t-69.5 167t-212.5 65t-211 -80.5t-68 -224.5v-1075h-104v1075q0 186 103.5 292t278.5 106t280.5 -84t105.5 -248t-129 -250q76 -41 103.5 -96.5
t27.5 -157.5v-363q0 -130 -80 -204q-43 -39 -86 -54.5t-109 -15.5z" />
    <glyph glyph-name="agrave" unicode="&#xe0;" horiz-adv-x="1073" 
d="M778 471h-307q-252 0 -252 -199q0 -193 258 -192q82 0 139 14q58 14 110 64t52 186v127zM778 666q0 241 -256 241q-126 1 -186 -27t-109 -98l-75 66q59 84 142 118t206 33q381 0 383 -323v-676h-105v98q-61 -61 -129 -86q-69 -24 -175 -24t-174 20t-126 82
q-59 62 -59 189q0 126 91 201t253 75h319v111zM487 1208l-217 301h138l198 -301h-119z" />
    <glyph glyph-name="aacute" unicode="&#xe1;" horiz-adv-x="1073" 
d="M778 471h-307q-252 0 -252 -199q0 -193 258 -192q82 0 139 14q58 14 110 64t52 186v127zM778 666q0 241 -256 241q-126 1 -186 -27t-109 -98l-75 66q59 84 142 118t206 33q381 0 383 -323v-676h-105v98q-61 -61 -129 -86q-69 -24 -175 -24t-174 20t-126 82
q-59 62 -59 189q0 126 91 201t253 75h319v111zM532 1208h-118l198 301h138z" />
    <glyph glyph-name="acircumflex" unicode="&#xe2;" horiz-adv-x="1073" 
d="M778 471h-307q-252 0 -252 -199q0 -193 258 -192q82 0 139 14q58 14 110 64t52 186v127zM778 666q0 241 -256 241q-126 1 -186 -27t-109 -98l-75 66q59 84 142 118t206 33q381 0 383 -323v-676h-105v98q-61 -61 -129 -86q-69 -24 -175 -24t-174 20t-126 82
q-59 62 -59 189q0 126 91 201t253 75h319v111zM700 1208l-190 224l-191 -224h-116l252 301h110l252 -301h-117z" />
    <glyph glyph-name="atilde" unicode="&#xe3;" horiz-adv-x="1073" 
d="M778 471h-307q-252 0 -252 -199q0 -193 258 -192q82 0 139 14q58 14 110 64t52 186v127zM778 666q0 241 -256 241q-126 1 -186 -27t-109 -98l-75 66q59 84 142 118t206 33q381 0 383 -323v-676h-105v98q-61 -61 -129 -86q-69 -24 -175 -24t-174 20t-126 82
q-59 62 -59 189q0 126 91 201t253 75h319v111zM633 1239q-39 0 -68 11t-75 38t-64 35t-50 8t-52 -10t-68 -57l-61 59q61 61 101 79t82 19q42 0 68 -10t85 -46q58 -36 107 -36q50 0 116 68l61 -60q-98 -98 -182 -98z" />
    <glyph glyph-name="adieresis" unicode="&#xe4;" horiz-adv-x="1073" 
d="M778 471h-307q-252 0 -252 -199q0 -193 258 -192q82 0 139 14q58 14 110 64t52 186v127zM778 666q0 241 -256 241q-126 1 -186 -27t-109 -98l-75 66q59 84 142 118t206 33q381 0 383 -323v-676h-105v98q-61 -61 -129 -86q-69 -24 -175 -24t-174 20t-126 82
q-59 62 -59 189q0 126 91 201t253 75h319v111zM238 1229v157h118v-157h-118zM664 1229v157h118v-157h-118z" />
    <glyph glyph-name="aring" unicode="&#xe5;" horiz-adv-x="1073" 
d="M778 471h-307q-252 0 -252 -199q0 -193 258 -192q82 0 139 14q58 14 110 64t52 186v127zM778 666q0 241 -256 241q-126 1 -186 -27t-109 -98l-75 66q59 84 142 118t206 33q381 0 383 -323v-676h-105v98q-61 -61 -129 -86q-69 -24 -175 -24t-174 20t-126 82
q-59 62 -59 189q0 126 91 201t253 75h319v111zM659 1386q0 60 -43 104t-104 44t-106 -43q-46 -43 -46 -105t44 -105q44 -44 106 -44t105 44q44 44 44 105zM511 1151q-97 0 -166 69q-69 68 -69 166t68 166t166 68t166 -68t68 -165t-68 -167t-165 -69z" />
    <glyph glyph-name="ae" unicode="&#xe6;" horiz-adv-x="1708" 
d="M778 471h-307q-252 0 -252 -199q0 -193 258 -192q82 0 139.5 14.5t109.5 64.5t52 185v127zM1173.5 907q-86.5 0 -155 -44t-95 -108.5t-33.5 -98t-7 -101.5h581q0 99 -34 182q-34 82 -102 126t-154.5 44zM778 666q0 241 -256 241q-126 0 -187 -27.5t-108 -97.5l-75 66
q59 84 142 117.5t206 33.5q279 0 354 -174q104 174 320 174q184 0 289.5 -128t105.5 -353v-47h-686q0 -188 81.5 -288.5t237.5 -100.5t275 119l77 -62q-78 -78 -158.5 -114.5t-199.5 -36.5q-250 0 -352 184q-61 -98 -146.5 -141t-207.5 -43t-189.5 20.5t-126.5 83t-59 188.5
t91 200.5t253 74.5h319v111z" />
    <glyph glyph-name="ccedilla" unicode="&#xe7;" horiz-adv-x="1019" 
d="M575 -12q-201 0 -317 135t-117 371q0 236 117 370t317 135q105 1 175 -31t151 -120l-72 -66q-63 72 -118 99t-136 26q-173 -1 -251 -115t-78 -298q0 -102 14 -164t79 -156t236 -94q79 0 135 26t119 99l72 -66q-78 -87 -151 -119t-175 -32zM500 -451h-129l147 308h113z
" />
    <glyph glyph-name="egrave" unicode="&#xe8;" horiz-adv-x="1071" 
d="M536 907q-86 0 -154 -44q-70 -45 -96 -109t-33 -98t-7 -101h581q1 99 -33 182q-34 82 -103 126t-155 44zM246 471q0 -189 82 -289t238 -100t274 119l78 -62q-78 -79 -159 -115t-198 -36q-205 0 -313 130t-107 373t105 375t290 133q186 0 290 -128q105 -128 106 -353v-47
h-686zM518 1208l-217 301h137l199 -301h-119z" />
    <glyph glyph-name="eacute" unicode="&#xe9;" horiz-adv-x="1071" 
d="M536 907q-86 0 -154 -44q-70 -45 -96 -109t-33 -98t-7 -101h581q1 99 -33 182q-34 82 -103 126t-155 44zM246 471q0 -189 82 -289t238 -100t274 119l78 -62q-78 -79 -159 -115t-198 -36q-205 0 -313 130t-107 373t105 375t290 133q186 0 290 -128q105 -128 106 -353v-47
h-686zM563 1208h-119l199 301h137z" />
    <glyph glyph-name="ecircumflex" unicode="&#xea;" horiz-adv-x="1071" 
d="M536 907q-86 0 -154 -44q-70 -45 -96 -109t-33 -98t-7 -101h581q1 99 -33 182q-34 82 -103 126t-155 44zM246 471q0 -189 82 -289t238 -100t274 119l78 -62q-78 -79 -159 -115t-198 -36q-205 0 -313 130t-107 373t105 375t290 133q186 0 290 -128q105 -128 106 -353v-47
h-686zM731 1208l-190 224l-191 -224h-117l252 301h111l252 -301h-117z" />
    <glyph glyph-name="edieresis" unicode="&#xeb;" horiz-adv-x="1071" 
d="M536 907q-86 0 -154 -44q-70 -45 -96 -109t-33 -98t-7 -101h581q1 99 -33 182q-34 82 -103 126t-155 44zM246 471q0 -189 82 -289t238 -100t274 119l78 -62q-78 -79 -159 -115t-198 -36q-205 0 -313 130t-107 373t105 375t290 133q186 0 290 -128q105 -128 106 -353v-47
h-686zM268 1229v157h119v-157h-119zM694 1229v157h119v-157h-119z" />
    <glyph glyph-name="igrave" unicode="&#xec;" horiz-adv-x="501" 
d="M199 0v987h104v-987h-104zM416 1208l-217 301h137l199 -301h-119z" />
    <glyph glyph-name="iacute" unicode="&#xed;" horiz-adv-x="501" 
d="M199 0v987h104v-987h-104zM317 1208h-118l198 301h138z" />
    <glyph glyph-name="icircumflex" unicode="&#xee;" horiz-adv-x="501" 
d="M199 0v987h104v-987h-104zM696 1208l-190 224l-191 -224h-116l252 301h110l252 -301h-117z" />
    <glyph glyph-name="idieresis" unicode="&#xef;" horiz-adv-x="501" 
d="M199 0v987h104v-987h-104zM199 1229v157h118v-157h-118zM625 1229v157h118v-157h-118z" />
    <glyph glyph-name="ntilde" unicode="&#xf1;" horiz-adv-x="1144" 
d="M854 0v612q0 295 -272 295q-131 0 -205 -78t-74 -217v-612h-104v987h104v-117q111 129 283 129t272 -96t100 -272v-631h-104zM705 1239q-39 0 -68 11t-75 38t-64 35t-50 8t-52 -10t-68 -57l-62 59q62 61 102 79t82 19q42 0 68 -10t85 -46q58 -36 107 -36q50 0 115 68
l62 -60q-98 -98 -182 -98z" />
    <glyph glyph-name="ograve" unicode="&#xf2;" horiz-adv-x="1077" 
d="M489 1208l-217 301h138l198 -301h-119zM670 907q-120 0 -184 -63t-87 -135t-23 -215t22 -214t86 -136q64 -64 186 -64q121 0 184 63t86 135t23 216t-22 214t-67 115q-84 84 -204 84zM272 496q0 128 25 225q25 96 116 187t257 91t256 -90t116 -190t25 -228
q-1 -129 -25 -225t-98 -170q-108 -108 -274 -108t-256 90t-116 190t-26 228z" />
    <glyph glyph-name="oacute" unicode="&#xf3;" horiz-adv-x="1077" 
d="M538 907q-120 0 -184 -63t-86 -135t-22 -215t22 -214t86 -136q64 -64 185 -64t184 63t86 135t22 216q1 144 -21 214t-67 115q-85 84 -205 84zM141 496q0 128 25 225q25 96 116 187t257 91t256 -90q89 -90 115 -190t26 -228q0 -129 -24 -225t-99 -170q-109 -108 -275 -108
t-255 90q-90 90 -116 190t-26 228zM561 1208h-119l199 301h137z" />
    <glyph glyph-name="ocircumflex" unicode="&#xf4;" horiz-adv-x="1077" 
d="M538 907q-120 0 -184 -63t-86 -135t-22 -215t22 -214t86 -136q64 -64 185 -64t184 63t86 135t22 216q1 144 -21 214t-67 115q-85 84 -205 84zM141 496q0 128 25 225q25 96 116 187t257 91t256 -90q89 -90 115 -190t26 -228q0 -129 -24 -225t-99 -170q-109 -108 -275 -108
t-255 90q-90 90 -116 190t-26 228zM729 1208l-190 224l-191 -224h-117l252 301h111l252 -301h-117z" />
    <glyph glyph-name="otilde" unicode="&#xf5;" horiz-adv-x="1077" 
d="M538 907q-120 0 -184 -63t-86 -135t-22 -215t22 -214t86 -136q64 -64 185 -64t184 63t86 135t22 216q1 144 -21 214t-67 115q-85 84 -205 84zM141 496q0 128 25 225q25 96 116 187t257 91t256 -90q89 -90 115 -190t26 -228q0 -129 -24 -225t-99 -170q-109 -108 -275 -108
t-255 90q-90 90 -116 190t-26 228zM662 1239q-39 0 -68 11t-75 38t-64 35t-50 8q-33 0 -53 -10t-67 -57l-62 59q61 61 101 79t83 19q43 0 69 -10t84 -46t107 -36q50 0 115 68l62 -60q-98 -98 -182 -98z" />
    <glyph glyph-name="odieresis" unicode="&#xf6;" horiz-adv-x="1077" 
d="M538 907q-120 0 -184 -63t-86 -135t-22 -215t22 -214t86 -136q64 -64 185 -64t184 63t86 135t22 216q1 144 -21 214t-67 115q-85 84 -205 84zM141 496q0 128 25 225q25 96 116 187t257 91t256 -90q89 -90 115 -190t26 -228q0 -129 -24 -225t-99 -170q-109 -108 -275 -108
t-255 90q-90 90 -116 190t-26 228zM266 1229v157h119v-157h-119zM692 1229v157h119v-157h-119z" />
    <glyph glyph-name="divide" unicode="&#xf7;" 
d="M455 123v143h143v-143h-143zM109 492v96h835v-96h-835zM455 813v143h143v-143h-143z" />
    <glyph glyph-name="oslash" unicode="&#xf8;" horiz-adv-x="1077" 
d="M524 907q-106 0 -169.5 -63.5t-86 -135.5t-22.5 -196t11 -193t54 -129l394 666q-75 51 -181 51zM554 80q106 0 169 63.5t85.5 135t22.5 196.5t-11 194t-54 128l-393 -666q75 -51 181 -51zM141 494q0 131 24.5 227t116 187t257.5 91q123 0 215 -61l82 139h98l-115 -192
q117 -124 117 -391q0 -131 -24.5 -227.5t-98.5 -170.5q-109 -109 -274 -108q-121 0 -215 59l-82 -137h-99l115 192q-117 124 -117 392z" />
    <glyph glyph-name="ugrave" unicode="&#xf9;" horiz-adv-x="1144" 
d="M842 0v117q-111 -129 -283 -129t-272 96t-101 272v631h105v-612q0 -295 272 -295q131 0 205 78t74 217v612h104v-987h-104zM543 1208l-217 301h137l199 -301h-119z" />
    <glyph glyph-name="uacute" unicode="&#xfa;" horiz-adv-x="1144" 
d="M842 0v117q-111 -129 -283 -129t-272 96t-101 272v631h105v-612q0 -295 272 -295q131 0 205 78t74 217v612h104v-987h-104zM588 1208h-119l199 301h137z" />
    <glyph glyph-name="ucircumflex" unicode="&#xfb;" horiz-adv-x="1144" 
d="M842 0v117q-111 -129 -283 -129t-272 96t-101 272v631h105v-612q0 -295 272 -295q131 0 205 78t74 217v612h104v-987h-104zM756 1208l-191 224l-190 -224h-117l252 301h111l251 -301h-116z" />
    <glyph glyph-name="udieresis" unicode="&#xfc;" horiz-adv-x="1144" 
d="M842 0v117q-111 -129 -283 -129t-272 96t-101 272v631h105v-612q0 -295 272 -295q131 0 205 78t74 217v612h104v-987h-104zM293 1229v157h119v-157h-119zM719 1229v157h119v-157h-119z" />
    <glyph glyph-name="ydieresis" unicode="&#xff;" horiz-adv-x="880" 
d="M90 -446v92h39q82 0 117 28t63 107l80 219l-360 987h114l297 -864l297 864h115l-459 -1255q-29 -80 -65 -114q-69 -64 -189 -64h-49zM168 1229v157h119v-157h-119zM594 1229v157h119v-157h-119z" />
    <glyph glyph-name="dotlessi" unicode="&#x131;" horiz-adv-x="501" 
d="M199 0v987h104v-987h-104z" />
    <glyph glyph-name="OE" unicode="&#x152;" horiz-adv-x="2041" 
d="M668 1372q-164 0 -257.5 -93t-112.5 -198t-19 -335t11 -343.5t112 -215t265 -101.5q165 0 258 93t112.5 198t19.5 335t-11.5 344t-101.5 204q-112 112 -276 112zM1057 0v174q-150 -186 -377 -186t-348 120.5t-142.5 235t-21.5 364.5t11 375t142 256t359 131t377 -186v174
h864v-96h-756l2 -584h641v-86h-641l-2 -596h762v-96h-870z" />
    <glyph glyph-name="oe" unicode="&#x153;" horiz-adv-x="1761" 
d="M538.5 907q-120.5 0 -184 -63.5t-86 -135t-22.5 -215t21.5 -214t86 -135t185 -64.5t184 63.5t86 135t22.5 215t-21.5 214t-66.5 115.5q-84 84 -204.5 84zM1227 907q-86 0 -154.5 -44t-95.5 -108.5t-34 -98t-7 -101.5h582q0 63 -8 99t-34 100t-94.5 108.5t-154.5 44.5z
M936 471q0 -188 82 -288.5t238 -100.5t274 119l78 -62q-78 -78 -159 -114.5t-198 -36.5q-264 0 -364 215q-47 -102 -139.5 -158.5t-208.5 -56.5q-166 0 -256 90t-116 190.5t-26 228.5t24.5 224t116 187t257.5 91q117 0 209 -56t139 -159q100 215 340 215q184 0 289.5 -128
t105.5 -353v-47h-686z" />
    <glyph glyph-name="Ydieresis" unicode="&#x178;" horiz-adv-x="1011" 
d="M561 0h-110v604l-431 854h119l371 -737l362 737h119l-430 -854v-604zM233 1618v158h119v-158h-119zM659 1618v158h119v-158h-119z" />
    <glyph glyph-name="florin" unicode="&#x192;" horiz-adv-x="806" 
d="M657 1366q-152 0 -180 -164l-74 -424h224v-78h-238l-207 -1171h-104l207 1171h-224v78h238l74 422q20 115 94 186.5t188 71.5h90v-92h-88z" />
    <glyph glyph-name="hungarumlaut" unicode="&#x2ba;" horiz-adv-x="1024" 
d="M385 1208h-119l199 301h137zM684 1208h-117l199 301h137z" />
    <glyph glyph-name="caron" unicode="&#x2c7;" horiz-adv-x="1024" 
d="M567 1208h-110l-252 301h117l190 -223l190 223h117z" />
    <glyph glyph-name="macron" unicode="&#x2c9;" horiz-adv-x="1024" 
d="M209 1245v94h606v-94h-606z" />
    <glyph glyph-name="breve" unicode="&#x2d8;" horiz-adv-x="1024" 
d="M440.5 1202q-237.5 0 -266.5 277h96q12 -86 76 -135.5t169 -49.5t170 48.5t77 136.5h88q-14 -135 -93 -206t-316.5 -71z" />
    <glyph glyph-name="dotaccent" unicode="&#x2d9;" horiz-adv-x="1024" 
d="M449 1317v129h126v-129h-126z" />
    <glyph glyph-name="ring" unicode="&#x2da;" horiz-adv-x="1024" 
d="M514 1534q-61 0 -106.5 -43t-45.5 -104.5t44.5 -105.5t105.5 -44t105.5 44t44.5 105.5t-43.5 104.5t-104.5 43zM513 1151q-97 0 -165.5 68.5t-68.5 167t67.5 166t165.5 67.5t165.5 -67t67.5 -165t-67.5 -167.5t-164.5 -69.5z" />
    <glyph glyph-name="ogonek" unicode="&#x2db;" horiz-adv-x="1024" 
d="M524 -451l-131 308h113l147 -308h-129z" />
    <glyph glyph-name="circumflex" unicode="&#x302;" horiz-adv-x="1024" 
d="M702 1208l-190 224l-190 -224h-117l252 301h110l252 -301h-117z" />
    <glyph glyph-name="tilde" unicode="&#x303;" horiz-adv-x="1024" 
d="M635 1239q-39 0 -67.5 11.5t-75 38t-64.5 34.5t-50 8t-52.5 -10t-67.5 -57l-61 59q61 61 101 79.5t82 18.5t68.5 -10t85.5 -46t106 -36q48 0 116 68l61 -60q-98 -98 -182 -98z" />
    <glyph glyph-name="summation" unicode="&#x3a3;" horiz-adv-x="1128" 
d="M129 -471v98l424 944l-424 887v98h885v-98h-760l399 -837v-99l-399 -895h760v-98h-885z" />
    <glyph glyph-name="Omega" unicode="&#x3a9;" horiz-adv-x="1335" 
d="M786 0v96q76 37 126.5 77t87 100.5t47 159.5t10.5 304t-11.5 318.5t-112.5 215t-265 101.5t-257.5 -93t-112.5 -198.5t-19 -323.5t9 -319.5t47 -163t87 -101.5t127 -77v-96h-381v96h186q-86 68 -125 140.5t-50 175t-11 231.5v86q0 229 11 354t142.5 256t347.5 131
t335.5 -120.5t141 -234.5t21.5 -386v-67q0 -152 -10 -250.5t-50 -173t-126 -142.5h186v-96h-381z" />
    <glyph glyph-name="pi" unicode="&#x3c0;" horiz-adv-x="1210" 
d="M887 0v895h-563v-895h-99v987h760v-987h-98z" />
    <glyph glyph-name="endash" unicode="&#x2013;" 
d="M109 492v96h835v-96h-835z" />
    <glyph glyph-name="emdash" unicode="&#x2014;" horiz-adv-x="1787" 
d="M168 492v96h1452v-96h-1452z" />
    <glyph glyph-name="quoteleft" unicode="&#x2018;" horiz-adv-x="532" 
d="M195 1315v143l143 144v-287h-143z" />
    <glyph glyph-name="quoteright" unicode="&#x2019;" horiz-adv-x="532" 
d="M195 1458h143v-143l-143 -144v287z" />
    <glyph glyph-name="quotesinglbase" unicode="&#x201a;" horiz-adv-x="532" 
d="M195 143h143v-143l-143 -143v286z" />
    <glyph glyph-name="quotedblleft" unicode="&#x201c;" horiz-adv-x="851" 
d="M195 1315v143l143 144v-287h-143zM514 1315v143l143 144v-287h-143z" />
    <glyph glyph-name="quotedblright" unicode="&#x201d;" horiz-adv-x="851" 
d="M195 1458h143v-143l-143 -144v287zM514 1458h143v-143l-143 -144v287z" />
    <glyph glyph-name="quotedblbase" unicode="&#x201e;" horiz-adv-x="851" 
d="M195 143h143v-143l-143 -143v286zM514 143h143v-143l-143 -143v286z" />
    <glyph glyph-name="dagger" unicode="&#x2020;" horiz-adv-x="1257" 
d="M678 936v-936h-105v936h-409v92h409v430h105v-430h416v-92h-416z" />
    <glyph glyph-name="daggerdbl" unicode="&#x2021;" horiz-adv-x="1257" 
d="M678 -41v-430h-105v430h-409v92h409v885h-409v92h409v430h105v-430h416v-92h-416v-885h416v-92h-416z" />
    <glyph glyph-name="bullet" unicode="&#x2022;" horiz-adv-x="1118" 
d="M559 350q-139 0 -236.5 97.5t-97.5 236.5t97.5 236.5t236.5 97.5t236.5 -97.5t97.5 -236.5t-97.5 -236.5t-236.5 -97.5z" />
    <glyph glyph-name="ellipsis" unicode="&#x2026;" horiz-adv-x="1482" 
d="M195 0v152h151v-152h-151zM666 0v152h151v-152h-151zM1137 0v152h151v-152h-151z" />
    <glyph glyph-name="perthousand" unicode="&#x2030;" horiz-adv-x="2392" 
d="M231 983q-1 -199 179 -199t180 199v211q0 201 -179.5 201t-179.5 -201v-211zM1106 264q0 -201 179 -201t179 201v211q0 201 -179 201t-179 -201v-211zM1802 264q0 -201 180 -201t179 199v213q0 201 -179.5 201t-179.5 -201v-211zM413 707q-120 0 -196 75.5t-76 196.5v219
q0 123 74 199t195 76t195.5 -77t74.5 -198v-219q0 -121 -73.5 -196.5t-193.5 -75.5zM555 0h-92l680 1458h92zM1286 -14q-121 0 -195.5 76.5t-74.5 197.5v219q0 123 73.5 199t194.5 76t195.5 -77t74.5 -198v-219q0 -123 -73.5 -198.5t-194.5 -75.5zM1982.5 -14
q-120.5 0 -195.5 76.5t-75 197.5v219q0 123 74 199t194 76t195.5 -77t75.5 -198v-219q0 -123 -74 -198.5t-194.5 -75.5z" />
    <glyph glyph-name="guilsinglleft" unicode="&#x2039;" horiz-adv-x="655" 
d="M86 543l401 401v-135l-266 -266l266 -267v-135z" />
    <glyph glyph-name="guilsinglright" unicode="&#x203a;" horiz-adv-x="655" 
d="M168 141v135l266 267l-266 266v135l401 -401z" />
    <glyph glyph-name="trademark" unicode="&#x2122;" horiz-adv-x="1656" 
d="M406 1374v-790h-91v790h-249v84h589v-84h-249zM1452 584v671l-225 -446h-94l-226 446v-671h-90v874h90l273 -553l272 553h90v-874h-90z" />
    <glyph glyph-name="partialdiff" unicode="&#x2202;" horiz-adv-x="1105" 
d="M524.5 907q-114.5 0 -181.5 -69.5t-82 -149.5t-15 -208t21.5 -200.5t82 -136t175 -63.5t181 69.5t82 149.5t15.5 208q0 228 -82 314t-196.5 86zM141 503q0 275 110.5 385.5t258.5 110.5q92 0 162.5 -29.5t130.5 -109.5v176q0 154 -75 248t-224 94q-72 0 -122 -16
t-134 -92l-68 67q82 72 150.5 102.5t173.5 30.5q190 0 296.5 -116.5t106.5 -311.5v-548q0 -129 -24.5 -226.5t-94.5 -171.5q-104 -109 -263.5 -108.5t-245.5 90.5t-112 191.5t-26 233.5z" />
    <glyph glyph-name="Delta" unicode="&#x2206;" horiz-adv-x="1210" 
d="M604 1311l-440 -1213h883zM20 0l537 1458h96l537 -1458h-1170z" />
    <glyph glyph-name="product" unicode="&#x220f;" horiz-adv-x="1431" 
d="M1096 -471v1929h-760v-1929h-111v2027h981v-2027h-110z" />
    <glyph glyph-name="fraction" unicode="&#x2215;" horiz-adv-x="362" 
d="M-113 0h-92l680 1458h92z" />
    <glyph glyph-name="periodcentered" unicode="&#x2219;" horiz-adv-x="540" 
d="M195 465v151h151v-151h-151z" />
    <glyph glyph-name="radical" unicode="&#x221a;" horiz-adv-x="1126" 
d="M1065 1458v-98h-180l-445 -1360h-94l-326 987h115l258 -792l408 1263h264z" />
    <glyph glyph-name="infinity" unicode="&#x221e;" horiz-adv-x="1622" 
d="M448 748q-85 0 -143.5 -60.5t-58.5 -155t57 -151.5t145 -57t148.5 48t153.5 160q-92 113 -154.5 164.5t-147.5 51.5zM1174 743q-85 0 -147 -50t-155 -161q92 -113 153.5 -160.5t146.5 -47.5t144.5 57t59.5 151.5t-58.5 152.5t-143.5 58zM1188 229q-118 0 -198.5 50.5
t-178.5 171.5q-96 -119 -178.5 -171.5t-198.5 -52.5t-201.5 87t-85.5 219t85 219.5t219 87.5q98 0 181 -52.5t179 -173.5q100 125 179 175.5t197 50.5t203 -87t85 -219t-84.5 -218.5t-202.5 -86.5z" />
    <glyph glyph-name="integral" unicode="&#x222b;" horiz-adv-x="673" 
d="M541 1366q-152 0 -152 -164v-1415q0 -117 -61.5 -187.5t-175.5 -70.5h-91v92h72q152 0 152 164v1415q0 117 61.5 187.5t175.5 70.5h90v-92h-71z" />
    <glyph glyph-name="approxequal" unicode="&#x2248;" 
d="M713 276q-57 0 -97.5 15.5t-110 45.5t-99 40t-70.5 10t-72 -15.5t-92 -76.5l-63 63q80 80 127 103.5t104 23.5t97 -15t109.5 -45t99.5 -40t71 -10t71.5 15.5t92.5 76.5l63 -64q-80 -80 -127 -103.5t-104 -23.5zM713 604q-57 0 -97.5 15.5t-110 45t-99 40t-70.5 10.5
t-72 -15.5t-92 -76.5l-63 63q80 80 127 103.5t104 23.5t97 -15.5t109.5 -45t99.5 -40t71 -10.5t71.5 15.5t92.5 77.5l63 -64q-80 -80 -127 -103.5t-104 -23.5z" />
    <glyph glyph-name="notequal" unicode="&#x2260;" 
d="M109 334v96h241l217 217h-458v96h555l213 213l67 -67l-145 -146h145v-96h-242l-217 -217h459v-96h-555l-213 -213l-67 67l145 146h-145z" />
    <glyph glyph-name="lessequal" unicode="&#x2264;" horiz-adv-x="2103" 
d="M391 1200h1170l100 -100h-1098l1186 -1186l-72 -72l-1188 1186v-1098l-98 99v1171z" />
    <glyph glyph-name="greaterequal" unicode="&#x2265;" horiz-adv-x="2103" 
d="M1712 1200v-1171l-98 -99v1098l-1188 -1186l-72 72l1186 1186h-1098l101 100h1169z" />
    <glyph glyph-name="lozenge" unicode="&#x25ca;" horiz-adv-x="1339" 
d="M670 1313l-406 -584l406 -588l405 588zM670 -14l-523 743l523 744l522 -744z" />
    <glyph glyph-name="fi" unicode="&#xf001;" horiz-adv-x="1120" 
d="M334 909v-909h-105v909h-135v78h135v213q0 117 61.5 187.5t176.5 70.5h90v-92h-72q-152 0 -151 -164v-215h223v-78h-223zM817 0v987h105v-987h-105zM805 1329v129h129v-129h-129z" />
    <glyph glyph-name="fl" unicode="&#xf002;" horiz-adv-x="1200" 
d="M334 909v-909h-105v909h-135v78h135v213q0 117 61.5 187.5t176.5 70.5h90v-92h-72q-152 0 -151 -164v-215h223v-78h-223zM1044 0q-117 0 -177 68.5t-60 187.5v1202h104v-1200q0 -88 33 -127t119 -39h72v-92h-91z" />
    <glyph glyph-name="Lslash" horiz-adv-x="1183" 
d="M238 0v627l-156 -99v99l156 98v733h110v-663l336 213v-99l-336 -213v-598h774v-98h-884z" />
    <glyph glyph-name="lslash" horiz-adv-x="630" 
d="M455 0q-117 0 -177.5 68.5t-60.5 187.5v473l-135 -84v92l135 84v637h105v-571l180 112v-92l-180 -112v-537q0 -88 32.5 -127t118.5 -39h72v-92h-90z" />
    <glyph glyph-name="Scaron" horiz-adv-x="1202" 
d="M590 -12q-164 0 -273 44t-213 148l78 78q96 -96 188 -134t246 -38t254 80t100 217t-60 190t-99 67t-131 30l-170 26q-166 25 -270 114t-104 266t120 286q121 109 332 108q133 0 227 -36t193 -121l-72 -72q-78 71 -155 103t-217 32t-230 -80t-90 -214t80 -200t213 -87
l157 -25q106 -16 158 -34t140 -93q89 -74 89 -255q0 -180 -132 -290t-359 -110zM643 1597h-111l-251 301h116l191 -223l190 223h117z" />
    <glyph glyph-name="scaron" horiz-adv-x="1011" 
d="M502 -12q-252 0 -400 141l72 72q115 -121 324 -121q297 0 297 201q0 147 -189 165l-164 15q-145 -1 -221 69t-76 194q1 124 97 200t258 75q207 0 346 -104l-70 -70q-115 84 -256 84q-274 0 -272 -190q0 -147 201 -166l159 -14q139 -11 214 -67t75 -190q1 -134 -107 -214
t-288 -80zM555 1208h-111l-251 301h116l191 -223l190 223h117z" />
    <glyph glyph-name="Zcaron" horiz-adv-x="1144" 
d="M129 0v117l768 1243h-737v98h856v-98l-774 -1262h774v-98h-887zM643 1597h-111l-251 301h116l191 -223l190 223h117z" />
    <glyph glyph-name="zcaron" horiz-adv-x="925" 
d="M111 0v98l594 797h-562v92h672v-98l-596 -797h596v-92h-704zM535 1208h-111l-252 301h117l190 -223l191 223h116z" />
    <glyph glyph-name="brokenbar" horiz-adv-x="671" 
d="M272 -152v717h105v-717h-105zM272 893v717h105v-717h-105z" />
    <glyph glyph-name="Eth" horiz-adv-x="1411" 
d="M711 1362h-353v-584h365v-86h-365v-596h353q242 0 320.5 119t90 199t11.5 286t-6.5 307t-72.5 190t-148.5 127t-194.5 38zM725 0h-477v692h-166v86h166v680h491q289 0 383.5 -161.5t107.5 -244.5t13 -329t-14.5 -331t-63.5 -161q-66 -104 -176 -167.5t-264 -63.5z" />
    <glyph glyph-name="glyph233" horiz-adv-x="1077" 
d="M538.5 907q-120.5 0 -184 -63.5t-86 -135t-22.5 -215t21.5 -214t86 -135t185 -64.5t184 63.5t86 135t22.5 215t-21.5 214t-66.5 115.5q-84 84 -204.5 84zM141 497q0 128 24.5 224t116 187t257.5 91q100 0 153 -34l-137 231h-240v78h195l-109 184h109l106 -184h162v-78
h-116l147 -252q78 -135 102.5 -225t24.5 -223t-24.5 -229.5t-98.5 -170.5q-109 -109 -274.5 -108.5t-255.5 90.5t-116 190.5t-26 228.5z" />
    <glyph glyph-name="Yacute" horiz-adv-x="1011" 
d="M561 0h-110v604l-431 854h119l371 -737l362 737h119l-430 -854v-604zM528 1597h-118l198 301h137z" />
    <glyph glyph-name="yacute" horiz-adv-x="880" 
d="M90 -446v92h39q82 0 117 28t63 107l80 219l-360 987h114l297 -864l297 864h115l-459 -1255q-29 -80 -65 -114q-69 -64 -189 -64h-49zM463 1208h-119l199 301h137z" />
    <glyph glyph-name="Thorn" horiz-adv-x="1323" 
d="M748 1057h-412v-643h412q158 0 250 80.5t92 240.5t-93 241t-249 81zM760 315h-424v-315h-111v1458h111v-303h424q197 0 318.5 -110.5t121.5 -307.5t-122.5 -309.5t-317.5 -112.5z" />
    <glyph glyph-name="thorn" horiz-adv-x="1105" 
d="M583 907q-165 0 -222.5 -112.5t-57.5 -301t56.5 -301t221.5 -112.5t222 112.5t57 301t-56 301t-221 112.5zM596 999q369 0 369 -505q0 -137 -48 -321.5t-329 -184.5q-84 0 -155 29.5t-130 109.5v-598h-104v1929h104v-598q59 80 130 109.5t163 29.5z" />
    <glyph glyph-name="minus" 
d="M109 492v96h835v-96h-835z" />
    <glyph glyph-name="multiply" 
d="M844 160l-318 317l-317 -317l-64 63l318 318l-318 317l64 64l317 -318l318 318l63 -64l-317 -317l317 -318z" />
    <glyph glyph-name="onesuperior" horiz-adv-x="509" 
d="M256 584v774l-164 -146v105l164 141h90v-874h-90z" />
    <glyph glyph-name="twosuperior" horiz-adv-x="688" 
d="M102 584v82l344 436q48 61 48 130t-40 110.5t-109 41.5t-110.5 -36.5t-41.5 -118.5h-91q0 104 67 170.5t175.5 66.5t175 -64.5t66.5 -163.5t-70 -187l-305 -385h375v-82h-484z" />
    <glyph glyph-name="threesuperior" horiz-adv-x="720" 
d="M356 1069q156 0 156 158q0 78 -41 117.5t-110 39.5t-109.5 -38.5t-46.5 -104.5h-90q0 104 69.5 164.5t177.5 60.5t174 -64.5t66 -172.5q0 -141 -117 -195q133 -49 133 -211q0 -119 -71.5 -184.5t-184 -65.5t-186.5 58.5t-74 175.5h93q0 -78 48.5 -115t120.5 -37t118 44
t46 124q0 166 -172 166h-16v80h16z" />
    <glyph glyph-name="onehalf" horiz-adv-x="1564" 
d="M256 584v774l-164 -146v105l164 141h90v-874h-90zM406 0h-93l680 1458h92zM979 0v82l344 436q47 61 47 130t-40 111t-108 42t-110.5 -37t-42.5 -119h-90q0 104 66.5 171t175 67t175 -64.5t66.5 -173.5q0 -51 -15 -89t-54 -89l-306 -385h375v-82h-483z" />
    <glyph glyph-name="onequarter" horiz-adv-x="1548" 
d="M256 584v774l-164 -146v105l164 141h90v-874h-90zM436 0h-92l680 1458h92zM1360 137v-137h-90v137h-348v82l315 655h96l-313 -655h250v246h90v-246h106v-82h-106z" />
    <glyph glyph-name="threequarters" horiz-adv-x="1650" 
d="M356 1069q156 0 156 158q0 78 -41 117.5t-110 39.5t-109.5 -38.5t-46.5 -104.5h-90q0 104 69.5 164.5t177.5 60.5t174 -64.5t66 -172.5q0 -141 -117 -195q133 -49 133 -211q0 -119 -71.5 -184.5t-184 -65.5t-186.5 58.5t-74 175.5h93q0 -78 48.5 -115t120.5 -37t118 44
t46 124q0 166 -172 166h-16v80h16zM559 0h-92l680 1458h92zM1462 137v-137h-90v137h-348v82l315 655h97l-314 -655h250v246h90v-246h107v-82h-107z" />
  </font>
</defs>
</svg>
